<?xml version="1.0" encoding="utf-8"?>
<!DOCTYPE svg PUBLIC "-//W3C//DTD SVG 1.1//EN" "http://www.w3.org/Graphics/SVG/1.1/DTD/svg11.dtd">
<svg version="1.1" xmlns="http://www.w3.org/2000/svg" xmlns:xlink="http://www.w3.org/1999/xlink">
  <defs>

    <style>
      g { display: none; }
      g:target { display: inline; }
    </style>

    <symbol id="bubble-symbol" viewBox="0 0 32 32">
      <path d="M16 2c8.837 0 16 5.82 16 13s-7.163 13-16 13c-0.849 0-1.682-0.054-2.495-0.158-3.437 3.437-7.539 4.053-11.505 4.144v-0.841c2.142-1.049 4-2.961 4-5.145 0-0.305-0.024-0.604-0.068-0.897-3.619-2.383-5.932-6.024-5.932-10.103 0-7.18 7.163-13 16-13z" />
    </symbol>

    <symbol id="edit-symbol" viewBox="0 0 24 24">
      <path d="M20.719 7.031l-1.828 1.828-3.75-3.75 1.828-1.828q0.281-0.281 0.703-0.281t0.703 0.281l2.344 2.344q0.281 0.281 0.281 0.703t-0.281 0.703zM3 17.25l11.063-11.063 3.75 3.75-11.063 11.063h-3.75v-3.75z" />
    </symbol>

    <symbol id="delete-symbol" viewBox="0 0 24 24">
      <path d="M18.984 3.984v2.016h-13.969v-2.016h3.469l1.031-0.984h4.969l1.031 0.984h3.469zM6 18.984v-12h12v12q0 0.797-0.609 1.406t-1.406 0.609h-7.969q-0.797 0-1.406-0.609t-0.609-1.406z" />
    </symbol>

    <symbol id="upvote-symbol" viewBox="0 0 28 28">
      <path d="M26.297 20.797l-2.594 2.578c-0.391 0.391-1.016 0.391-1.406 0l-8.297-8.297-8.297 8.297c-0.391 0.391-1.016 0.391-1.406 0l-2.594-2.578c-0.391-0.391-0.391-1.031 0-1.422l11.594-11.578c0.391-0.391 1.016-0.391 1.406 0l11.594 11.578c0.391 0.391 0.391 1.031 0 1.422z" />
    </symbol>

    <symbol id="downvote-symbol" viewBox="0 0 28 28">
      <path d="M26.297 12.625l-11.594 11.578c-0.391 0.391-1.016 0.391-1.406 0l-11.594-11.578c-0.391-0.391-0.391-1.031 0-1.422l2.594-2.578c0.391-0.391 1.016-0.391 1.406 0l8.297 8.297 8.297-8.297c0.391-0.391 1.016-0.391 1.406 0l2.594 2.578c0.391 0.391 0.391 1.031 0 1.422z" />
    </symbol>

    <symbol id="permalink-symbol" viewBox="0 0 64 64">
      <path d="M41.5 2.4c-3.9 1.8-18.1 16.3-19.4 19.9-3.2 8.3 2.6 20.9 7.3 16.2 1.4-1.4 1.3-2-.5-5.5-3.1-5.9-2-8.4 7.1-17.5 7.3-7.3 8.3-8 12-8 5.4 0 8.5 3.1 8.5 8.5 0 3.3-.7 4.7-4.4 8.4-4.6 4.6-5.2 7.9-1.5 8.4 3 .4 11.1-8.5 11.9-13.2C65 6.7 53.2-2.9 41.5 2.4z"/><path d="M34.6 25.5c-1.4 1.4-1.3 2 .5 5.5 3.1 5.9 2 8.4-7.1 17.5-7.3 7.3-8.3 8-12 8-5.4 0-8.5-3.1-8.5-8.5 0-3.3.7-4.7 4.4-8.4 4.6-4.6 5.2-7.9 1.5-8.4-3-.4-11.1 8.5-11.9 13.2C-.7 56 8 64.7 19.7 62.5c2.8-.5 5.7-2.6 12.1-8.8C40.5 45.3 43 41.3 43 36c0-7.2-5.2-13.7-8.4-10.5z"/>
    </symbol>

    <symbol id="forward-symbol" viewBox="0 0 32 32">
      <path d="M8.192 0c-3.554 6.439-4.153 16.259 9.808 15.932v-7.932l12 12-12 12v-7.762c-16.718 0.436-18.58-14.757-9.808-24.238z"></path>
    </symbol>

  </defs>

  <g id="bubble">
    <use xlink:href="#bubble-symbol"/>
  </g>

  <g id="edit">
    <use xlink:href="#edit-symbol"/>
  </g>

  <g id="delete">
    <use xlink:href="#delete-symbol"/>
  </g>

  <g id="upvote">
    <use xlink:href="#upvote-symbol"/>
  </g>

  <g id="downvote">
    <use xlink:href="#downvote-symbol"/>
  </g>

  <g id="permalink">
    <use xlink:href="#permalink-symbol"/>
  </g>

  <g id="forward">
    <use xlink:href="#forward-symbol"/>
  </g>

</svg>