<?xml version="1.0" encoding="utf-8"?>
<!DOCTYPE svg PUBLIC "-//W3C//DTD SVG 1.1//EN" "http://www.w3.org/Graphics/SVG/1.1/DTD/svg11.dtd">
<svg version="1.1" xmlns="http://www.w3.org/2000/svg" xmlns:xlink="http://www.w3.org/1999/xlink">
  <defs>

    <style>
      g { display: none; }
      g:target { display: inline; }
    </style>

    <symbol id="sad-face-symbol" viewBox="0 0 295.996 295.996">
      <path d="M147.998 0C66.392 0 0 66.392 0 147.998s66.392 147.998 147.998 147.998 147.998-66.392 147.998-147.998S229.604 0 147.998 0zm0 279.996c-36.257 0-69.143-14.696-93.023-38.44a132.713 132.713 0 0 1-23.934-32.42C21.442 190.847 16 170.047 16 147.998 16 75.214 75.214 16 147.998 16c34.523 0 65.987 13.328 89.533 35.102 12.208 11.288 22.289 24.844 29.558 39.996 8.27 17.239 12.907 36.538 12.907 56.9 0 72.784-59.214 131.998-131.998 131.998z"/><path d="M163.638 187.607c17.554 3.671 33.322 13.54 44.4 27.789l12.631-9.82c-13.402-17.24-32.494-29.184-53.756-33.631-34.195-7.146-70.146 6.052-91.587 33.631l12.633 9.82c17.716-22.789 47.423-33.699 75.679-27.789z"/><circle cx="98.666" cy="114.998" r="16"/><circle cx="197.666" cy="114.998" r="16"/>
    </symbol>

    <symbol id="crying-face-symbol" viewBox="0 0 980 981">
      <path d="M463 1.6c-2.5.2-10.1.8-17 1.4-88.1 7.5-175.3 40.8-248 94.8-45.2 33.6-87.4 78.1-117.6 124.2C5.5 336.4-18.3 476.1 14.5 608.6 35.8 694.7 79.6 773 141.6 835.5 249.4 944.4 399.9 996.2 552 976.9c85.4-10.8 165.7-43.6 234.9-95.8 25.4-19.2 49.6-42 74.6-70.3 6.6-7.5 13.1-14.1 14.3-14.7 1.8-.9 4.6-.8 11 0 34.8 4.6 67.7-12.4 83.7-43.3 7.5-14.4 8.9-21 8.8-43.3 0-26.7-3.9-51.5-12.3-78.4-1.7-5.3-3-10.6-3-11.8 0-1.3 1.8-10.1 3.9-19.6 14.9-65.7 16-138.6 3-203.2C942.9 256.4 857.3 137.1 734 66 675.1 32.1 609.8 11 540 3.5 526.4 2 473.5.7 463 1.6zm56.5 41.8c24.5.7 52.3 5 81.7 12.5 84.4 21.6 159.1 66.5 219.3 131.8 63.3 68.5 102.6 152 114.4 242.5 4.1 31.1 5.1 60.4 3.1 92.3-1 16.4-2.7 33.6-3.6 36.7-.9 2.9-3.4.8-13.2-10.9-23.5-28.1-57.9-56.3-86.7-70.9-9.7-4.9-17.7-6.6-23.9-5-3.3.8-9.3 6.1-11.2 9.7-2.2 4.4-1.7 15.7 2.1 42.6 8.1 58.4 11.7 99.1 16.1 184.8 1.1 21.5 2.6 29.4 7.7 40 2.5 5.1 6.4 12.1 8.6 15.6 2.3 3.5 4.1 7.1 4.1 8 0 2.6-6.5 10.8-20.1 25.1-62.2 65.9-142.5 111.7-230.3 131.4-32.8 7.3-58.4 9.7-103.1 9.7-26.2 0-33.6-.3-48-2.2-53-6.9-100.3-21.1-145.6-43.6-54.1-26.9-102.1-64.6-143.2-112.4C57.7 676.3 22.3 535.8 51 396.5c13.5-65.6 44.5-130.8 88.1-185 74.5-92.7 179.5-151.8 296.4-166.6 9.8-1.2 47.1-2.6 60-2.2 4.4.2 15.2.5 24 .7zm334.7 495.8c19.2 14.2 42.4 41.3 56 65.5 19.5 34.7 30.1 75.2 28.5 109.6-.5 12.9-2.1 18-7.5 25.2-14.6 19.3-41.7 22-59.2 5.8-11.2-10.3-13.4-18.5-15-57-2.1-51.1-9.6-140.7-12.6-153-.4-1.3-.2-2.3.4-2.3.6 0 4.8 2.8 9.4 6.2z"/><path d="M289.5 247.1c-37.7 4.6-90.3 30.6-101.6 50.3-6.3 11.1-2.3 23.2 9.3 28 7.5 3.2 12.8 1.4 29.9-10.2 19.7-13.3 39.9-22.4 56.8-25.6 10.6-2 34.3-2.1 44.3-.2 17.5 3.4 42 14.8 61.3 28.6 4.4 3.2 9.4 6.5 11.2 7.4 10.9 5.5 25.8-3.5 27.1-16.3.6-6.6-3.1-14.4-9.6-20.2-15.4-13.8-49.3-31.2-71.8-36.9-15.8-4.1-44.1-6.5-56.9-4.9zM646.5 248.6c-31.8 7-76.3 29.4-88.4 44.4-7.7 9.6-7.9 19.1-.7 26.9 3.6 3.9 9.9 7.1 14.1 7.1 4.2 0 11.4-3.6 23-11.5 17.5-12 44.7-24 59.5-26.4 8.4-1.4 31.6-1.4 40 0 16.6 2.6 38.4 12.3 58.4 25.7 12.8 8.6 19.8 12.2 24.2 12.2 4.1 0 13.3-4.8 15.8-8.3 1.6-2.1 2.2-4.7 2.4-10.5.4-7.2.2-7.9-2.7-11.9-12.7-17.5-57.2-41.3-87.6-46.9-13-2.4-48.6-2.9-58-.8zM254.5 350.9c-18.3 5.3-64.6 28.4-87 43.4-18.8 12.6-45 37.6-58.5 55.8-18.8 25.3-29.5 62.1-26.1 89.9 5.1 41.6 34.3 69.4 76.3 72.6 26.8 2.1 53.9-11.1 70.4-34.3 9.8-13.6 13.4-26 15.9-54.8 4.2-49.3 12-82.3 29.6-126.2 9-22.4 10.7-30.9 7.5-37.1-1.6-3.1-7.1-8.4-10.3-10.1-3.1-1.6-10.8-1.2-17.8.8zm-28 58.3c-.2.7-2.5 8.5-5 17.3-9.9 34.3-13.4 53.6-17 93.1-2.3 25.8-5 34.2-13.3 41.5-9.9 8.7-22.4 12.9-32.9 11-15.1-2.8-28.1-13.2-32.4-25.8-3.1-9.2-3.1-26 0-37.8 2.6-9.9 10.2-25.7 16.9-35.1 14.3-20.2 38.6-40.9 68.1-58.1 11.9-7 16.5-8.8 15.6-6.1zM460.5 431.4c-47.4 5.8-86.2 22.6-123.6 53.6-29.6 24.6-61.1 74.8-76.3 121.7-8.1 25.2-15.1 58.5-14.4 68.9.5 7.7 4 13.4 10 16.5 3.8 1.9 5.1 2.1 14.2 1.4 5.6-.3 24.5-2.4 42.1-4.6 54.9-6.7 65.5-7.8 101.5-10.5 29.4-2.1 98.7-3 127-1.5 43.6 2.3 81.3 5.9 131 12.7 28.1 3.8 42.8 5 48.4 4 4.1-.8 10-5.4 12.2-9.7 5.6-10.9-6-63.7-22.7-102.6-21.5-50.4-51.8-88.7-90.4-114.5-25.4-16.9-58.7-29.1-94-34.4-13.9-2.1-51.1-2.7-65-1zm59 41.7c42.3 4.3 84.7 26.4 113.3 59.2 22 25.2 35.9 50.7 48.8 89.2 6.9 20.9 8.6 28.5 6.3 28.5-.8 0-9.9-1.1-20.4-2.5C597 638.3 561.8 636 490 636c-71.7 0-109.7 2.5-180.5 12-20.3 2.7-18.9 2.8-18.1-2.3.4-2.3 3.9-13.9 7.8-25.7 18.6-55.4 46-93.8 85.8-120 17.6-11.5 39.9-20.5 62-25 17.5-3.6 48-4.4 72.5-1.9z" />
    </symbol>

    <symbol id="happy-face-symbol" viewBox="0 0 512 512">
      <path d="M256 0C114.843 0 0 114.843 0 256c0 141.157 114.843 256 256 256s256-114.843 256-256C512 114.843 397.157 0 256 0zm0 493.037C125.296 493.037 18.963 386.704 18.963 256S125.296 18.963 256 18.963 493.037 125.296 493.037 256 386.704 493.037 256 493.037z"/><path d="M417.185 246.518c-5.236 0-9.481 4.246-9.481 9.482 0 83.648-68.056 151.704-151.704 151.704S104.296 339.648 104.296 256a9.482 9.482 0 0 0-18.964 0c0 94.107 76.56 170.667 170.667 170.667S426.667 350.107 426.667 256c0-5.236-4.246-9.482-9.482-9.482zM180.148 161.185c-5.236 0-9.481 4.246-9.481 9.482v56.889a9.482 9.482 0 0 0 18.963 0v-56.889c0-5.236-4.246-9.482-9.482-9.482zM331.852 161.185c-5.236 0-9.482 4.246-9.482 9.482v56.889a9.482 9.482 0 0 0 18.963 0v-56.889c0-5.236-4.245-9.482-9.481-9.482z"/>
    </symbol>

    <symbol id="sleeping-face-symbol" viewBox="0 0 850 1100">
      <path d="M523.3 230.7c-.9.3-1.3 3.6-1.3 11.3 0 8.9.3 10.9 1.6 11.4.9.3 13.5.6 28 .6s26.4.3 26.4.7c0 .5-4.7 6.6-10.5 13.8-14.5 17.9-35.4 44.2-47.3 59.4l-6.3 8 .3 11.3.3 11.3 50.2.3 50.3.2.5-2.2c.3-1.3.5-6.8.3-12.3l-.3-10-20-.6c-11-.4-24.8-.7-30.7-.8-6 0-10.8-.5-10.8-1 0-1.2 21.7-29.4 43.9-56.9l17.1-21.4v-11.3c0-9.4-.3-11.4-1.6-11.9-1.9-.7-88.3-.7-90.1.1z"/><path d="M381.5 248.7c-57.5 5.2-110.7 25.6-157.5 60.6-18.6 13.9-49.8 45.1-63.7 63.7-32 42.9-50.8 88.3-59 142.5-1.5 9.8-1.8 18.4-1.8 46.5s.3 36.7 1.8 46.5c8.2 54.2 27 99.6 59 142.5 14 18.7 45.1 49.9 63.7 63.7 43.7 32.4 88.1 50.8 142.5 59 17.4 2.6 75.6 2.6 92.9 0 54.6-8.3 99.6-26.9 142.6-59 18.6-13.9 49.8-45.1 63.7-63.7 31.6-42.2 50.2-86.8 58.5-139.5 2.6-16.6 3.6-63.2 1.9-82.3-2.5-26.1-10.6-63.6-14.7-67.7-2.3-2.2-28.2-2.2-29 0-.4.9 1 6.4 2.9 12.3 21.3 64.4 19.4 128.4-5.9 192.5-14.7 37.4-39.4 75.1-66.1 100.8-52.9 51-128.5 81.9-200.3 81.9-66.7 0-135.9-26.2-188.9-71.6C164.4 726.3 126 641.9 126 562c0-71.8 30.9-147.4 81.9-200.3 25.7-26.7 63.4-51.4 100.8-66.1 69.4-27.3 139.5-27.4 208.2-.1 7.7 3 14.9 5.5 16 5.5 1.4 0 4.5-3 9.5-9.3 7-8.9 8-10.6 7.7-13.4-.1-1.4-20.9-10.2-36.1-15.3-20.5-6.8-43.9-11.7-66.9-14-9.5-.9-56.2-1.1-65.6-.3z"/><path d="M622.4 287.3c-.2.7-.3 7.4-.2 14.8l.3 13.4 37.3.3c32.4.2 37.2.4 37.2 1.7 0 .9-13.4 18.3-29.7 38.7-16.4 20.4-35.5 44.5-42.6 53.5L611.9 426l.3 14.2.3 14.3h133v-31l-40-.5c-34.7-.4-40-.7-39.9-2 .2-3 20.4-30.3 48.4-65.6 15.9-19.9 29.6-37.3 30.4-38.7 1.4-2 1.6-4.9 1.4-16.3l-.3-13.9-61.3-.3c-49.7-.2-61.4 0-61.8 1.1z"/><path d="M576.6 308.7c-4.2 5.4-7.6 10.6-7.6 11.6s2 3 4.7 4.7l4.7 3h20.8c19.4 0 20.8-.1 20.8-1.8 0-2.8-8.2-10.1-24.4-21.6-4.3-3.1-8.6-5.6-9.6-5.6-1.2 0-4.7 3.7-9.4 9.7zM438 314v9l18.2.2c11 .2 18.3.7 18.5 1.3.1.5-8.7 12.2-19.7 26l-20 25v9.6c0 7.9.3 9.8 1.6 10.3 2.4.9 61.7.7 63.2-.3.9-.5 1.2-2.9 1-8.2l-.3-7.4-19.5-.5c-17.3-.4-19.5-.7-19.5-2.2 0-.9 8.3-12.6 18.4-26l18.5-24.3.7-10c.4-5.5.5-10.3.3-10.7-.3-.5-14.2-.8-31-.8H438v9zM621.7 334.7c-.4.3-.7 7-.7 14.8 0 16-.7 14.1 9.8 26.2 3.6 4.1 6.2 6.3 7.6 6.3 2.6-.1 15.9-16.7 16.4-20.4.3-1.9-2.2-5-11.9-15-11.8-12.2-12.3-12.6-16.4-12.6-2.3 0-4.5.3-4.8.7zM679.5 407.7c-2.2 3-3.4 5.7-3.3 7.3.3 2.4.6 2.5 7.6 2.8 6 .2 7.3 0 7.9-1.4 1-2.7-5.2-13.4-7.8-13.4-.5 0-2.5 2.1-4.4 4.7zM448.3 527.6c-.9 1.4-1.8 4.9-2.1 7.8-.4 4.9-.2 5.5 5.6 14.1 33.7 49.9 81.3 59 127.5 24.3 7.6-5.6 18.4-18.8 22.2-26.9 4.7-10.3 2.3-16.6-6.7-17.6-3.6-.4-5.6.1-12.3 3.5-30.1 15.1-64.6 18-94 8-8.8-3-19.6-8.1-25.8-12.2-6.8-4.5-11.8-4.9-14.4-1zM221.7 528.8c-2.7 3-3.9 10.7-2.3 14.7 3.9 9.3 18 26.5 29.2 35.5 8.2 6.6 22.7 14 31.4 16.1 8.9 2.2 27 1.7 36.5-1 13.8-3.9 32.7-14.5 41.7-23.5 10.1-10.1 17.8-23.1 17.8-30.3 0-5.2-2.4-7.8-8.2-8.7-3.5-.6-5.4 0-13.7 3.9-11.8 5.5-21.4 8.8-32.3 11.1-11.2 2.5-37.2 2.5-47.6.1-15.4-3.5-29.5-9.4-40.2-16.6-5.1-3.5-9.9-4-12.3-1.3zM400.1 662.6c-21.4 5.7-37.1 26.5-37.1 48.9.1 31 26.9 54.8 56.9 50.5 12.6-1.8 21.6-6.5 30.3-15.7 8.8-9.5 12.8-20.3 12.8-34.9 0-19.4-8.9-34.9-25.5-44.5-9.6-5.5-25.9-7.4-37.4-4.3z"/>
    </symbol>

    <!--<symbol id="nothing-face-symbol" viewBox="0 0 225 92">
      <path d="M13.4 28.5c-1.3 3.4.3 4.5 6.9 4.5h6.3l7.5 19.2 7.5 19.3 15.7.3 15.7.3V67H45.5l-7.6-19.8-7.7-19.7-8.1-.3c-6.6-.2-8.2 0-8.7 1.3zm67.1 3.9c-4.9 10.1-5.1 23.9-.3 33.4 3.6 7.2 8.7 8.9 5.9 1.9-3.6-8.7-4-10.8-4-18.2 0-5.6.6-9.7 2-13.5 3.4-9.2 3.3-9 1.1-9-1.5 0-2.8 1.5-4.7 5.4zm58.5-4.5c0 .5 1.2 3.5 2.7 6.7 2.3 5 2.7 7.2 2.7 14.9s-.4 9.9-2.8 15.3c-4.6 9.9-.4 10.1 4.7.1 5-10 4.4-25.2-1.4-34.6-1.9-3-5.9-4.7-5.9-2.4zm54.7 2.3c-.7 1.8-4.2 10.8-7.8 20L179.5 67H152v5.1l15.7-.3 15.7-.3 7.5-19.2 7.5-19.2 7-.3c6.8-.3 7.1-.4 7.1-2.8 0-2.5-.2-2.5-8.7-2.8l-8.7-.3-1.4 3.3zm-84.7 1c0 4.9 1.4 10 2.7 10.5 3 1.2 3.8-3.8 1.7-11-.8-2.6-4.4-2.2-4.4.5zm-15 2.1c0 2.4 3.1 10.5 4.4 11.7 1 .7 1.7.6 2.6-.5 1.9-2.3-1.9-11.9-4.9-12.3-1.3-.2-2.1.2-2.1 1.1zm35.7 8.1c-6.6 2.4-14.8 8-19.3 13.1-4.9 5.5-8.9 12.9-7.9 14.5 1.4 2.2 3.6.8 6.9-4.5 6.4-9.9 14.2-16.1 24.1-19 2.8-.9 4-1.8 4-3.1 0-2.4-2.8-2.8-7.8-1z"/><path d="M12.568 27.561h1.509v4.588h-1.509z"/><path stroke="#000" fill="none" d="M12.57 27.64h17.555M12.57 32.519h17.555"/><path stroke="#fff" fill="none" d="m33 27.043-20.551-.142"/><path stroke="#000" d="M195.627 27.375h17.213v5.147h-17.213z"/><path stroke="#fff" fill="none" d="m198.432 32.653 17.604.116"/><path stroke="#000" fill="none" d="m194.646 40.04 5.527-11.858"/>
    </symbol>-->

    <symbol id="meh-face-symbol" viewBox="0 0 980 982">
      <path d="M450.5 1.7C326.9 12.9 210.2 70.1 129.4 159.1 59.2 236.4 16.6 327.2 4.1 426c-12.6 98.9 2.8 193.9 45.4 280.5 38.9 79.2 98.3 146.4 172.1 194.8 21.2 13.9 34.3 21.3 55.9 31.8 46 22.2 92.7 36.4 144 43.8 37.1 5.4 95 5.6 133.5.5 140-18.4 267.3-98.9 345.7-218.6 45.6-69.6 72.9-150.3 78.3-231.3 3.5-53.4-1.1-108.7-13.2-156-44.7-176.1-183.4-313.6-360.2-357C574 6.8 552.8 3.7 520 2c-18.3-.9-60.6-1.1-69.5-.3zM530 34.1c20.4 1.3 29.8 2.4 45.5 5.5 131.7 25.6 246.1 107.1 313 222.9 20.7 35.8 36.9 76.6 48 120.6 9.5 38 11.6 57.1 11.6 107.6-.1 45.1-1.2 59.7-7.2 89.3-18.2 90-61.1 170.3-125.9 235.1-44.9 45-96.8 79.6-154 102.6-30.9 12.5-72 23.7-103.5 28.2-28.2 4.1-86.3 5.1-119 2-25.8-2.4-62.5-10.6-93.5-20.9C207.7 881.4 97.5 770.6 53 633.4c-10.9-33.6-17.9-67-19.9-94.6-2.2-30.2-1.2-92.5 1.9-114.8 6-42.5 23.3-97.7 43.1-137.3C118.4 206.3 182.9 138.2 261.5 93c14.4-8.3 45.9-23.5 61-29.5C363.4 47.3 413.4 35.4 451 33c14.5-1 56.5-.4 79 1.1z"/><path d="M226.5 181c-7.7.3-15 1.1-16.1 1.8-1.2.6-3.4 2.5-4.8 4.3-2.2 2.5-2.6 4.1-2.6 8.9 0 5.2.4 6.4 3.1 9.4 1.7 2 4.7 4.1 6.7 4.7 4.7 1.6 172.6 2.4 211.5 1.1 26.3-.9 26.8-.9 29.3-3.3 3.9-3.6 5.5-7.5 5.6-13.1 0-6.5-2.4-9.8-8.3-11.6-2.6-.7-14.2-1.7-27.9-2.2-25.9-1-174.3-1-196.5 0zM580 180.9c-46.5.5-50.8.7-53.3 2.4-6.5 4.2-8.7 13.7-4.7 20.2 3.4 5.4 7.8 6.5 30.9 7.7 29.2 1.4 209.4.5 214.3-1.1 2-.6 5-2.7 6.7-4.7 2.7-3 3.1-4.2 3.1-9.4 0-5.4-.3-6.4-3.2-9.6-2-2.1-4.9-3.9-7.3-4.5-5-1.3-116.6-1.9-186.5-1zM138.1 292.4c-4.5 4.6-5.1 8.7-4 27 3.2 55.7 18.3 96.5 49.8 134.5 27.4 33.2 65.5 56.4 111.9 68 19.7 5 26.7 5.6 63.7 5.6 36.4 0 39-.2 61.3-5.6 40.2-9.7 72.7-27.6 100.6-55.5 10.7-10.7 19.7-21.8 27-33.2 5.8-9 16.4-30.5 20.7-42.3 1.9-4.9 3.8-8.9 4.5-8.9.6 0 4.2 4.4 7.9 9.7 15.7 22.5 37.3 38.6 64.7 48.2 16.9 5.9 21.4 6.4 54.8 6.4 33.7 0 41.2-.7 55.5-5.5 33.6-11.3 60.3-33.9 74.5-63.2 2.7-5.6 6.1-13.7 7.5-18 5.9-18.3 9.3-43.2 7.5-55.6-1.2-8.6-2.3-10.7-5.8-12.2-5.3-2.1-85.5-2.7-390.3-2.7l-308.5-.1-3.3 3.4zM320 320.6c.9.9.7 2.7-.5 7.2-1.4 4.9-1.5 6.9-.6 11.2 6.6 31 42.8 40.3 62 16 5.3-6.6 6.5-12.4 5.6-25.6l-.7-10.4H551v9.4c0 12.4-3 27.5-8.9 45.6-8.8 26.6-17.4 42.1-34.2 61.5-21.9 25.3-44 40-77.4 51.1C407.2 494.3 384 498 358 498c-50 0-94.9-14.6-128.3-41.7-10.4-8.5-26-25.4-32.8-35.6-16.8-25.2-29-60.9-31.4-92.5l-.8-9.3 77.1.3c55.8.2 77.4.6 78.2 1.4zm353.2 10.1c-.3 10.2-.1 12.6 1.8 17.5 4.6 12.3 15.1 18.7 31.7 19.6 8.5.4 9.4.2 14.1-2.3 5.9-3.2 12.5-9.3 14.7-13.6 1.8-3.4 3.5-16.1 3.5-26.2V319h76v3.5c0 8.9-6.9 32.4-13 44.5-10.3 20.4-33 37.5-60.1 45.4-22.7 6.5-64.9 5.6-86.1-2-29-10.4-49.2-30.3-59.2-58.3-3.8-10.5-7.8-31.3-6.3-32.3.7-.4 19.7-.8 42.2-.8h41l-.3 11.7zM371 632.6c-9.7.9-29.9 3.5-38 5-49.7 8.9-114.8 34.9-122.1 48.7-3.2 5.9 1.2 17.6 7.5 19.7 4.4 1.4 9.9.2 21.5-5 5-2.2 13.3-5.8 18.4-8.1 26.7-11.9 65.1-23.2 89.7-26.4 13.8-1.8 80.2-2.2 95-.5 24.7 2.8 61.6 13 89.9 24.8C587 713.4 639 756.5 678 811c10.4 14.5 13.6 17.6 18.8 18.5 9.3 1.5 19.5-7.9 17.8-16.6-.9-4.8-6.5-13.9-17.9-29.2-19.6-26.1-38.5-46.2-61.1-65-56.1-46.6-122.2-75.1-195.6-84.3-11-1.4-59.3-2.6-69-1.8z"/>
    </symbol>

    <symbol id="thumbs-up-symbol" viewBox="0 0 392 244">
      <path d="M180.8 9.6c-30.4 4.7-59.1 23-76.1 48.5-3.1 4.7-6.8 11.1-8.2 14.2-1.5 3.1-3 5.7-3.3 5.7-.4 0-3.4-.9-6.7-1.9-3.3-1-8.6-2.2-11.7-2.6l-5.7-.7.2-16.2c.2-17.9-.9-23.6-6.5-33.4-6.9-12.1-21.1-15.1-36-7.6C15.9 21.1 12.1 27 14 35.5c1.3 5.9 1.9 7 8.9 16.5 5.4 7.3 9.1 14.4 10.5 20.2.6 2.5.2 2.9-4.4 4.9-6.1 2.6-13.1 9.9-15.5 16.2-3.1 8.2-1 20.1 4.6 26.2 1.8 2 1.8 2.2-.9 7.5-7.1 14.3.2 33.5 14.6 38.6 4.9 1.8 5 1.9 5.7 6.7 1.3 9.9 6.6 16.3 15.5 18.7 9.8 2.6 28.1-1.1 41.6-8.5l6.2-3.3 4.8 7.1c15.7 23.1 41.7 40.1 70.9 46.4 11.3 2.4 34.1 2.4 45.5-.1 29-6.2 55.1-23.5 70.9-46.9 1.8-2.6 3.4-4.7 3.6-4.7.2 0 1.9.9 3.8 2 7.6 4.5 19.9 8.2 29.2 8.7 11.1.7 16.3-.6 21.6-5.4 3.9-3.5 6.9-10.5 6.9-16 0-1.4.7-2.6 1.8-2.9 13-4 20.4-14 20.6-27.9.1-5.7-.4-7.9-2.5-12l-2.6-5 2.9-4.5c5.3-8.3 6.2-16.3 2.7-25.4-2.4-6.5-9.5-13.5-15.8-15.6-3-.9-4-1.8-3.7-2.9.3-.9.8-3 1.2-4.6 1.1-4.6 3.9-9.7 9.4-17 6.1-8.1 7.6-11 9-17 1.9-8.5-2.9-15-15.5-20.7-3.9-1.7-6.8-2.3-13.2-2.3-7.4 0-8.5.2-12.4 3-11.5 8.1-15.6 22.9-14 50.4.4 7-.3 8-5.4 8.1-1.6.1-6 .9-9.7 1.9l-6.8 1.7-2.9-6.1C280.6 27.6 230.5 1.8 180.8 9.6zm36.8 3.9c22.1 3.9 40.5 13.1 56.8 28.6 9.3 8.7 15.2 16.4 21.3 27.7 4.4 7.8 5.1 10.2 3.3 10.2-2.2 0-9.1 5.4-11.1 8.7-1.8 2.8-2.1 4.6-1.7 10.7.3 6 .8 8.1 3.2 11.6l2.9 4.3-1.7 5.2c-1.8 5.8-2.1 15-.6 19 .9 2.3.5 3-3.5 6.9-4 3.8-4.5 4.7-4.5 8.7 0 5.9 2.6 12.8 7.1 18.8l3.7 4.8-6.2 8.4c-17.3 23.3-43.7 38.7-73 42.8-39.8 5.6-81.9-12.7-104.4-45.2l-5.2-7.5 4.1-7c6.8-11.7 6.4-21.5-1.1-25.9-2.4-1.4-2.9-2.2-2.4-3.8 1.5-4.3 1.5-14.3 0-19.9-1.4-5.7-1.4-5.9 1-9.7 5.8-9.3 5.2-20.2-1.5-26.1-2.1-1.8-4.6-3.8-5.6-4.3-1.6-1-1.6-1.4 1-6.5 13.7-27.5 38.1-48.4 66.2-57 16.7-5 35.5-6.3 51.9-3.5zM54.2 18.6c8.9 6.2 12.3 18.2 11.2 39.8l-.7 13.3-9.6.6c-5.3.4-11.7.9-14.3 1.3l-4.8.7v-3.4c0-4-7.5-18.5-14.2-27.7-5.7-7.6-6.5-10.9-4.2-15.7 5.3-11.2 26.1-16.3 36.6-8.9zm311.3-.2c7.3 3.3 11.2 6.9 12.4 11.3 1 3.7-.3 9.3-2.2 9.3-.6 0-.8.3-.4.6.3.3-1.8 3.8-4.8 7.8-6 7.9-11 17.9-12 23.5l-.6 3.8-5.2-.9c-2.9-.5-9.2-.9-14.2-.9h-9l.1-16.7c0-17.6 1.2-24.2 5.3-30.8 2.3-3.7 7.8-8.2 11.8-9.4 4.7-1.5 12.4-.5 18.8 2.4zM82.8 78.5c11.1 2.3 16.6 5.7 20.3 12.6 1.7 3.2 1.6 11.8-.2 15.4-2.2 4.7-13.8 9.9-28.4 12.9-11.8 2.3-11.9 2.4-7.3 3.1 2.7.4 9.2.2 15-.6 13.3-1.6 15.8-1.6 17.4.6 3.3 4.5 2.5 15.3-1.4 18.8-3.2 2.8-10.7 6.5-18.2 8.8-7.3 2.3-7.4 2.4-3.6 2.7 5.5.5 16.8-1.6 21.3-3.9 4.6-2.3 6.2-2.4 9.2-.3 2.2 1.6 2.3 2.2 1.8 8-.8 10.9-7.1 18.8-19.9 25.1-10.1 5-16.9 6.6-26.7 6.1-10.2-.5-13.4-1.9-17.8-7.6-2.6-3.5-3.3-5.3-3.3-9-.1-4.6-.2-4.7-4.8-6.9-6-2.8-13.4-10.2-16.1-15.9-2.7-5.6-2.7-12.7-.1-20.5l2.1-6.1-2-4.1C14 104.9 15.6 92.9 24.6 85c4.4-3.8 8.6-5.7 16.9-7.6 7.5-1.7 30.8-1.1 41.3 1.1zm276.5 1c8.4 2.9 12.9 6.2 16.4 12.2 3.8 6.5 3.7 15.1-.1 24.5l-2.7 6.6 2.1 6.1c1.1 3.3 2 8.2 2 10.9 0 9.4-7.8 20-18.6 25.2-4.2 2.1-4.4 2.4-4.4 6.4 0 5.6-4.9 13.2-9.9 15.4-4.7 2-19 2.1-25.6.3-7.5-2.1-20-8.8-24-13-6.1-6.2-9.7-16.2-8.1-22.4.9-3.9 5.8-5.1 10.3-2.7 5.8 3.1 23.7 5.8 24.9 3.8.3-.4-.4-.8-1.5-.8-5.3 0-23.8-9-22.6-11 .3-.4-.2-1-1-1.4-.8-.3-1.5-1.4-1.5-2.4s-.5-2.3-1-2.8c-1.3-1.3.4-10 2.4-12.6 1.1-1.6 1.9-1.6 9.2-.3 9.2 1.7 25 2 25.9.5.4-.6-.8-1-2.8-1-5.9 0-22.6-4.8-29.1-8.3-7-3.9-9.1-7-9-13.8.1-6.3 4.4-13 10.4-16.3 12.1-6.5 43.5-8.2 58.3-3.1z"/><path d="M170.5 23.4c-6.3 1.9-8.1 3.2-11.4 8.2-2.3 3.5-3.1 5.9-3.1 9.1 0 2.4.2 4.3.4 4.3.3 0 2.4-1.3 4.8-2.9 2.4-1.6 6.9-3.8 10.1-4.9 3.1-1 6-2.2 6.4-2.5.7-.7-1.7-11.6-2.6-12.1-.3-.2-2.4.2-4.6.8zM223.5 29c-1.4 2.7-2.5 5.4-2.5 5.9s1.7 1.5 3.8 2.2c4.1 1.3 10.6 5.1 13.9 8.1 2.1 2 2.1 2 2.7 0 1.2-3.8-1.9-12.3-5.8-15.5-2.8-2.4-7.9-5.7-8.8-5.7-.4 0-1.9 2.2-3.3 5zM163.5 45.4c-9.4 3-16.8 9.4-21.2 18.6-2.2 4.5-2.7 6.9-2.8 13.5 0 7.1.4 8.8 3.3 14.7 3.4 7 8.6 12.3 15.7 16.1 3.4 1.9 5.6 2.2 14.5 2.2 9.5 0 11-.3 15.6-2.7 2.8-1.5 7.2-5 9.8-7.9l4.6-5.1 3.8 3.4c8.2 7.4 19.5 10 29.9 6.8 10.6-3.2 19-13.9 20-25.6 1.1-13.2-8.1-26.4-21.1-29.9-10.7-2.9-21.7-.1-29.1 7.5l-3.8 3.9-2.7-3.8c-7.5-10.3-24.1-15.6-36.5-11.7zm19.5 3.1c12.4 4.4 20.5 15.8 20.5 29-.1 22.7-24 37.6-44.3 27.5-17.1-8.6-22.5-29.5-11.6-45.2 7.4-10.6 23.2-15.6 35.4-11.3zm57.4 5.9c9.1 5.3 14.3 15.2 13.3 25.1-2.1 20.6-25.8 30.6-42.4 17.9-5.9-4.5-6.5-6.2-5.2-14 .9-5.6.8-8.1-.4-13.2l-1.4-6.2 3.9-4.5c5.3-6 12.1-8.6 21-8.1 4.9.2 7.8 1 11.2 3z"/><path d="M171.5 75.5c-3.5 3.4-3.3 7.8.4 11.6 4.8 4.8 11.1 3.6 13.7-2.6 1.6-3.8.6-7.9-2.4-10.1-2.9-2.3-9-1.7-11.7 1.1zm6.3-.6c.8.4 1.2 1.9 1 3.2-.4 2.9-4.5 3.4-6.1.7-1.9-3 1.9-6 5.1-3.9zm-.3 10.1c0 2.2-3.9 1.9-4.3-.3-.3-1.5.1-1.8 2-1.5 1.2.2 2.3 1 2.3 1.8zM215 72.7c-3.3 1.2-5 3.7-5 7.4 0 7.2 8.6 10.3 13.3 4.8 3-3.7 1.5-9.8-3-11.8-2.6-1.2-3-1.2-5.3-.4zm2.8 4.1c.4 2.8-2.4 4-4.5 1.9-1.4-1.3-1.4-1.9-.3-3.2 1.8-2.2 4.4-1.5 4.8 1.3zm-.8 7.3c0 2.3-2.8 2.6-3.7.3-.6-1.6 1.5-3.7 2.9-2.8.4.3.8 1.4.8 2.5zM274.7 104c-8.6 16.5-26.8 32.1-43.7 37.2-19.3 5.9-44.9 6.9-62.3 2.4-15.3-3.9-21-6.9-33-17.6-2.8-2.4-11.7-15-11.7-16.5 0-1.2 8.5.1 12 1.9 4.5 2.2 4.8 2 1.9-1-5.1-5.6-15.6-7.1-23.6-3.4-4.3 1.9-5.1 3.3-3.4 5.8.6 1 1.6.9 4.5-.9 2-1.2 3.8-2 4-1.8.2.2 1.6 2.6 3.1 5.2 1.5 2.7 4.9 7.1 7.6 9.8 4.2 4.3 4.8 5.5 5.5 10.6 1.3 10.8 10.4 28.1 20.1 38 18.7 19.2 48.4 24.3 75.8 13.1 8.3-3.4 20.8-11.7 17.7-11.8-.8 0-2.5.9-3.9 2s-3 2-3.4 2c-.5 0-.9-3.3-.9-7.4v-7.5l-3.2-.3c-1.8-.2-3.2-.6-3-1.1.1-.4.2-4.9.3-10v-9.2l8.1-3.9c4.5-2.2 8.8-4.8 9.7-5.8.8-1 2.1-1.8 2.7-1.8 3.3 0 19.6-21.6 21.6-28.6 1.4-5.3.4-5.1-2.5.6zm-131.2 32.5c1.7 1.2 4.5 2.8 6.3 3.5 1.7.7 3.2 1.4 3.2 1.6 0 1.4-5.4 13.4-6 13.4-.8 0-6.4-12-7.5-16-.4-1.4-.9-3.3-1.2-4.4-.6-2 0-1.8 5.2 1.9zm24 10 9 2.2.3 7.7.3 7.6h-12.4c-12.2 0-12.5-.1-14.1-2.5-1.5-2.3-1.5-2.9 1.6-10.5 2.5-6.1 3.7-7.9 4.8-7.4.8.4 5.6 1.7 10.5 2.9zm63.5 8v9.5h-21v-14.9l3.8-.6c2-.3 6.2-1.2 9.2-2 3-.7 6.1-1.3 6.8-1.4.9-.1 1.2 2.4 1.2 9.4zm-24 2.2v7.3h-27v-14.5h27v7.2zm-43 14.8v4.6l-3-2.3c-1.7-1.2-3.7-3.2-4.5-4.5-1.5-2.3-1.5-2.3 3-2.3h4.5v4.5zm24 6c0 5.8-.2 10.5-.3 10.5-1.6 0-12.9-4.5-16.4-6.5l-4.3-2.6V167h21v10.5zm26 .5v11l-5.7.1c-5.6.2-15.6-.1-15.9-.5-.1 0-.5-4.9-.9-10.9l-.7-10.7H214v11zm24-3.8v7.3l-4.3 1.7c-2.3.9-6.2 2.2-8.7 2.8-2.5.6-5.3 1.3-6.2 1.6-1.6.5-1.8-.4-1.8-10V167h21v7.2z"/>
    </symbol>

    <symbol id="oh-yeah-symbol" viewBox="0 0 800 800">
      <path d="M596 33.2c-1.9.5-5.3 1.4-7.5 2-8.3 2.2-11.2 3.4-19.4 7.6-8.7 4.6-25.2 16.3-30.6 21.8-11 11.3-22.1 26.3-31.7 43.2-7.6 13.4-12.9 24.6-21.9 46.7-.4 1.1-1.3 3.8-2 6s-1.7 4.4-2.1 4.9c-.4.6-.8 1.8-.8 2.8 0 1-.4 2.6-.9 3.6-.5.9-1.5 3.7-2.1 6.2-.7 2.5-1.9 6.4-2.6 8.7-1.5 4.8-6.5 25.3-9 36.8-2.6 12.1-5 26.9-6.4 38.5-.4 4.1-1.3 8.7-1.9 10.2-1.8 4.8-2.7 4.7-30.1-3.1-12.2-3.4-28.7-7.9-34.5-9.2-2.2-.6-5.7-1.4-7.7-1.9-7.4-1.9-12.4-3.1-16.3-4-2.2-.5-5.8-1.3-8-1.8-2.2-.6-8.3-1.9-13.5-3.1-5.2-1.1-12.6-2.7-16.5-3.6-22.2-5-48.8-8.5-64.5-8.5-17.8 0-29.5 2.4-43 8.8-8.6 4.1-10.6 5.6-21.1 16.1-12.2 12.2-16.7 18.9-20.7 30.8-3.1 8.8-5.2 19.9-5.2 26.6 0 7-1.2 9.7-4.5 9.7-1.3 0-2.7.4-3 1-.3.5-1.3 1-2.1 1-2.6 0-12.2 5.2-16.4 8.7-8.4 7.2-18 22.2-22 34.3-3 9.4-4.6 38.8-2.6 48 2.3 10.1 3.2 13.2 5 17.4 2.5 5.9 2.1 7.1-3.1 10.2-6.6 3.8-15.6 11.9-20.4 18.2C96.4 481.9 92 496.2 92 515.7c.1 9.7.7 13.9 4.6 32.3.3 1.4.9 3.4 1.4 4.5.4 1.1 1.3 3.6 2 5.5s1.7 4.5 2.2 5.7c1.3 2.6.5 6-5.3 23.3-5 15.1-5.8 18.9-6.5 31.2-.5 9.3-.3 11.1 2.1 18.6 6.6 20.8 22 42.8 42.8 61 21.2 18.4 29.5 24.4 47.7 33.9 10.4 5.4 29.5 13.3 32.2 13.3.9 0 1.9.4 2.2.9.3.5 1.8 1.1 3.3 1.4 1.6.2 6.2 1.4 10.3 2.4 17.3 4.6 19 4.8 42 4.8 21.2-.1 23.1-.2 32.1-2.7 5.2-1.5 12.2-3.9 15.4-5.3 5.8-2.7 6.1-2.7 14.9-1.6 5 .6 13.2 1.8 18.1 2.6 11.8 1.9 38.7 1.9 54-.1 10.7-1.3 14.2-1.9 24.8-4.1 1.5-.3 3-.9 3.3-1.4.3-.5 1.4-.9 2.4-.9 2.7 0 16.8-6.1 25-10.9 9.6-5.5 13.4-5.5 23.9-.1 4.3 2.2 8.1 4 8.5 4 .4 0 2.2.6 3.9 1.4 3.7 1.7 11.6 4.4 16.7 5.8 1.9.5 5.1 1.3 7 1.9 15.6 4.3 35.4 5 48.8 1.8 4.8-1.1 9.6-2.4 10.7-2.9 12.4-5.2 20.7-9.2 26.2-12.7 2.9-1.8 5.4-3.3 5.7-3.3.3 0 5.9-3.6 12.3-7.9 12.6-8.5 33.4-28 45-42.2 21-25.8 35.4-58.3 41.3-93.4.6-3.9 1.6-9.3 2.1-12 4.1-22.2 0-64.4-7.9-80-1.4-2.8-5.4-7.8-8.9-11.3-5.2-5.1-8.7-7.4-18.6-12.2-11.8-5.6-15.3-7.2-22.7-10.3-3.2-1.3-3.6-1.9-4.9-7.8-.7-3.5-1.7-8-2.2-9.9-.4-1.9-1.5-6.2-2.3-9.5-3.2-13.3-8.1-29.5-10.5-35-.5-1.1-1.6-3.6-2.4-5.5-3.4-8-6.4-14.3-13.6-29-4.2-8.5-8.7-18.9-10-23-1.3-4.1-2.8-8.7-3.3-10.1-1.5-4.2-1.4-23.7.1-29.9 5.8-23 18.1-48.3 36.7-75.5 6.1-9 27.4-43.3 27.4-44.1 0-.3 2-3.7 4.4-7.7 17-28.1 22.8-42.3 25.6-62.7 1.2-8.6.1-25.7-1.8-29.8-.5-.9-1.9-3.8-3.2-6.4-3.1-6.6-7.9-11.8-17.3-19.2-12.2-9.5-17.1-11.8-40.3-18.7-4-1.2-38.9-1-43.4.3zm43.3 9.3c12.6 3.2 24.6 9 33.8 16.3 13.5 10.7 18.1 19.2 18.7 34.7.8 20.9-5.9 39.4-27.8 77-3.1 5.4-12.2 19.8-18.9 30-16.1 24.6-30.2 48.9-37.8 65-7.8 16.6-9.8 26-9.8 46 .1 11.2.5 15.7 2.3 22.5 2.7 10.5 21.1 48.4 25 51.7 2.4 2 2.5 2.5 1.4 4.3-1.7 2.7-1.6 3 1.2 3 3.1 0 5.6 1 5.6 2.1 0 .5-.8.9-1.8.9s-2.1.3-2.4.6c-.6.5 2 8.9 4.7 14.9 3.6 8.3 4.6 12.6 5.6 25 3.2 38.4 2 60.1-4.4 79-5.9 17.8-20.2 43.9-33.8 62-10.5 14-13.9 19.8-10.5 17.8 3-1.7 11.4-9 17.5-15.3 17.2-17.7 30.6-40.5 39.6-67.5 2.5-7.5 3.5-17.1 3.5-32.7 0-8.5.2-15.7.5-16 .6-.6 7 1.4 8.1 2.5.4.4 1.4.7 2.3.7 2 0 16 7.1 21.4 10.9 6.3 4.3 15 14 17.7 19.6 3.3 6.8 4.1 12.1 4.7 33 .5 17.1-.3 30.2-2.7 43-8.1 42.9-15.8 65.4-29.7 87-14.7 22.7-35.4 43.4-59.8 59.6-5.7 3.8-10.7 6.9-11.1 6.9-.4 0-1.5.6-2.3 1.4-5 4.3-18.1 9.7-29.4 12.1-9.5 2.1-31.7 2-41.7-.1-16.7-3.4-41.3-13.9-44.7-19.1-1.8-2.7-.7-5.2 4.7-10.3 10.4-9.8 28.5-31.7 34.8-42.1 6.7-11-1.7-4.1-32.3 26.7-31.5 31.6-65.4 42.9-135.2 45-19.9.6-22.3.5-22.3-.9 0-.8 1.5-2.4 3.3-3.6 9.4-5.8 20-20.4 23.6-32.6 3.4-11 7.6-15.9 17.4-19.7 2.8-1.1 6-2.4 6.9-2.9 1-.5 2.5-.9 3.3-.9.8 0 2.3-.4 3.3-.9.9-.5 4.8-2.3 8.6-4.2 11.4-5.4 24.1-19.1 27-28.9 3.8-13 3.8-13.5 3.2-28.1-.4-9-.2-15.7.4-17.3 1.2-3.3 5.3-7.2 9.8-9.3 5.6-2.7 14.6-11.8 17.9-18 3.6-6.7 6.3-17 6.3-23.4 0-5.2-2.8-16.6-5.5-22.2-1-2.1-3.7-6-6.1-8.6-2.4-2.7-4.4-5.3-4.4-5.9 0-1 7.6-4.2 10-4.2 1.8 0 8 6 8 7.8 0 1.3 4.2 14.7 5.9 18.7 12.2 29 26 45.4 50.1 59.5 14.9 8.7 37 17.3 37 14.3 0-.8-1.6-1.6-10.5-5-8.5-3.3-12.7-5.4-16.8-8.6-2.4-1.7-8-5.8-12.5-9-12.7-9.1-21.6-18-28.7-28.6-6.5-9.8-15.7-28.1-16.9-33.6-.4-1.7-1.1-4.8-1.7-7-.5-2.2-1.2-6.5-1.5-9.5l-.6-5.5 7.5-4.8c8.7-5.5 14.3-11.6 18.6-20.1 13.4-26.8 4.6-59.1-20.5-75.2-3.1-2-7.9-4.2-10.6-5-10.1-2.6-13.3-7.2-11.8-17 1.7-10.2 3.2-16 8.4-31.4 1.9-5.7 3.2-10.7 3-11-.7-.6-4.9 4.4-6.7 8-.8 1.4-1.8 3.4-2.4 4.5-3.3 6.1-7.4 20.7-10 35.3-.3 1.8-1.4 3.7-2.5 4.3-1.1.6-6.1.9-11.1.8-9.6-.2-20 .8-22.8 2.2-1.9 1-3.9-.7-3.9-3.4 0-2.4-4.1-14.6-7.4-22-2.1-4.7-10.9-20.9-14.6-26.7-.5-.8-2.9-4.9-5.3-9.1-7.1-12.2-23.8-33.2-33.5-41.9-6.6-5.9-15.2-11.4-23.1-14.7-7.4-3-9.4-2.9-5.6.3 5.1 4.2 5.4 4.4 6.3 4.4 1.8 0 13.7 11.7 21.1 20.9 7.5 9.2 23.1 31.3 23.1 32.6 0 .4 1.3 2.5 2.8 4.8 1.6 2.3 4.6 7.3 6.7 11.2 2.1 3.8 4.6 8.1 5.5 9.5 3.2 4.5 13.7 25.6 14.3 28.6.3 1.6 1.3 6.5 2.2 10.9.8 4.4 2.2 11.3 3 15.3.8 4 1.5 9.4 1.6 12 .1 4.5.1 4.6 1.1 1.7 2.5-7.7 3-10.7 3.6-21l.7-11 8.8-.3c8-.3 42.8 3.1 44.9 4.4 1.3.8.9 2.4-.7 2.4-.8 0-1.5.3-1.5.7.1.8 7.2 5.6 12.3 8.1 4 2.1 12.7 12 14.9 17 1.1 2.4 2.8 9.6 3.9 16 2.3 13.4 1.8 18.4-2.7 27.4-4.9 9.6-19.4 22.2-32.2 27.9-15.2 6.8-17.4 7.4-32.4 9-15 1.6-27.8.5-58.7-5.1-3-.5-6.1-1.6-6.9-2.4-1.3-1.2-1.1-1.6 1.6-3 1.7-.9 4.3-1.6 5.7-1.6 2.8 0 11.8-4.5 17.2-8.6 3.5-2.6 8.9-9.2 8.1-9.9-.2-.2-3.1 1.4-6.3 3.6-16.2 11.1-29.3 14.1-44 10.4-12.4-3.2-23.5-10.3-43.5-27.5-23-19.9-29.2-26.9-56.5-63-14-18.6-19-24.7-25-31-2.8-3-5.7-6.4-6.2-7.5-.6-1.1-5.6-7.6-11.1-14.4-6.6-8.1-10.4-13.7-11.2-16.5-1.8-6.6-.7-26.7 2-33.1 5.5-13.3 10.9-21.7 19.4-29.9 11.7-11.3 20.7-16 39.6-20.7 7.1-1.7 38.9-1.8 48.5 0 7.1 1.2 11.6 2.1 21.8 4 13.2 2.5 17.4 3.4 20.2 4.1 1.7.4 5.7 1.3 9 2 5.9 1.3 49.7 12.2 56.5 14.1 1.9.6 5.1 1.4 7 1.9 1.9.4 6 1.5 9 2.3 6 1.7 12.8 3.6 23.6 6.5 3.9 1 9.1 3 11.5 4.3 4.2 2.4 4.4 2.7 4.1 6.4-.4 5.6-1.6 9-8.5 23.2-2.5 5.3-4 9.3-3.3 9.3 2.4 0 8.3-6 11.1-11.5 4.2-8.1 4.9-8.4 7.9-3.7 3.3 5.3 17.8 16.3 19.4 14.8.3-.3-1.9-3.2-4.9-6.3-7.5-7.9-11.4-13.8-13.8-21.1-2.3-6.8-2.5-9.8-1.2-16.9 1-5 2.4-13.1 4.1-23.6 3.7-21.6 8.2-43.7 12.1-59.2 2.1-8.2 13.9-43.5 16.5-49.1 1.4-3.3 3.2-7.4 4-9.2 3.8-8.8 5.2-11.7 11.5-24.4 9.8-19.8 19.2-33.1 32.1-45.4 7.9-7.6 12-10.7 23-17.2 20.4-12.1 48.5-16.4 70.1-10.7zM183.4 338.2c5.6 7.2 23.6 33 31 44.3 12.1 18.4 35.5 49.1 48.5 63.4 17.9 19.8 42.9 39.8 59.1 47.2 3.6 1.7 7.3 3.4 8.2 4 1 .5 2.5.9 3.3.9.8 0 2.3.4 3.3 1 3.3 1.9 31.8 10.8 39.7 12.4 4.4.9 10.5 2.2 13.5 2.8 3.3.7 15 1.2 29.7 1.2l24.2.1 3 2.9c6 5.7 10 21.4 8.7 33.9-1.4 13.6-12.4 28.1-26.6 34.9-19.7 9.5-60.8 15.5-88.5 13-7.2-.7-15.3-1.2-18.1-1.2-5.3 0-9.7-2.1-7.9-3.8.6-.5 3.3-1.5 6-2.2 6.9-1.9 11.2-4.4 16.8-9.8 4.9-4.7 9.1-11.4 8.5-13.4-.2-.6-3.7 1.9-7.8 5.6-11.7 10.5-19.1 13.6-32.7 13.6-24.2 0-47.7-10-75.6-32.4-10.6-8.5-12.5-10.5-23.2-24.1-4.3-5.5-9.5-11.8-11.4-14.1-2-2.2-4.9-5.8-6.6-7.9-1.6-2.2-4.8-6.2-7-9-6.7-8.5-16.4-21.6-27.7-38-21.5-30.9-25.9-69.3-11.3-98.6 4.9-9.9 15.9-22.4 22.3-25.5 4-1.9 11.6-4.2 14.4-4.3.9-.1 2.8 1.4 4.2 3.1zm-39.8 120.4c1.7 3.2 4.1 7.6 5.3 9.6 1.1 2.1 3 5.3 4 7.2 2 3.5 12.9 20.4 14.3 22.1.6.7 21.4 28.7 29 39 3.8 5.1 13.4 16 17.8 20.1 5.2 4.9 6.4 6.1 12.1 10.8 9.5 7.9 31.6 19.9 45.4 24.5 27.6 9.2 47.5 14.1 66.5 16.2 11.3 1.2 43.8.7 55-1 3.6-.5 10-1.4 14.2-2.1 6.7-1 8.1-1 11.3.5 4.4 2.2 6.3 5.7 7.1 13.2 1.3 12.2-5.1 28.2-15.5 39-8.9 9.3-30.1 19.2-50.1 23.5-17.7 3.7-48.4 6-65 4.8-6.9-.5-16-1-20.2-1-8.2 0-9.8-.8-7-3.3 2.6-2.3 9.1-5.7 10.8-5.7.9 0 4.7-3.2 8.6-7.2 8-8.3 13.8-19 13.8-25.7 0-5.8-2-5.3-6.6 1.8-7.1 10.7-19.3 22.3-27.3 25.8-6.6 2.8-15.4 4.2-27.2 4.3-11.4 0-11.9-.1-21.5-4.1-14.6-6.1-22.8-10.4-34.4-18.2-12-8.1-30.1-25.5-39.6-38.2-6-8-23.9-34.8-26.4-39.5-.7-1.4-3-4.8-5.1-7.5-9.5-12.7-16-53.5-11.4-71.2 2.1-8 7.8-19.7 12.8-26.1 5.5-7.2 21.8-18.7 25.2-17.9.6.2 2.4 3 4.1 6.3zm-25 125.6c6.6 13.5 7.1 14.5 13.7 25.7 8.5 14.3 25.3 34.3 37.5 44.5 5.2 4.3 21.9 14.7 30.2 18.8 18.2 8.9 39 15.6 58.5 18.8 3.9.6 9.5 1.6 12.5 2.2 12.6 2.4 56.1 1.7 74.5-1.2 12.4-2 12-2.1 11.7 2.8-1.1 18-28.2 41.9-53.2 47-3 .6-7.9 1.5-10.8 2.1-6.9 1.4-29.1 1.4-36.8.1-17.8-3.2-23.5-4.7-24.1-6.6-.2-.6 1.6-1.7 3.9-2.4 11.2-3.6 20.3-11.7 25.4-22.7 3.2-6.8 4-9.3 2.9-9.3-1.8 0-9.1 5.2-14.5 10.4-12.3 11.9-20 15.6-34.2 16.4-9.7.5-10.5.3-26.7-7.5-11.7-5.7-35.9-21.3-46.1-29.8-16.2-13.6-37.9-40.1-40.4-49.5-.4-1.4-1.1-3.4-1.5-4.5-3.1-7.7-4.2-28.4-2-36.9.6-2.2 1.5-5.9 2-8.1 3.1-12.2 7.6-23.5 9.6-23.5.7 0 4.2 5.8 7.9 13.2z"/>
    </symbol>

    <symbol id="unavailable-symbol" viewBox="0 0 980 980">
      <path d="M464 .7C392.4 5.6 335.5 20.5 275.5 50c-49.9 24.5-92.2 54.7-131.5 94-29.5 29.6-52.8 59.4-75.1 96.2-9.6 15.9-26.8 50.4-33.9 68.1C-.1 395.9-9 493.2 9.6 586c16.3 81.9 51.8 155.2 106.8 221 9.8 11.7 37 39.3 49.6 50.4 115.5 101.5 270.1 143.1 420 113 42.2-8.4 79.4-21.2 119.5-40.9 36.9-18.2 72.5-41.6 100.9-66.2 4.3-3.7 9.7-8.2 12-9.9 2.3-1.8 11.1-10.3 19.6-19.1 68.4-70.2 113.8-155.4 132.4-248.3 16.9-84 11.1-172.7-16.4-253.4-17.4-51.1-43.8-100.4-75.7-141.3-25.9-33.4-59.1-66.4-91.3-91C700.7 34.5 595.4-.7 487.5.2c-10.4.1-21 .3-23.5.5zm72.5 50.7c43.9 4.9 86.2 15.8 124.8 32.2C796.6 141.1 893.9 260.5 922.4 404c20.9 105.5 2.7 214.9-51.2 307-12.6 21.6-42.4 62.6-51.1 70.4l-2.2 2L507.5 473C336.7 302.2 197.1 162.1 197.3 161.5c.2-.5 4.7-4.7 10.1-9.2 27.8-23.3 54.7-40.9 88.1-57.6 50.9-25.3 103.9-39.9 163-44.7 15.5-1.2 61.4-.4 78 1.4zM473 507.6l310.5 310.5-4.8 4.4c-7.4 6.8-22.1 18.4-34.1 26.9-148.2 105.5-343.8 109-497 8.9-47.7-31.2-92.4-75.5-124.3-123.3-64.1-96.1-87.7-211.5-66.7-326 11.8-64.6 40.2-129 80.5-182.6 9.5-12.6 23.6-29.4 24.7-29.4.4 0 140.4 139.8 311.2 310.6z"/>
    </symbol>

  </defs>

  <g id="sad-face">
    <use xlink:href="#sad-face-symbol"/>
  </g>

  <g id="crying-face">
    <use xlink:href="#crying-face-symbol"/>
  </g>

  <g id="happy-face">
    <use xlink:href="#happy-face-symbol"/>
  </g>

  <g id="sleeping-face">
    <use xlink:href="#sleeping-face-symbol"/>
  </g>

  <g id="nothing-face">
    <use xlink:href="#nothing-face-symbol"/>
  </g>

  <g id="meh-face">
    <use xlink:href="#meh-face-symbol"/>
  </g>

  <g id="thumbs-up">
    <use xlink:href="#thumbs-up-symbol"/>
  </g>

  <g id="oh-yeah">
    <use xlink:href="#oh-yeah-symbol"/>
  </g>

  <g id="unavailable">
    <use xlink:href="#unavailable-symbol"/>
  </g>
</svg>