<?xml version="1.0" encoding="utf-8"?>
<!DOCTYPE svg PUBLIC "-//W3C//DTD SVG 1.1//EN" "http://www.w3.org/Graphics/SVG/1.1/DTD/svg11.dtd">
<svg version="1.1" xmlns="http://www.w3.org/2000/svg" xmlns:xlink="http://www.w3.org/1999/xlink">
  <defs>

    <style>
      g { display: none; }
      g:target { display: inline; }
    </style>

    <symbol id="double-chevron-left-symbol" viewBox="0 0 24 24">
      <path d="M11.707 16.293 7.414 12l4.293-4.293a.999.999 0 1 0-1.414-1.414l-5 5a.999.999 0 0 0 0 1.414l5 5a.999.999 0 1 0 1.414-1.414zm7 0L14.414 12l4.293-4.293a.999.999 0 1 0-1.414-1.414l-5 5a.999.999 0 0 0 0 1.414l5 5a.999.999 0 1 0 1.414-1.414z"/>
    </symbol>

    <symbol id="double-chevron-right-symbol" viewBox="0 0 24 24">
      <path d="m13.707 17.707 5-5a.999.999 0 0 0 0-1.414l-5-5a.999.999 0 1 0-1.414 1.414L16.586 12l-4.293 4.293a.999.999 0 1 0 1.414 1.414zm-7 0 5-5a.999.999 0 0 0 0-1.414l-5-5a.999.999 0 1 0-1.414 1.414L9.586 12l-4.293 4.293a.999.999 0 1 0 1.414 1.414z"/>
    </symbol>

    <symbol id="help-symbol" viewBox="0 0 24 28">
      <path d="M13.75 18.75v2.5c0 0.281-0.219 0.5-0.5 0.5h-2.5c-0.281 0-0.5-0.219-0.5-0.5v-2.5c0-0.281 0.219-0.5 0.5-0.5h2.5c0.281 0 0.5 0.219 0.5 0.5zM17.75 11c0 2.219-1.547 3.094-2.688 3.734-0.812 0.469-1.313 0.766-1.313 1.266v0.5c0 0.281-0.219 0.5-0.5 0.5h-2.5c-0.281 0-0.5-0.219-0.5-0.5v-1.062c0-1.922 1.375-2.531 2.484-3.031 0.938-0.438 1.516-0.734 1.516-1.437 0-0.906-1.141-1.578-2.172-1.578-0.547 0-1.125 0.172-1.484 0.422-0.344 0.234-0.672 0.578-1.25 1.297-0.094 0.125-0.234 0.187-0.391 0.187-0.109 0-0.219-0.031-0.297-0.094l-1.687-1.281c-0.203-0.156-0.25-0.453-0.109-0.672 1.281-2.016 3.078-3 5.453-3v0c2.562 0 5.437 2.031 5.437 4.75zM12 4c-5.516 0-10 4.484-10 10s4.484 10 10 10 10-4.484 10-10-4.484-10-10-10zM24 14c0 6.625-5.375 12-12 12s-12-5.375-12-12 5.375-12 12-12v0c6.625 0 12 5.375 12 12z" />
    </symbol>

    <symbol id="user-symbol">
      <svg xmlns="http://www.w3.org/2000/svg" viewBox="0 0 24 24">
        <path d="M12 14.016q2.531 0 5.273 1.102t2.742 2.883v2.016h-16.031v-2.016q0-1.781 2.742-2.883t5.273-1.102zM12 12q-1.641 0-2.813-1.172t-1.172-2.813 1.172-2.836 2.813-1.195 2.813 1.195 1.172 2.836-1.172 2.813-2.813 1.172z"/>
      </svg>
    </symbol>

    <symbol id="warning-symbol" viewBox="0 0 74.656 152.781">
      <path d="M134.861 24.712q-4.485.983-11.912 3.055t-14.937 4.892a76.133 76.133 0 0 0-13.191 6.323Q92.954 47.015 89.1 64.3t-7.874 36.615q-4.018 19.333-4.83 26.6l21.431-4.529q1.664-8.546 10.614-29.48t18.729-41.45q9.782-20.508 14.044-28.668-1.867.342-6.353 1.324Zm-29.893 128.174a11.45 11.45 0 0 0-4.383-9.25 17.752 17.752 0 0 0-10.919-3.866q-6.129 0-12.968 4.336t-9.477 13.181a19.736 19.736 0 0 0-.649 5.255 14.177 14.177 0 0 0 3.45 9.7q3.449 3.931 9.863 3.931 16.965-1.11 23.745-16.962a15.29 15.29 0 0 0 1.339-6.323Z" transform="translate(-66.563 -23.375)"/>
    </symbol>

    <symbol id="yes-symbol" viewBox="0 0 28 28">
      <path d="M26.109 8.844c0 0.391-0.156 0.781-0.438 1.062l-13.438 13.438c-0.281 0.281-0.672 0.438-1.062 0.438s-0.781-0.156-1.062-0.438l-7.781-7.781c-0.281-0.281-0.438-0.672-0.438-1.062s0.156-0.781 0.438-1.062l2.125-2.125c0.281-0.281 0.672-0.438 1.062-0.438s0.781 0.156 1.062 0.438l4.594 4.609 10.25-10.266c0.281-0.281 0.672-0.438 1.062-0.438s0.781 0.156 1.062 0.438l2.125 2.125c0.281 0.281 0.438 0.672 0.438 1.062z" />
    </symbol>

    <symbol id="no-symbol" viewBox="0 0 22 28">
      <path d="M20.281 20.656c0 0.391-0.156 0.781-0.438 1.062l-2.125 2.125c-0.281 0.281-0.672 0.438-1.062 0.438s-0.781-0.156-1.062-0.438l-4.594-4.594-4.594 4.594c-0.281 0.281-0.672 0.438-1.062 0.438s-0.781-0.156-1.062-0.438l-2.125-2.125c-0.281-0.281-0.438-0.672-0.438-1.062s0.156-0.781 0.438-1.062l4.594-4.594-4.594-4.594c-0.281-0.281-0.438-0.672-0.438-1.062s0.156-0.781 0.438-1.062l2.125-2.125c0.281-0.281 0.672-0.438 1.062-0.438s0.781 0.156 1.062 0.438l4.594 4.594 4.594-4.594c0.281-0.281 0.672-0.438 1.062-0.438s0.781 0.156 1.062 0.438l2.125 2.125c0.281 0.281 0.438 0.672 0.438 1.062s-0.156 0.781-0.438 1.062l-4.594 4.594 4.594 4.594c0.281 0.281 0.438 0.672 0.438 1.062z" />
    </symbol>

    <symbol id="play-symbol" viewBox="0 0 32 32">
      <path d="M6 0v32l20-15.977-20-16.023z" />
    </symbol>

  </defs>

  <g id="double-chevron-left">
    <use xlink:href="#double-chevron-left-symbol"/>
  </g>

  <g id="double-chevron-right">
    <use xlink:href="#double-chevron-right-symbol"/>
  </g>

  <g id="help">
    <use xlink:href="#help-symbol"/>
  </g>

  <g id="user">
    <use xlink:href="#user-symbol"/>
  </g>

  <g id="warning">
    <use xlink:href="#warning-symbol"/>
  </g>

  <g id="yes">
    <use xlink:href="#yes-symbol"/>
  </g>

  <g id="no">
    <use xlink:href="#no-symbol"/>
  </g>

  <g id="play">
    <use xlink:href="#play-symbol"/>
  </g>

</svg>