<?xml version="1.0" encoding="utf-8"?>
<!DOCTYPE svg PUBLIC "-//W3C//DTD SVG 1.1//EN" "http://www.w3.org/Graphics/SVG/1.1/DTD/svg11.dtd">
<svg version="1.1" xmlns="http://www.w3.org/2000/svg" xmlns:xlink="http://www.w3.org/1999/xlink">
  <defs>

    <style>
      g { display: none; }
      g:target { display: inline; }
    </style>

    <symbol id="facebook-symbol" viewBox="0 0 32 32">
      <path d="M19 6h5V0h-5c-3.86 0-7 3.14-7 7v3H8v6h4v16h6V16h5l1-6h-6V7c0-.542.458-1 1-1z"/>
    </symbol>

    <symbol id="twitter-symbol" viewBox="0 0 32 32">
      <path d="M32 7.075c-1.175.525-2.444.875-3.769 1.031 1.356-.813 2.394-2.1 2.887-3.631-1.269.75-2.675 1.3-4.169 1.594C25.749 4.794 24.043 4 22.155 4c-3.625 0-6.563 2.938-6.563 6.563 0 .512.056 1.012.169 1.494-5.456-.275-10.294-2.888-13.531-6.862-.563.969-.887 2.1-.887 3.3 0 2.275 1.156 4.287 2.919 5.463-1.075-.031-2.087-.331-2.975-.819v.081c0 3.181 2.263 5.838 5.269 6.437-.55.15-1.131.231-1.731.231-.425 0-.831-.044-1.237-.119.838 2.606 3.263 4.506 6.131 4.563-2.25 1.762-5.075 2.813-8.156 2.813-.531 0-1.05-.031-1.569-.094 2.913 1.869 6.362 2.95 10.069 2.95 12.075 0 18.681-10.006 18.681-18.681 0-.287-.006-.569-.019-.85 1.281-.919 2.394-2.075 3.275-3.394z"/>
    </symbol>

    <symbol id="reddit-symbol" viewBox="0 0 32 32">
      <path d="M8 20c0-1.105 0.895-2 2-2s2 0.895 2 2c0 1.105-0.895 2-2 2s-2-0.895-2-2zM20 20c0-1.105 0.895-2 2-2s2 0.895 2 2c0 1.105-0.895 2-2 2s-2-0.895-2-2zM20.097 24.274c0.515-0.406 1.262-0.317 1.668 0.198s0.317 1.262-0.198 1.668c-1.434 1.13-3.619 1.86-5.567 1.86s-4.133-0.73-5.567-1.86c-0.515-0.406-0.604-1.153-0.198-1.668s1.153-0.604 1.668-0.198c0.826 0.651 2.46 1.351 4.097 1.351s3.271-0.7 4.097-1.351zM32 16c0-2.209-1.791-4-4-4-1.504 0-2.812 0.83-3.495 2.057-2.056-1.125-4.561-1.851-7.29-2.019l2.387-5.36 4.569 1.319c0.411 1.167 1.522 2.004 2.83 2.004 1.657 0 3-1.343 3-3s-1.343-3-3-3c-1.142 0-2.136 0.639-2.642 1.579l-5.091-1.47c-0.57-0.164-1.173 0.116-1.414 0.658l-3.243 7.282c-2.661 0.187-5.102 0.907-7.114 2.007-0.683-1.227-1.993-2.056-3.496-2.056-2.209 0-4 1.791-4 4 0 1.635 0.981 3.039 2.387 3.659-0.252 0.751-0.387 1.535-0.387 2.341 0 5.523 6.268 10 14 10s14-4.477 14-10c0-0.806-0.134-1.589-0.387-2.34 1.405-0.62 2.387-2.025 2.387-3.66zM27 5.875c0.621 0 1.125 0.504 1.125 1.125s-0.504 1.125-1.125 1.125-1.125-0.504-1.125-1.125 0.504-1.125 1.125-1.125zM2 16c0-1.103 0.897-2 2-2 0.797 0 1.487 0.469 1.808 1.145-1.045 0.793-1.911 1.707-2.552 2.711-0.735-0.296-1.256-1.016-1.256-1.856zM16 29.625c-6.42 0-11.625-3.414-11.625-7.625s5.205-7.625 11.625-7.625c6.42 0 11.625 3.414 11.625 7.625s-5.205 7.625-11.625 7.625zM28.744 17.856c-0.641-1.003-1.507-1.918-2.552-2.711 0.321-0.676 1.011-1.145 1.808-1.145 1.103 0 2 0.897 2 2 0 0.84-0.52 1.56-1.256 1.856z"/>
    </symbol>

    <symbol id="pinterest-symbol" viewBox="0 0 32 32">
      <path d="M16 2.138c-7.656 0-13.863 6.206-13.863 13.863 0 5.875 3.656 10.887 8.813 12.906-0.119-1.094-0.231-2.781 0.050-3.975 0.25-1.081 1.625-6.887 1.625-6.887s-0.412-0.831-0.412-2.056c0-1.925 1.119-3.369 2.506-3.369 1.181 0 1.756 0.887 1.756 1.95 0 1.188-0.756 2.969-1.15 4.613-0.331 1.381 0.688 2.506 2.050 2.506 2.462 0 4.356-2.6 4.356-6.35 0-3.319-2.387-5.638-5.787-5.638-3.944 0-6.256 2.956-6.256 6.019 0 1.194 0.456 2.469 1.031 3.163 0.113 0.137 0.131 0.256 0.094 0.4-0.106 0.438-0.338 1.381-0.387 1.575-0.063 0.256-0.2 0.306-0.463 0.188-1.731-0.806-2.813-3.337-2.813-5.369 0-4.375 3.175-8.387 9.156-8.387 4.806 0 8.544 3.425 8.544 8.006 0 4.775-3.012 8.625-7.194 8.625-1.406 0-2.725-0.731-3.175-1.594 0 0-0.694 2.644-0.863 3.294-0.313 1.206-1.156 2.712-1.725 3.631 1.3 0.4 2.675 0.619 4.106 0.619 7.656 0 13.863-6.206 13.863-13.863 0-7.662-6.206-13.869-13.863-13.869z"/>
    </symbol>

    <symbol id="linkedin-symbol" viewBox="0 0 93.06 93.06">
      <path d="M11.185.08C5.004.08.001 5.092 0 11.259c0 6.173 5.003 11.184 11.186 11.184 6.166 0 11.176-5.011 11.176-11.184C22.362 5.091 17.351.08 11.185.08zM1.538 30.926h19.287V92.98H1.538zm68.387-1.543c-9.382 0-15.673 5.144-18.248 10.022h-.258v-8.479H32.92v62.053h19.27V62.281c0-8.093 1.541-15.932 11.575-15.932 9.89 0 10.022 9.256 10.022 16.451v30.178H93.06V58.942c0-16.707-3.605-29.559-23.135-29.559z"/>
    </symbol>

    <symbol id="tumblr-symbol" viewBox="0 0 94.955 94.954">
      <path d="M70.589 76.04c-1.395.306-16.695 6.845-16.695-9.084-.029-6.011-.006-12.022-.006-18.033V39.97H71.82V24.506H53.984V0H38.737s-.106 2.699-1.094 6.677c-2.577 9.132-9.575 17.751-17.683 20.061v13.438h10.732l-.008 28.769c0 35.523 40.497 25.674 44.309 21.64L70.589 76.04z"/>
    </symbol>

    <symbol id="patreon-symbol" viewBox="0 0 32 32" fill="none" fill-rule="evenodd">
      <path fill="#FFFFFF" d="M64.1102,0.1004 C44.259,0.1004 28.1086,16.2486 28.1086,36.0986 C28.1086,55.8884 44.259,71.989 64.1102,71.989 C83.9,71.989 100,55.8884 100,36.0986 C100,16.2486 83.9,0.1004 64.1102,0.1004"/><polygon fill="#F96854" points=".012 95.988 17.59 95.988 17.59 .1 .012 .1"/>
    </symbol>

    <symbol id="github-symbol" viewBox="0 0 32 32">
      <path d="M16 0.395c-8.836 0-16 7.163-16 16 0 7.069 4.585 13.067 10.942 15.182 0.8 0.148 1.094-0.347 1.094-0.77 0-0.381-0.015-1.642-0.022-2.979-4.452 0.968-5.391-1.888-5.391-1.888-0.728-1.849-1.776-2.341-1.776-2.341-1.452-0.993 0.11-0.973 0.11-0.973 1.606 0.113 2.452 1.649 2.452 1.649 1.427 2.446 3.743 1.739 4.656 1.33 0.143-1.034 0.558-1.74 1.016-2.14-3.554-0.404-7.29-1.777-7.29-7.907 0-1.747 0.625-3.174 1.649-4.295-0.166-0.403-0.714-2.030 0.155-4.234 0 0 1.344-0.43 4.401 1.64 1.276-0.355 2.645-0.532 4.005-0.539 1.359 0.006 2.729 0.184 4.008 0.539 3.054-2.070 4.395-1.64 4.395-1.64 0.871 2.204 0.323 3.831 0.157 4.234 1.026 1.12 1.647 2.548 1.647 4.295 0 6.145-3.743 7.498-7.306 7.895 0.574 0.497 1.085 1.47 1.085 2.963 0 2.141-0.019 3.864-0.019 4.391 0 0.426 0.288 0.925 1.099 0.768 6.354-2.118 10.933-8.113 10.933-15.18 0-8.837-7.164-16-16-16z"/>
    </symbol>

    <symbol id="hugo-symbol" viewBox="0 0 1500 410">
      <path fill="#FF4088" d="M335.1 261.86V139.606a44.842 44.842 0 0 0-22.126-38.66c-29.417-17.283-81.387-47.818-113.215-66.52a52.628 52.628 0 0 0-54.28.58c-28.17 17.37-72.12 44.47-100.49 61.967a57.93 57.93 0 0 0-27.53 49.31v125.172a56.106 56.106 0 0 0 27.79 48.437l104.72 61.212a45.598 45.598 0 0 0 45.2.47c30.58-17.036 84.74-47.196 115.94-64.575a46.708 46.708 0 0 0 23.97-40.8v-14.34z"/><path fill="#fff" d="M96.91 309.916v-207.22h43.354v75.48h71.916v-75.48h43.48v207.22h-43.48V219.31h-71.916v90.606H96.91z"/><path fill="#0594CB" d="M715.9 259.25V136.59a44.129 44.129 0 0 0-21.774-38.046L580.56 31.818a52.626 52.626 0 0 0-54.28.58l-96.142 59.286a67.073 67.073 0 0 0-31.87 57.095v120.06a56.1 56.1 0 0 0 27.792 48.43l104.718 61.21a45.623 45.623 0 0 0 45.204.47l115.945-64.58a46.715 46.715 0 0 0 23.973-40.8v-14.34z"/><path fill="#0083C0" d="M554.04 11.067h.278l.247.003h.027l.25.003h.027l.25.004h.02l.25.006h.03l.24.007h.03l.24.008h.03l.25.01h.03l.25.01h.03l.25.01.02.002.25.01.02.003.25.013h.03l.25.014.02.002.25.014h.02l.25.017.02.002.25.017h.03l.25.02h.02l.24.02.03.003.25.018.03.003.25.02.03.003.24.02h.02l.25.02h.03l.25.02h.03l.25.02h.03l.24.02h.02l.25.03h.03l.24.03h.03l.25.03h.03l.25.03h.03l.25.03h.03l.24.03h.02l.24.03h.03l.24.03h.03l.24.03h.03l.25.03h.02l.25.03h.03l.25.04h.03l.24.04h.02l.25.04h.03l.24.04h.03l.25.04h.03l.25.04h.03l.24.05h.02l.25.05h.03l.24.04h.03l.24.05.03.01.25.05.03.01.25.05.03.01.24.05h.02l.24.05h.02l.25.05h.03l.24.05h.03l.24.06h.03l.24.06.02.01.24.06.03.01.24.06h.03l.24.06.02.01.24.06.02.01.24.07h.03l.24.06.03.01.24.06h.03l.24.06h.02l.24.06.03.01.24.06.03.01.24.07.02.01.24.07h.03l.24.07.03.01.24.07.02.01.24.07.03.01.24.07.03.01.24.07.03.01.24.07.03.01.24.07.02.01.24.08.02.01.24.08h.03l.24.08.03.01.24.08.02.01.24.08.02.01.24.08.03.01.24.08.03.01.24.08.03.01.24.08.02.01.24.08.03.01.24.09.03.01.24.09.03.01.23.09.03.01.24.09.03.01.23.09.03.01.24.09.03.01.23.1.03.01.23.1.03.01.23.1.02.01.24.09.02.01.23.1.03.01.24.1.02.01.23.1.02.01.23.1.03.01.24.1.03.01.23.1.02.01.23.11.03.01.23.1.02.01.23.11.02.01.23.11.03.01.24.1.02.02.23.11.02.01.23.11.02.01.23.11.03.01.23.11.03.01.23.11.02.01.23.11.03.01.22.12.02.02.23.12.03.01.23.12.02.01.23.12.03.01.23.12.03.02.22.12.03.01.23.12.02.01.22.12.02.01.23.12.02.01.22.12.03.01.22.13.02.01.22.13.02.02.22.13.02.02.22.13.03.02.23.13 113.7 66.88.18.11.03.01.18.11.03.02.18.11.02.02.18.11.02.01.18.11.02.02.18.11.02.02.18.11.02.01.17.11.02.01.18.11.02.01.17.11.02.01.17.11.02.01.17.12.03.01.17.12.02.01.18.12.03.02.34.23.05.03.35.24.05.03.34.24.04.03.34.24.05.03.34.24.05.03.33.25.04.03.33.25.04.03.33.25.04.03.33.25.04.04.33.26.04.04.32.26.04.03.32.26.04.03.32.26.04.04.32.27.04.03.32.27.04.03.31.27.04.03.31.27.04.03.31.27.04.03.3.28.04.03.3.28.04.04.3.28.04.04.29.28.04.04.3.29.04.04.29.29.04.04.29.29.04.04.29.29.03.04.29.3.04.04.28.3.04.04.28.3.04.04.28.3.04.04.28.31.03.04.27.31.03.04.27.31.04.04.27.31.03.04.26.31.03.04.27.31.04.04.26.31.03.05.26.32.03.04.25.32.03.05.25.32.03.04.25.33.03.04.24.33.04.04.24.33.03.04.24.33.03.04.24.33.03.04.23.34.03.05.23.34.03.05.23.34.03.04.23.34.03.05.22.34.03.05.22.34.03.05.22.35.03.05.22.35.03.05.21.34.03.05.21.35.02.05.21.35.03.04.2.35.03.05.21.36.03.05.2.36.03.04.19.36.02.05.2.36.02.05.19.36.03.05.18.36.02.05.19.37.02.04.18.37.02.05.18.37.02.05.17.37.02.05.18.37.02.05.17.37.03.05.16.37.02.05.16.38.02.05.16.38.03.05.16.38.02.05.16.38.02.05.15.38.02.05.15.38.02.05.14.38.02.05.14.38.02.05.14.39.02.05.13.39.02.05.13.39.02.05.13.39.02.05.13.39.02.05.12.39.01.05.12.39.02.05.12.39.01.05.11.4.02.05.11.39.02.05.11.4.02.05.1.4.01.05.1.4.01.05.1.4.01.05.1.4.01.06.09.4.02.05.09.41.01.05.09.4.01.05.09.41.01.05.08.41.01.05.08.41.01.06.07.41v.06l.07.41.01.05.06.41.01.06.06.41.01.06.06.41.01.05.06.41.01.06.05.42.01.06.05.41v.06l.05.41.01.05.04.42.01.05.04.42v.06l.04.42.01.05.03.41.01.06.03.42v.06l.02.41v.04l.01.21v.02l.01.21v.03l.01.21v.03l.01.21v.03l.01.21v.03l.01.21v.27l.01.21v139.28l-.01.22v.02l-.01.22v.28l-.01.22v.03l-.01.23v.02l-.01.22v.03l-.01.22v.03l-.01.22-.01.03-.01.22v.03l-.01.23v.03l-.01.22v.03l-.02.22-.01.03-.02.23v.03l-.01.23v.03l-.02.23v.03l-.01.22v.03l-.02.23v.03l-.02.22-.01.03-.02.22v.03l-.02.23v.02l-.02.22-.01.03-.02.22-.01.03-.02.22v.03l-.03.23v.03l-.03.22v.03l-.03.22v.03l-.03.22-.01.03-.03.22-.01.03-.03.22-.01.03-.03.22v.03l-.03.22v.03l-.03.22v.02l-.03.22v.03l-.03.22v.03l-.03.22-.01.03-.03.22-.01.03-.04.22v.02l-.04.22v.03l-.03.22v.02l-.04.22-.01.03-.04.22v.03l-.04.22-.01.03-.04.21-.01.03-.05.22v.03l-.05.22-.01.02-.04.22-.01.03-.04.21-.01.03-.05.22-.01.02-.05.22v.03l-.05.22v.02l-.05.22-.01.03-.05.21-.01.02-.05.22-.01.03-.05.22-.01.03-.06.21-.01.03-.05.21-.01.02-.05.22v.03l-.06.22-.01.03-.05.21-.01.03-.06.21v.03l-.06.21-.01.03-.06.21v.03l-.06.21v.03l-.06.21-.01.03-.06.21-.01.03-.06.21-.01.02-.06.21-.01.03-.07.21-.01.03-.07.21-.01.03-.07.21-.01.03-.07.21-.01.02-.07.21-.01.03-.07.21-.01.03-.07.21-.01.02-.07.21-.01.02-.07.21-.01.03-.07.21-.01.03-.07.21-.01.03-.08.21-.01.03-.07.21-.01.03-.07.21-.01.02-.08.21-.01.02-.08.21-.01.03-.08.2-.01.03-.08.21-.01.02-.08.2-.01.03-.08.21-.01.03-.08.2-.01.03-.08.2-.01.03-.08.2-.01.03-.08.2-.01.03-.08.2-.01.03-.09.21-.01.03-.09.2-.01.03-.09.2-.01.02-.09.2-.01.03-.09.2-.01.03-.09.2-.01.02-.09.2-.01.02-.09.2-.02.03-.09.2-.01.02-.1.19-.01.03-.09.2-.02.02-.09.2-.01.02-.1.2-.01.02-.09.19-.01.02-.1.2-.02.03-.1.19-.01.03-.1.19-.01.02-.1.2-.01.02-.1.19-.01.02-.1.2-.01.03-.1.19-.02.03-.11.19-.01.02-.11.2-.01.02-.1.19-.01.03-.11.19-.01.02-.1.2-.01.02-.11.19-.01.03-.11.19-.02.03-.1.19-.02.03-.11.19-.02.02-.11.19-.01.02-.11.19-.02.02-.11.19-.02.02-.11.19-.01.03-.11.19-.01.02-.11.19-.01.02-.11.19-.01.03-.12.19-.02.02-.12.19-.02.02-.12.18-.02.03-.12.19-.02.03-.11.18-.01.02-.12.19-.01.02-.12.18-.02.02-.12.18-.01.03-.12.18-.01.03-.12.18-.01.02-.12.18-.01.02-.12.18-.01.02-.12.18-.01.03-.13.18-.02.02-.12.18-.02.02-.12.18-.02.03-.13.18-.02.02-.13.18-.01.02-.13.18-.02.02-.13.18-.01.02-.13.18-.01.02-.13.18-.02.02-.14.17-.02.02-.13.18-.02.02-.13.17-.02.02-.13.18-.02.02-.14.18-.02.02-.13.17-.02.02-.13.17-.02.02-.13.17-.02.02-.14.17-.02.02-.14.17-.01.02-.14.17-.02.02-.14.17-.02.02-.14.17-.02.02-.14.17-.01.02-.14.17-.02.02-.14.17-.01.02-.14.17-.01.02-.14.17-.02.02-.15.17-.02.02-.15.16-.01.02-.15.16-.02.02-.14.16-.02.02-.15.16-.02.02-.15.16-.02.02-.15.16-.02.02-.15.16-.02.02-.15.16-.02.02-.15.16-.02.02-.15.16-.02.02-.16.16-.02.02-.15.16-.02.02-.15.16-.01.02-.16.16-.02.02-.15.16-.02.02-.15.16-.02.02-.16.16-.02.02-.16.15-.02.02-.16.15-.02.02-.16.16-.02.02-.16.15-.02.02-.16.15-.02.02-.16.15-.02.02-.16.15-.02.02-.17.16-.02.02-.16.15-.02.02-.16.15-.02.02-.16.15-.02.02-.17.15-.02.02-.17.15-.02.02-.17.14-.02.02-.17.15-.02.01-.17.14-.02.02-.17.15-.02.02-.17.14-.02.02-.17.14-.02.02-.17.14-.02.02-.17.15-.02.01-.17.14-.02.02-.17.14-.02.02-.17.14-.02.02-.17.14-.02.02-.17.14-.02.01-.17.14-.02.02-.17.14-.02.02-.18.14-.03.02-.18.14-.03.02-.18.14-.02.02-.17.14-.03.01-.18.14-.02.01-.18.14-.03.02-.18.13-.02.02-.18.13-.02.01-.18.13-.02.01-.18.13-.03.01-.18.14-.03.01-.18.13-.03.01-.18.13-.02.02-.19.13-.02.01-.19.13-.03.02-.19.12-.02.02-.18.13-.02.02-.18.12-.02.02-.19.12-.02.02-.18.12-.02.01-.19.13-.03.02-.19.12-.02.01-.19.12-.02.01-.19.12-.03.01-.19.12-.02.01-.19.12-.03.02-.19.12-.02.02-.19.11-.02.02-.19.12-.02.01-.19.12-.02.01-.19.12-.02.01-.19.12-.03.02-.2.12-.02.01-.19.12-.02.01-.2.12-.02.02-.2.11-.03.01-.2.12-.02.01-.19.11-.02.01-115.97 64.59-.01.01-.18.1-.02.01-.19.1-.03.01-.19.1-.02.02-.19.11-.03.01-.19.11-.02.02-.19.1-.03.02-.19.1-.02.01-.2.1-.02.01-.19.1-.02.01-.19.09-.02.02-.2.09-.03.01-.19.1-.02.01-.2.1-.02.01-.19.09-.03.02-.2.09-.02.01-.19.09-.03.01-.2.09-.03.01-.19.09-.02.01-.2.09-.02.01-.2.09-.03.01-.2.09-.03.01-.19.09-.02.01-.19.09-.02.01-.2.09-.02.01-.19.08-.03.01-.2.09-.03.01-.2.09-.02.01-.2.08-.03.01-.2.08-.02.01-.2.08-.03.01-.2.08-.02.01-.2.08-.02.01-.2.08-.03.01-.2.07-.02.01-.19.08-.02.01-.2.08-.02.01-.2.07-.03.01-.2.07-.03.01-.2.08-.02.01-.2.07-.03.01-.2.08-.02.01-.2.07-.02.01-.2.07-.02.01-.2.07-.03.01-.2.06-.02.01-.2.07-.03.01-.2.07-.03.01-.2.07-.03.01-.2.07-.03.01-.21.06-.03.01-.21.07h-.02l-.21.06-.04.01-.4.12-.05.01-.41.12-.06.01-.4.11-.06.01-.41.11-.05.02-.41.11-.05.01-.41.1-.05.01-.41.1-.06.02-.41.1-.06.01-.41.1-.06.01-.41.09-.05.01-.41.09-.05.01-.41.09-.05.01-.42.08-.05.01-.41.07-.05.01-.42.08-.05.01-.42.07-.05.01-.42.07-.05.01-.41.06h-.06l-.41.06-.05.01-.41.06h-.05l-.41.06-.05.01-.42.05-.05.01-.42.05-.05.01-.42.05h-.05l-.42.04-.06.01-.42.04h-.05l-.42.04h-.05l-.42.03-.05.01-.42.02-.06.01-.42.02h-.06l-.42.02-.05.005-.42.02h.01l-.42.01h-.05l-.42.02-.42.004h-.06l-.42.01h-1l-.42-.01h-.06l-.42-.01h-.05l-.42-.013-.05-.01-.42-.01h-.05l-.42-.02h-.05l-.42-.02-.05-.01-.42-.03h-.05l-.42-.03h-.05l-.42-.03-.05-.01-.42-.04h-.05l-.42-.04-.05-.01-.42-.05-.05-.01-.42-.05-.05-.01-.41-.05h-.05l-.42-.05h-.05l-.42-.06-.05-.01-.42-.06-.05-.01-.41-.06-.05-.01-.41-.06-.05-.01-.42-.07-.05-.01-.42-.07-.05-.01-.41-.08-.05-.01-.41-.08-.05-.01-.41-.08-.06-.01-.41-.08-.05-.01-.41-.09-.05-.01-.42-.09-.05-.01-.41-.1-.05-.01-.41-.1-.06-.01-.41-.1-.06-.01-.41-.1-.05-.02-.41-.11-.05-.01-.41-.11-.05-.02-.41-.12-.05-.01-.4-.12-.06-.01-.4-.12-.05-.01-.4-.13-.05-.01-.39-.13-.03-.01-.21-.07-.02-.01-.2-.06-.02-.01-.2-.07-.02-.01-.2-.06-.03-.01-.2-.07-.02-.01-.2-.07-.03-.01-.2-.07-.03-.01-.2-.07-.03-.01-.2-.07-.03-.01-.2-.08-.03-.01-.2-.07-.02-.01-.2-.07-.03-.01-.2-.08-.02-.01-.2-.08-.03-.01-.2-.08-.03-.01-.2-.08-.02-.01-.2-.08-.03-.01-.2-.08-.03-.01-.2-.09-.03-.01-.2-.08-.03-.01-.2-.08-.02-.02-.2-.08-.03-.01-.19-.08-.03-.01-.19-.08-.02-.01-.19-.09-.03-.01-.2-.09-.03-.01-.2-.09-.03-.01-.19-.09-.026-.01-.2-.09-.02-.01-.19-.09-.02-.01-.2-.09-.03-.02-.19-.09-.03-.01-.2-.09-.02-.01-.19-.1-.03-.02-.19-.09-.02-.01-.2-.1-.02-.02-.19-.1-.03-.01-.19-.1-.03-.01-.19-.1-.03-.02-.19-.1-.02-.01-.19-.1-.02-.01-.19-.1-.02-.01-.19-.11-.03-.02-.19-.1-.02-.01-.19-.1-.03-.02-.19-.11-.03-.02-.19-.11-.02-.02-.19-.1-.03-.01-.19-.11-.02-.01-.19-.11-.02-.01-.19-.11-.03-.02-.18-.11-.01-.01-104.78-61.2-.02-.01-.22-.13-.03-.02-.23-.14-.02-.01-.22-.13-.02-.02-.22-.14-.02-.01-.22-.13-.02-.01-.23-.14-.02-.01-.22-.13-.02-.01-.22-.14-.02-.01-.22-.14-.02-.01-.22-.14-.02-.02-.22-.14-.02-.01-.22-.15-.02-.01-.21-.14-.02-.02-.22-.15-.03-.02-.21-.14-.02-.01-.22-.15-.02-.02-.22-.14-.02-.02-.21-.14-.02-.01-.22-.15-.02-.02-.21-.15-.02-.02-.21-.15-.02-.01-.21-.15-.03-.02-.21-.15-.02-.02-.21-.15-.03-.02-.21-.16-.02-.02-.21-.15-.02-.02-.21-.16-.02-.02-.21-.15-.02-.02-.2-.16-.02-.02-.21-.16-.02-.02-.21-.16-.02-.02-.21-.16-.02-.02-.2-.16-.03-.01-.2-.16-.03-.02-.2-.16-.02-.02-.2-.16-.02-.02-.2-.17-.02-.02-.2-.16-.02-.02-.2-.17-.02-.02-.2-.16-.02-.02-.2-.16-.02-.02-.197-.17-.02-.02-.2-.16-.02-.02-.2-.17-.02-.02-.2-.16-.02-.02-.2-.17-.02-.01-.19-.17-.02-.02-.19-.17-.02-.02-.2-.17-.02-.02-.19-.17-.02-.02-.19-.17-.02-.02-.19-.18-.02-.02-.19-.17-.02-.02-.19-.17-.02-.02-.19-.17-.02-.02-.19-.17-.02-.02-.18-.18-.02-.01-.19-.18-.02-.02-.18-.17-.02-.02-.18-.18-.02-.02-.18-.18-.02-.02-.18-.17-.02-.02-.18-.18-.02-.02-.18-.18-.02-.02-.18-.19-.02-.02-.17-.18-.01-.02-.18-.19-.02-.02-.18-.18-.02-.02-.17-.18-.02-.02-.18-.18-.02-.02-.17-.19-.02-.02-.18-.19-.02-.02-.17-.19-.02-.02-.17-.19-.02-.02-.17-.19-.02-.02-.17-.19-.02-.02-.17-.19-.02-.02-.17-.19-.02-.02-.17-.19-.02-.02-.16-.19-.02-.02-.17-.19-.02-.02-.17-.19-.02-.02-.16-.19-.02-.02-.16-.19-.02-.02-.16-.2-.02-.02-.17-.2-.02-.02-.17-.2-.01-.02-.16-.19-.02-.02-.16-.2-.01-.02-.16-.2-.01-.02-.16-.2-.02-.02-.16-.2-.02-.02-.16-.2-.01-.02-.15-.2-.01-.02-.16-.2-.02-.02-.15-.207-.02-.02-.15-.21-.01-.02-.15-.2-.02-.02-.15-.21-.02-.02-.15-.21-.02-.03-.15-.2-.01-.02-.15-.2-.02-.02-.15-.21-.01-.02-.15-.21-.02-.02-.145-.2-.01-.02-.15-.21-.02-.02-.15-.2-.01-.02-.15-.21-.02-.03-.14-.21-.01-.02-.14-.21-.02-.03-.14-.21-.017-.02-.14-.21-.01-.02-.14-.21-.02-.02-.14-.21-.01-.02-.14-.21-.01-.02-.14-.22-.01-.02-.14-.22-.01-.02-.13-.21-.01-.02-.13-.22-.01-.02-.13-.22-.01-.02-.13-.21-.01-.02-.13-.22-.01-.02-.13-.22-.02-.02-.12-.21-.02-.03-.13-.22-.01-.02-.13-.22-.01-.02-.13-.22-.01-.02-.13-.22-.01-.03-.13-.22-.02-.02-.12-.22-.01-.02-.12-.22-.01-.02-.13-.22-.01-.02-.12-.22-.01-.02-.12-.22-.01-.02-.12-.22-.01-.02-.12-.22-.01-.03-.12-.22-.01-.02-.12-.22-.02-.03-.11-.22-.01-.02-.11-.22-.01-.03-.12-.23-.01-.03-.11-.23-.01-.03-.11-.22-.01-.02-.11-.23-.01-.02-.11-.23-.01-.03-.11-.23-.01-.03-.11-.23-.01-.03-.11-.23-.01-.02-.1-.23-.01-.03-.11-.23-.01-.03-.11-.23-.02-.03-.1-.23-.01-.03-.1-.23-.01-.03-.1-.23-.01-.02-.1-.23-.01-.02-.1-.23-.01-.03-.1-.24-.01-.02-.1-.23-.01-.03-.09-.23-.01-.02-.1-.23-.01-.02-.1-.23-.01-.03-.1-.24-.01-.02-.09-.24-.01-.03-.09-.23-.01-.03-.09-.23-.01-.03-.09-.24-.01-.02-.09-.24-.01-.03-.09-.24-.01-.03-.09-.24-.01-.02-.09-.24-.01-.02-.09-.24-.01-.03-.08-.24-.01-.02-.08-.24-.01-.03-.09-.24-.01-.03-.08-.24-.01-.03-.08-.24-.01-.03-.08-.24-.01-.03-.08-.24-.01-.03-.08-.24-.01-.03-.08-.24v-.03l-.08-.25v-.03l-.08-.24-.01-.03-.08-.24-.01-.02-.08-.24-.01-.03-.07-.24-.01-.02-.07-.24-.01-.03-.07-.24-.01-.03-.07-.24-.01-.03-.07-.24-.01-.02-.07-.25-.01-.03-.06-.25-.01-.03-.06-.25-.01-.02-.07-.24-.01-.03-.06-.25v-.03l-.06-.25v-.03l-.06-.25-.01-.03-.06-.25-.01-.03-.06-.25-.01-.03-.06-.25-.01-.02-.06-.25v-.03l-.06-.25-.01-.03-.06-.25-.01-.03-.06-.25-.01-.03-.06-.25-.01-.02-.05-.25-.01-.03-.05-.25v-.03l-.05-.25-.01-.02-.05-.25-.01-.03-.05-.25-.05-.25-.01-.03-.05-.25-.01-.03-.05-.25v-.03l-.05-.26v-.03l-.04-.26-.01-.03-.04-.25v-.03l-.04-.25-.01-.03-.04-.25-.01-.02-.04-.25v-.03l-.04-.26v-.02l-.04-.25-.04-.25-.01-.03-.03-.25v-.03l-.04-.26-.01-.03-.04-.26-.03-.26-.01-.03-.03-.25v-.02l-.04-.25-.03-.25v-.03l-.03-.25v-.03l-.03-.25-.01-.02-.03-.25v-.03l-.03-.25v-.03l-.03-.26v-.03l-.02-.26V275l-.02-.26v-.02l-.03-.26-.01-.03-.02-.26-.01-.02-.01-.26v-.03l-.02-.26v-.03l-.02-.26v-.02l-.02-.26V273l-.02-.26v-.03l-.01-.26v-.03l-.02-.26v-.03l-.01-.26-.01-.26v-.023l-.01-.26-.01-.03v-.29l-.01-.26v-.02l-.01-.26v-.03l-.01-.26v-.03l-.01-.26V148.12l.01-.3v-.03l.01-.298v-.027l.01-.3v-.027l.01-.296v-.027l.01-.3v-.027l.01-.3v-.028l.01-.298v-.027l.01-.298v-.03l.01-.297v-.03l.02-.297v-.027l.01-.3v-.025l.01-.29v-.02l.01-.29v-.02l.01-.29v-.03l.02-.3v-.02l.02-.3v-.02l.02-.3v-.03l.02-.29v-.03l.03-.29.01-.03.02-.3v-.02l.03-.29v-.03l.03-.29V141l.03-.296v-.026l.03-.295v-.03l.04-.296v-.03l.04-.3v-.025l.03-.292.01-.03.03-.29.01-.023.04-.29v-.03l.04-.29.01-.027.04-.297.01-.027.04-.29v-.03l.04-.29v-.03l.04-.29v-.03l.04-.293v-.028l.05-.29v-.03l.05-.29.01-.02.05-.29.01-.03.05-.29v-.03l.05-.29v-.03l.05-.29v-.026l.05-.29.01-.03.05-.29v-.03l.05-.29.01-.03.05-.29.01-.03.05-.29.01-.03.05-.29V133l.05-.29.01-.02.06-.29v-.03l.06-.29.01-.03.06-.29.01-.03.06-.29v-.03l.06-.28.01-.03.06-.29.01-.03.07-.29v-.03l.07-.29v-.03l.07-.28.01-.03.07-.29.01-.02.07-.28v-.02l.07-.29.01-.03.07-.29.01-.03.07-.29v-.03l.07-.29.01-.03.08-.29v-.03l.08-.28.01-.02.08-.28.01-.03.08-.28v-.02l.08-.28.01-.03.08-.28.01-.03.08-.28.01-.02.08-.28.01-.03.08-.28.01-.02.09-.28.01-.03.08-.28v-.03l.09-.28.01-.02.09-.28v-.02l.09-.28.01-.02.09-.28.01-.02.09-.28.01-.03.09-.27.01-.02.09-.27.01-.02.1-.27.01-.03.1-.28.01-.03.1-.27.01-.03.1-.28.01-.02.1-.28.01-.03.1-.28.01-.03.1-.27.01-.02.1-.28.01-.02.1-.28.01-.02.11-.27.01-.03.11-.27.01-.03.11-.27.01-.03.11-.27.01-.03.11-.27.01-.03.11-.27.01-.02.11-.27.01-.03.11-.27.01-.03.12-.27.01-.02.11-.26.01-.02.12-.26.01-.03.11-.26.01-.03.12-.27.01-.02.12-.26.01-.03.12-.26.02-.02.12-.26.01-.02.12-.26.01-.03.12-.26.01-.02.12-.27.01-.02.13-.27.01-.02.13-.26.01-.03.12-.26.01-.02.12-.26.01-.03.13-.26.01-.02.13-.26.01-.02.13-.26.02-.02.14-.26.02-.02.13-.26.01-.02.14-.26.01-.03.13-.26.01-.02.13-.26.02-.03.13-.25.01-.02.13-.26.01-.03.14-.26.01-.03.14-.25.01-.02.14-.25.01-.03.15-.26.01-.02.14-.25.01-.02.15-.25.01-.03.15-.26.01-.02.15-.25.01-.03.15-.25.01-.02.15-.25.02-.02.15-.25.01-.02.15-.25.02-.03.15-.25.01-.02.15-.25.01-.02.15-.25.02-.02.15-.24.02-.02.16-.25.01-.02.15-.25.01-.02.16-.25.015-.02.15-.25.02-.02.16-.24.01-.02.16-.24.02-.02.16-.24.02-.02.16-.24.01-.02.16-.24.02-.02.16-.24.01-.02.16-.24.01-.02.16-.24.01-.02.17-.24.02-.02.16-.24.01-.02.17-.23.01-.02.17-.23.01-.02.17-.24.01-.02.17-.23.01-.02.17-.24.02-.02.17-.23.02-.02.17-.23.02-.02.18-.23.01-.02.17-.23.01-.02.17-.23.02-.02.18-.23.02-.02.17-.23.02-.02.18-.23.01-.02.18-.23.02-.02.18-.23.02-.02.19-.23.02-.02.18-.23.01-.02.18-.22.02-.02.18-.23.02-.02.18-.23.01-.02.19-.23.02-.02.18-.22.02-.02.19-.22.02-.02.19-.22.02-.02.19-.22.01-.02.19-.22.02-.02.19-.22.02-.02.19-.22.02-.02.19-.22.01-.02.19-.22.02-.02.19-.21.02-.02.2-.22.02-.02.19-.22.02-.02.2-.22.02-.02.2-.22.01-.02.21-.21.02-.02.2-.21.02-.02.2-.21.02-.02.2-.21.02-.02.21-.21.02-.02.21-.21.02-.02.21-.21.02-.02.21-.2.02-.02.2-.21.01-.02.21-.21.02-.02.21-.2.02-.02.21-.2.02-.02.21-.2.02-.02.21-.2.02-.02.22-.2.02-.02.21-.2.02-.02.21-.2.02-.02.22-.2.02-.02.22-.2.02-.02.22-.2.02-.02.22-.2.02-.02.22-.19.02-.02.22-.19.02-.02.22-.19.02-.02.22-.19.02-.02.22-.19.02-.02.23-.19.02-.02.22-.19.02-.02.22-.2.02-.02.23-.19.02-.02.23-.19.02-.01.23-.18.02-.02.23-.19.02-.02.23-.19.02-.02.23-.19.02-.02.23-.19.02-.02.23-.18.02-.01.23-.18.02-.02.24-.18.02-.02.237-.18.02-.02.24-.18.03-.02.24-.18.02-.02.24-.18.02-.02.24-.18.02-.02.24-.18.03-.01.24-.18.02-.01.24-.18.02-.02.24-.17.02-.02.25-.17.03-.01.24-.17.02-.02.24-.17.02-.01.24-.17.02-.02.24-.17.02-.02.24-.17.02-.01.25-.17.02-.01.24-.17.02-.01.24-.17.02-.01.25-.17.02-.02.25-.17.03-.01.25-.16.03-.02.25-.16.03-.01.25-.16.03-.01.25-.16.02-.02.26-.16.03-.01.25-.16.02-.02.25-.15.01-.01L519 20.82l.01-.01.22-.13.02-.02.22-.13.03-.01.22-.14.02-.01.23-.13.03-.01.22-.13.03-.02.22-.13.02-.02.23-.13.02-.01.22-.13.03-.02.22-.13.02-.01.23-.13.03-.01.22-.13.02-.02.224-.12.03-.01.22-.12.03-.01.23-.12.03-.02.23-.12.02-.01.23-.12.02-.01.23-.12.02-.02.23-.11.03-.02.23-.12.02-.01.23-.11.02-.02.22-.11.03-.02.23-.11.03-.01.23-.12.03-.01.23-.11.03-.01.23-.11.03-.01.23-.11.03-.01.23-.11.02-.01.23-.11.03-.01.23-.11.03-.01.23-.1.03-.01.23-.11.03-.01.23-.1.03-.01.23-.1.03-.01.23-.1.03-.01.23-.1.02-.01.23-.1.02-.01.24-.1.03-.01.23-.1.03-.01.23-.09.03-.01.24-.1.03-.01.23-.1.03-.01.24-.09.03-.01.24-.09.03-.01.23-.09.03-.01.24-.09.025-.01.23-.09.02-.01.24-.09.03-.01.24-.09.03-.01.24-.09h.03l.24-.08.03-.01.24-.08.03-.01.24-.08.02-.01.24-.08.03-.01.24-.08.03-.01.24-.08.02-.01.24-.08.03-.01.24-.07.02-.01.24-.08.02-.01.24-.07.03-.01.24-.07.03-.01.24-.08.03-.01.24-.07h.02l.24-.07.03-.01.24-.07h.03l.24-.07h.03l.24-.07.03-.01.24-.07.02-.01.24-.07.03-.01.24-.07.03-.01.24-.06.03-.01.24-.07.03-.01.24-.06.03-.01.24-.06h.03l.24-.06.03-.006.24-.06.03-.01.24-.06.03-.01.25-.06.02-.01.25-.06.03-.01.24-.055.03-.01.24-.06.03-.01.24-.05.03-.01.24-.05.02-.01.25-.05h.03l.25-.05h.03l.25-.05h.03l.24-.05.03-.01.24-.04.03-.01.25-.04.03-.01.24-.04h.02l.24-.05.03-.01.24-.04h.03l.25-.04.03-.01.24-.04.03-.01.25-.04.03-.01.25-.03h.03l.25-.03h.03l.24-.04h.03l.24-.03h.03l.25-.04h.03l.24-.03h.03l.24-.03h.03l.24-.03h.03l.24-.03h.03l.24-.03h.03l.25-.03h.03l.25-.03h.03l.24-.03h.03l.25-.02h.03l.25-.02h.03l.25-.02h.03l.25-.02h.03l.25-.02h.03l.25-.02h.03l.24-.02h.03l.25-.02h.03l.25-.02h.03l.25-.01h.03l.25-.01h.03l.25-.02h.03l.25-.01h.04l.25-.01h.03l.25-.01h.03l.25-.01h.03l.25-.01h2zm-.23 27h-.163l-.163.002h-1.162l-.164.01h-.163l-.166.01-.17.01-.17.01-.16.01-.17.01-.17.01-.17.01-.17.01-.17.01-.17.01-.17.01-.17.01-.16.01-.17.02-.17.02-.16.02-.16.01-.17.02-.16.02-.17.02-.17.02-.17.02-.16.02-.16.02-.17.02-.16.02-.17.03-.16.02-.16.03-.16.03-.16.02-.16.03-.16.03-.16.03-.16.03-.16.03-.16.03-.17.03-.16.03-.16.04-.16.03-.16.04-.16.03-.17.04-.16.04-.16.03-.16.04-.16.04-.16.04-.16.04-.16.04-.16.04-.16.04-.15.04-.16.04-.16.04-.16.05-.16.05-.16.05-.16.05-.16.05-.16.05-.15.05-.16.05-.15.05-.16.05-.16.05-.16.05-.16.05-.15.06-.15.06-.16.05-.16.05-.15.06-.16.06-.15.05-.16.06-.15.06-.15.06-.16.07-.15.06-.16.06-.15.06-.16.06-.16.07-.16.06-.15.07-.15.07-.15.07-.15.07-.15.07-.15.07-.15.07-.15.07-.15.07-.15.07-.15.08-.15.08-.15.07-.15.08-.15.08-.15.08-.15.08-.15.08-.15.08-.15.08-.15.08-.15.08-.15.08-.15.08-.15.08-.15.08-.15.08-.15.09-.15.08-.15.09-.14.09-.15.09-.16.1L437.07 103l-.19.12-.19.11-.18.12-.18.11-.18.12-.18.12-.18.12-.18.12-.18.12-.18.12-.18.12-.18.12-.18.13-.17.12-.18.13-.17.12-.17.13-.18.12-.17.12-.18.13-.18.13-.17.13-.17.13-.17.13-.17.13-.17.13-.17.13-.17.13-.17.13-.17.135-.16.136-.16.13-.17.13-.17.14-.17.13-.16.14-.16.14-.16.14-.16.14-.16.14-.16.14-.16.14-.16.15-.16.14-.16.14-.16.14-.15.15-.16.14-.16.14-.15.14-.16.15-.16.15-.16.14-.15.14-.15.15-.15.15-.15.15-.15.15-.15.15-.15.15-.15.15-.15.15-.15.15-.15.15-.14.16-.14.15-.15.16-.15.16-.14.16-.14.15-.14.16-.14.16-.14.16-.14.16-.14.16-.14.16-.14.16-.14.16-.13.16-.14.16-.13.17-.13.16-.13.16-.13.16-.14.17-.13.16-.13.16-.13.17-.13.17-.13.17-.13.17-.13.17-.13.16-.13.17-.12.17-.12.17-.13.17-.12.17-.12.18-.12.17-.12.17-.12.17-.12.17-.12.17-.12.18-.12.18-.12.18-.12.18-.12.18-.12.18-.11.18-.12.17-.12.18-.11.17-.11.18-.11.18-.11.18-.11.18-.11.18-.11.18-.11.18-.11.18-.11.18-.1.19-.11.18-.11.19-.1.19-.1.19-.11.18-.1.18-.1.19-.1.18-.1.18-.1.19-.1.19-.09.19-.1.19-.1.19-.09.19-.09.18-.09.19-.1.19-.09.19-.09.19-.09.19-.09.19-.09.19-.08.2-.09.19-.09.19-.08.19-.08.2-.08.2-.08.19-.08.2-.09.2-.08.19-.08.19-.08.2-.08.19-.08.2-.08.2-.08.2-.08.2-.07.2-.08.2-.07.2-.07.2-.07.2-.07.2-.07.2-.07.2-.07.2-.07.2-.07.2-.07.2-.07.2-.07.2-.06.2-.06.2-.068.21-.06.2-.06.2-.06.21-.06.2-.06.2-.06.2-.056.21-.06.21-.06.21-.05.2-.06.2-.056.21-.06.21-.05.21-.05.21-.05.2-.05.21-.05.21-.05.21-.05.21-.043.21-.04.21-.04.21-.04.21-.04.21-.04.21-.05.21-.04.21-.04.21-.04.21-.04.21-.03.21-.04.21-.04.21-.03.21-.04.21-.03.21-.04.21-.03.22-.03.22-.03.21-.03.21-.03.21-.03.21-.03.21-.03.21-.024.22-.02.21-.03.22-.02.21-.02.21-.02.22-.02.21-.02.22-.02.21-.02.22-.02.21-.02.21-.02.22-.02.22-.01.22-.01.21-.01.22-.01.22-.01.22-.01.22v.22l-.01.21-.01.21-.01.21v.22l-.006.22v121.27l.01.18v.35l.01.18v.35l.01.17.01.18.01.17.01.18.01.18.01.17.01.18.01.18.02.17.01.18.01.17.02.17.02.17.01.17.02.17.02.17.02.17.02.17.02.18.02.17.02.17.02.17.02.17.02.17.03.17.03.17.02.17.03.17.03.17.02.18.03.17.03.17.03.17.03.17.03.17.03.17.03.17.03.17.033.17.04.17.03.17.04.17.04.17.035.17.04.17.04.17.04.17.04.17.04.17.04.16.04.17.045.17.04.17.05.17.04.16.05.17.05.16.045.17.05.16.05.16.04.17.05.17.05.16.05.17.05.17.05.16.06.16.05.17.05.16.05.16.05.16.06.17.06.16.06.16.06.16.06.16.06.16.06.16.06.17.06.16.06.16.06.16.06.17.068.16.065.16.07.16.07.16.07.16.07.16.07.16.06.16.07.16.07.16.07.16.07.16.07.16.07.16.07.15.07.16.07.15.07.15.08.15.08.16.08.16.08.15.07.15.08.15.08.15.08.15.08.15.08.15.08.15.08.15.08.15.08.15.08.15.09.15.08.15.09.15.09.15.09.15.09.14.09.15.09.14.09.15.09.15.09.15.09.15.09.15.1.14.09.15.09.15.095.14.09.14.1.14.09.15.09.14.1.14.094.15.1.14.09.14.1.14.09.14.1.14.1.14.1.14.1.14.104.14.1.14.11.14.1.13.1.14.1.14.11.14.11.14.11.13.11.14.11.14.11.14.11.13.11.13.1.14.12.13.11.13.11.13.11.13.11.13.11.13.12.13.12.13.12.13.12.12.12.13.12.13.11.13.12.12.12.12.12.13.12.13.12.12.12.12.12.12.12.12.12.13.13.13.12.12.12.12.13.12.12.12.13.12.13.12.12.12.13.12.13.11.13.12.13.11.13.12.13.12.13.11.13.11.13.12.13.11.13.12.13.12.13.11.14.11.14.11.13.11.14.11.14.11.14.11.14.11.14.11.14.11.14.11.14.11.13.1.14.1.14.11.14.1.14.1.14.1.14.11.14.1.14.1.14.1.14.11.14.1.14.1.15.1.15.1.14.1.14.1.14.1.15.09.15.1.14.1.15.1.15.09.15.1.15.1.15.09.15.09.15.09.15.1.15.09.16.1 104.69 61.19.13.07.12.07.12.07.12.06.11.07.11.06.11.06.12.07.12.06.12.06.12.06.12.06.12.06.12.06.12.06.12.06.12.05.12.06.12.05.12.06.12.06.12.06.12.05.12.06.12.05.12.05.12.06.12.05.12.05.12.06.12.05.12.05.12.05.12.05.12.05.12.05.12.05.12.05.13.05.12.04.13.05.12.04.12.04.12.05.12.04.12.04.12.05.12.04.12.04.13.04.12.04.11.04.26.08.25.08.25.08.25.07.25.07.25.07.25.06.25.07.25.06.25.06.25.06.25.06.25.05.26.05.25.05.25.05.25.05.25.04.26.04.26.04.26.04.26.04.26.03.25.03.26.03.26.03.26.02.25.02.26.03.26.02.26.02.25.02.25.01.25.01.26.01.26.01.26.01h.78l.26-.01h.26l.26-.01.26-.01.25-.01.26-.02.26-.02.26-.02.26-.02.26-.02.26-.02.26-.03.25-.03.26-.03.25-.03.26-.03.26-.03.25-.04.26-.04.25-.04.25-.05.25-.05.25-.04.26-.05.25-.05.25-.05.26-.06.25-.06.26-.06.25-.06.25-.07.25-.07.25-.07.25-.07.25-.08.26-.08.11-.03.13-.04.12-.04.12-.04.12-.04.13-.04.12-.04.12-.04.12-.04.13-.05.12-.05.12-.04.13-.04.12-.04.12-.04.12-.04.12-.05.12-.05.12-.04.12-.05.12-.05.12-.05.12-.05.12-.05.13-.05.12-.05.12-.05.12-.06.12-.05.12-.05.12-.05.12-.05.12-.06.12-.06.12-.05.12-.05.12-.05.12-.05.12-.06.11-.06.12-.06.12-.06.12-.06.11-.06.12-.06.12-.06.12-.07.11-.06.12-.06.11-.07.12-.07.13-.07 115.92-64.56.14-.07.12-.07.12-.07.13-.07.12-.07.12-.08.12-.08.12-.07.12-.07.12-.07.12-.08.12-.07.12-.08.12-.07.12-.08.12-.08.11-.08.12-.08.12-.08.12-.08.12-.08.11-.08.11-.08.12-.08.12-.08.12-.08.11-.08.11-.08.11-.08.11-.08.11-.08.11-.08.11-.09.11-.08.11-.08.11-.08.11-.08.11-.09.11-.09.11-.09.11-.09.11-.08.11-.09.11-.09.1-.08.1-.09.1-.09.11-.09.1-.09.1-.09.1-.09.1-.09.1-.09.1-.09.1-.1.1-.09.1-.1.1-.09.1-.09.1-.09.1-.1.1-.1.1-.09.09-.09.1-.1.1-.1.1-.1.1-.1.09-.1.09-.1.09-.1.1-.1.09-.1.09-.1.09-.1.09-.1.09-.1.09-.1.09-.1.1-.1.09-.1.09-.1.09-.1.09-.1.09-.1.09-.1.09-.1.09-.1.09-.1.08-.11.09-.11.08-.1.09-.11.08-.11.08-.11.08-.11.08-.11.08-.11.08-.11.08-.11.08-.11.08-.11.08-.11.08-.11.08-.11.08-.12.08-.11.08-.11.08-.11.08-.11.08-.11.08-.12.08-.11.08-.11.08-.11.08-.11.07-.12.07-.11.07-.12.07-.11.07-.12.07-.12.08-.12.07-.12.07-.11.07-.12.07-.12.07-.12.07-.12.06-.12.07-.12.07-.12.07-.12.07-.12.07-.12.07-.12.07-.12.07-.12.06-.12.07-.12.07-.12.06-.12.06-.12.06-.12.06-.12.06-.12.06-.12.06-.13.06-.12.05-.13.06-.12.06-.13.05-.12.06-.12.05-.12.06-.12.06-.13.05-.12.06-.13.06-.13.05-.13.05-.13.05-.13.05-.13.05-.13.06-.13.05-.13.05-.12.05-.13.05-.13.05-.13.05-.13.05-.12.04-.13.05-.12.05-.13.05-.13.04-.13.04-.13.04-.13.05-.13.04-.13.05-.13.04-.12.04-.13.04-.13.04-.13.04-.13.04-.13.04-.14.04-.13.04-.13.03-.13.04-.13.03-.13.04-.13.03-.14.04-.13.03-.13.03-.13.03-.13.03-.13.03-.13.03-.14.03-.13.03-.13.03-.13.03-.13.03-.14.03-.14.03-.14.02-.14.03-.13.03-.13.03-.13.03-.14.02-.14.02-.14.02-.14.02-.14.02-.14.02-.14.02-.13.02-.14.02-.14.02-.14.02-.14.01-.13.01-.14.02-.14.02-.13.02-.14.01-.14.01-.14.01-.14.01-.14.02-.14.01-.14.01-.13.01-.14.01-.14.01-.14.01-.14.01-.14v-.14l.01-.14.01-.14.01-.14.01-.14v-.83l.01-.16V136.6l-.01-.14v-.507l-.01-.13-.01-.125-.01-.125v-.255l-.01-.128v-.252l-.01-.11-.02-.268-.02-.25-.02-.25-.03-.254-.02-.25-.03-.25-.03-.248-.03-.25-.03-.248-.03-.248-.04-.248-.04-.248-.04-.25-.04-.245-.04-.24-.05-.24-.04-.24-.05-.24-.05-.24-.05-.24-.06-.24-.06-.24-.06-.24-.06-.24-.06-.24-.06-.24-.07-.23-.07-.23-.07-.24-.07-.24-.08-.23-.07-.23-.08-.24-.08-.23-.08-.23-.08-.23-.09-.23-.09-.23-.09-.23-.09-.23-.09-.23-.09-.22-.1-.23-.1-.22-.1-.22-.1-.22-.11-.22-.1-.22-.11-.22-.11-.22-.11-.22-.11-.22-.12-.21-.12-.22-.11-.22-.12-.21-.12-.21-.12-.21-.13-.21-.12-.21-.13-.21-.13-.21-.13-.2-.14-.2-.14-.21-.13-.2-.13-.2-.14-.2-.14-.2-.15-.2-.14-.2-.15-.19-.15-.2-.15-.19-.15-.2-.16-.19-.16-.19-.15-.19-.16-.19-.16-.19-.16-.18-.17-.18-.17-.19-.17-.19-.17-.18-.17-.18-.17-.18-.18-.18-.18-.17-.17-.18-.18-.17-.18-.17-.18-.17-.18-.17-.18-.17-.19-.17-.18-.17-.18-.17-.19-.16-.19-.16-.19-.16-.19-.16-.2-.16-.19-.16-.19-.15-.2-.15-.2-.15-.2-.15-.2-.15-.21-.14-.21-.14-.2-.14-.21-.14-.22-.15-.1-.07-.1-.07-.11-.07-.11-.07-.1-.07-.11-.07-.11-.07-.11-.07-.11-.06-.11-.06-.11-.07-.1-.07-.11-.07-.13-.07-113.4-66.79-.16-.09-.15-.09-.15-.08-.15-.08-.14-.08-.14-.08-.15-.08-.15-.08-.15-.08-.15-.08-.15-.08-.15-.08-.15-.08-.15-.07-.15-.07-.15-.07-.15-.07-.15-.08-.15-.07-.15-.08-.15-.07-.15-.08-.15-.07-.15-.07-.15-.07-.15-.07-.15-.07-.15-.07-.16-.07-.15-.07-.15-.07-.16-.07-.15-.07-.15-.06-.15-.07-.15-.06-.15-.06-.15-.06-.15-.06-.15-.06-.15-.06-.15-.06-.15-.06-.16-.06-.16-.06-.15-.05-.16-.06-.15-.06-.16-.05-.16-.05-.16-.06-.16-.05-.15-.05-.15-.05-.16-.05-.15-.05-.16-.05-.16-.05-.16-.05-.16-.04-.16-.04-.16-.04-.16-.04-.16-.04-.16-.05-.16-.04-.16-.04-.16-.04-.16-.04-.16-.03-.16-.04-.16-.04-.16-.04-.16-.04-.16-.04-.16-.03-.16-.04-.16-.04-.17-.03-.16-.03-.16-.03-.16-.03-.16-.03-.16-.03-.16-.03-.16-.03-.16-.03-.17-.03-.17-.03-.16-.03-.16-.02-.16-.02-.16-.03-.16-.02-.16-.03-.17-.02-.16-.02-.16-.02-.16-.02-.16-.02-.16-.01-.17-.02-.16-.02-.17-.01-.16-.02-.17-.01-.16-.01-.16-.01-.17-.01-.16-.02-.16-.01-.16-.01-.16-.01-.17-.01-.16-.01h-.16l-.17-.01h-.4l-.16-.01-.16-.01-.17-.01h-.65z"/><path fill="#fff" d="M477.32 109.382h42.288V221.55c0 17.8.488 29.335 1.468 34.61 1.69 8.476 4.814 14.367 11.177 19.5 6.364 5.13 13.795 6.586 24.832 6.586 11.214 0 14.968-1.736 20.664-6.587 5.69-4.86 9.12-9.47 10.28-16.54 1.15-7.07 3.07-18.79 3.07-35.18V109.38h42.28v108.78c0 24.862-1.07 42.425-3.21 52.69-2.14 10.267-6.08 18.932-11.82 25.995-5.74 7.064-13.42 12.69-23.03 16.88-9.62 4.192-22.16 6.287-37.65 6.287-18.69 0-32.87-2.284-42.52-6.85-9.66-4.568-17.29-10.502-22.9-17.8-5.61-7.3-9.3-14.952-11.08-22.957-2.58-11.865-3.88-29.383-3.88-52.552v-110.47z"/><path fill="#33BA91" d="M1099.375 259.25V136.945a44.13 44.13 0 0 0-22.232-38.313c-29.61-16.92-81.932-46.823-113.668-64.96a52.622 52.622 0 0 0-53.18.56c-26.532 15.913-67.455 40.46-95.98 57.567a67.08 67.08 0 0 0-32.573 57.52v119.53a56.1 56.1 0 0 0 27.793 48.43l104.718 61.21a45.623 45.623 0 0 0 45.204.47l115.943-64.58c14.8-8.25 23.98-23.85 23.98-40.79v-14.35z"/><path fill="#00A88A" d="M937.492 13.234h.272l.242.003h.027l.243.004h.027l.244.01h.027l.243.01h.027l.244.01h.028l.242.01h.028l.242.01h.028l.244.01h.027l.243.01h.027l.243.01.028.01.243.01.03.01.25.02h.03l.25.02h.03l.25.02.03.01.24.02h.03l.24.02h.03l.24.02.03.01.24.01.03.01.24.02h.03l.24.02h.03l.24.02h.03l.24.02h.03l.24.02.03.01.25.02.03.01.24.03h.03l.24.02.03.01.24.03h.03l.24.03h.03l.25.03h.03l.24.03.03.01.24.03h.03l.24.03h.03l.24.03.03.01.24.04.03.01.24.04.03.01.24.04.03.01.24.04h.03l.24.04.03.01.24.04.03.01.24.04.03.01.24.04.03.01.24.04.03.01.24.05h.03l.24.05.03.01.24.04h.03l.24.04.03.01.24.04.03.01.24.05.03.01.24.05h.02l.24.05h.03l.24.05.03.01.24.05.03.01.24.05.03.01.24.05.03.01.24.05h.02l.24.06.03.01.24.06.03.01.24.06.03.01.24.06h.02l.24.06.03.01.24.06.03.01.24.07h.03l.24.06h.03l.24.07.02.01.24.06.03.01.24.07h.03l.24.07.03.01.24.07.03.01.24.07.03.01.24.07h.03l.24.08.03.01.24.07.03.01.23.08.03.01.24.07h.03l.24.07.03.01.24.08.03.01.24.08.02.01.24.08.03.01.23.08.03.01.23.08.03.01.23.08.03.01.23.08.03.01.23.08.03.01.23.09.03.01.23.08.03.01.23.09.03.01.23.09.02.01.23.09.03.01.23.09.03.01.23.09.03.01.23.09.03.01.23.09.03.01.23.09.02.01.23.1.02.01.23.09.03.01.23.1.03.01.23.1.03.01.23.1.02.01.23.1.03.01.23.1.03.01.23.1.02.02.23.1.03.01.22.1.03.01.23.11.03.01.22.11.03.01.22.11.03.01.23.11.02.01.23.11.02.01.22.11.03.01.22.11.03.01.22.11.03.01.22.12.03.01.23.11.03.02.22.11.02.01.22.12.03.02.22.12.02.01.22.12.02.01.22.12.02.01.22.12.03.02.22.12.03.02.22.12.02.02.22.12.02.02.22.13.03.01.22.13 113.6 64.9.19.11.03.01.19.11.03.01.18.11.03.02.18.11.02.02.19.11.03.01.19.11.03.01.18.11.03.02.18.11.02.01.18.11.02.01.18.12.02.01.19.11.03.02.18.11.03.02.17.11.02.01.18.11.03.01.18.11.02.02.18.11.03.02.18.12.02.01.18.12.03.01.18.12.02.01.18.12.02.01.17.12.03.01.17.12.02.02.17.12.03.02.17.12.02.01.17.12.02.01.17.12.03.02.17.13.03.02.17.12.03.02.17.13.02.01.17.13.02.02.18.13.02.01.17.13.02.02.17.13.02.02.17.13.02.01.17.13.02.02.17.13.02.02.16.13.02.02.17.13.02.01.16.14.02.02.17.14.02.02.17.13.02.02.16.13.02.02.16.14.02.01.17.14.03.02.32.26.04.04.32.28.04.04.31.27.04.04.31.28.05.04.31.28.04.04.31.29.05.04.3.29.04.04.3.29.04.04.3.29.04.04.3.29.04.04.3.3.04.04.29.3.04.04.29.3.04.04.29.3.04.04.28.31.04.04.28.3.04.04.28.31.03.04.28.31.04.05.27.31.04.04.27.32.04.05.27.32.04.04.26.32.04.04.26.32.03.04.26.32.03.04.26.33.04.04.26.33.03.04.25.33.03.05.25.33.03.05.25.34.03.05.24.34.03.04.24.34.03.04.23.34.03.05.24.34.03.04.23.34.03.05.23.35.03.05.23.35.03.05.22.35.03.04.22.35.03.05.22.36.03.05.22.35.03.04.21.36.03.05.21.35.03.04.2.36.03.05.21.36.03.05.2.36.02.04.2.36.03.05.19.36.02.05.19.37.03.05.19.37.03.05.19.37.02.05.18.37.03.05.18.37.03.05.18.37.02.05.17.37.03.05.17.37.02.06.17.38.02.05.16.38.02.06.16.38.02.05.16.38.02.05.15.39.02.05.15.39.02.05.15.39.02.05.15.39.02.05.14.39.02.05.14.39.02.06.14.39.02.05.13.39.02.05.13.39.02.05.12.4.02.05.12.39.02.05.12.4.02.05.12.4.02.05.12.4.01.06.11.4.01.05.11.4.02.05.11.41.01.06.1.41.01.05.1.41.01.06.09.41.01.05.09.41.01.06.09.41.01.05.08.41.02.06.08.41.01.06.07.4.01.04.04.22v.03l.04.21.01.03.03.21.01.03.03.21.01.02.03.21.01.02.03.21.01.03.04.21.01.03.03.21.01.02.03.21v.03l.03.21.01.03.02.21.01.02.03.2v.03l.03.21v.03l.03.21v.02l.02.21v.03l.03.21.01.03.02.21v.03l.03.2v.02l.02.21.01.03.02.21v.03l.02.21v.03l.02.21v.02l.02.21.01.03.02.21.01.02.02.21.01.04.02.21v.03l.01.21.01.03.01.21v.02l.01.21v.03l.01.22v.03l.01.21.01.03.01.21v.02l.01.21v.03l.01.22v.03l.01.21v.03l.01.22v.03l.01.21v.27l.01.21v.26l.01.21v138.4l-.01.22v.54l-.01.23v.03l-.01.22v.03l-.01.23v.03l-.01.22v.03l-.01.22v.03l-.01.23-.01.03-.01.22v.02l-.02.23v.02l-.02.23v.03l-.02.23v.03l-.02.23v.03l-.01.23v.03l-.02.22v.03l-.02.22v.03l-.02.22v.03l-.02.22-.01.03-.02.23-.01.03-.02.22v.03l-.02.22-.01.03-.03.22v.03l-.02.22-.01.03-.03.22v.03l-.03.22v.03l-.03.23v.03l-.03.22v.03l-.03.22v.03l-.03.22-.01.04-.03.22v.02l-.03.22-.01.04-.03.23-.01.03-.03.22-.01.02-.03.22-.01.03-.04.22v.03l-.04.22-.01.03-.04.22v.02l-.04.22v.02l-.04.22-.01.03-.04.22v.03l-.04.22v.03l-.04.22v.03l-.04.22-.01.03-.04.22-.01.02-.05.22-.01.03-.04.22-.01.02-.05.21v.03l-.05.22-.01.03-.05.22v.03l-.05.22v.02l-.05.21-.01.02-.05.21-.01.02-.05.22v.03l-.06.22-.01.03-.05.21v.03l-.06.22-.01.03-.05.21-.01.02-.06.21v.03l-.06.22v.03l-.06.21-.01.02-.06.21v.03l-.06.21-.01.03-.06.22-.01.03-.06.21-.01.03-.06.21-.01.02-.06.21-.01.03-.06.21-.01.02-.06.21-.01.03-.06.21-.01.03-.06.2v.02l-.07.21-.01.03-.07.21-.01.03-.07.21-.01.03-.07.21-.01.03-.08.21-.01.02-.07.21-.01.03-.07.2-.01.02-.07.21-.01.03-.07.21-.01.02-.07.21-.01.03-.08.21-.02.02-.08.21-.01.03-.08.21-.01.03-.08.2-.01.02-.08.2-.01.02-.08.2-.01.03-.08.2-.01.02-.08.2-.01.03-.08.21-.01.03-.08.2-.01.03-.08.21-.01.03-.09.2-.01.02-.09.21-.01.03-.09.2-.01.03-.09.2-.02.02-.08.2-.01.02-.09.2-.01.03-.09.2-.01.03-.09.2-.02.03-.09.2-.01.02-.09.2-.01.03-.09.2-.02.03-.1.2-.01.02-.1.19-.01.03-.1.2-.01.03-.1.2-.01.03-.1.19-.01.02-.1.2-.01.02-.1.2-.01.03-.1.19-.01.02-.1.19-.02.02-.11.19-.01.02-.1.2-.01.02-.11.19-.01.02-.1.2-.01.02-.11.2-.01.03-.11.2-.01.02-.11.19-.01.02-.11.19-.01.02-.11.19-.01.02-.11.19-.02.02-.11.19-.01.03-.11.19-.02.02-.11.19-.01.03-.11.19-.01.02-.11.19-.01.02-.11.19-.01.02-.12.19-.01.02-.12.18-.01.02-.12.19-.02.02-.11.19-.02.03-.12.18-.01.02-.12.19-.02.03-.12.19-.01.02-.12.18-.02.03-.12.19-.01.03-.12.18-.01.02-.12.18-.01.02-.12.18-.02.03-.12.18-.02.02-.12.18-.01.02-.13.18-.01.02-.12.18-.02.02-.13.18-.02.02-.13.18-.02.03-.13.18-.02.02-.12.18-.02.03-.13.17-.02.02-.13.18-.01.02-.13.18-.02.02-.13.18-.02.02-.13.18-.01.02-.13.17-.02.02-.13.17-.01.02-.13.18-.02.03-.14.17-.01.02-.14.17-.02.02-.14.17-.02.03-.14.17-.02.02-.13.17-.02.02-.14.17-.02.03-.14.17-.02.02-.14.17-.02.02-.15.17-.02.02-.14.17-.02.02-.14.17-.02.02-.14.17-.02.02-.15.17-.02.03-.14.17-.01.02-.14.16-.02.02-.15.16-.02.02-.14.16-.02.02-.15.16-.02.02-.15.16-.02.02-.15.16-.02.03-.15.16-.02.02-.15.16-.02.02-.15.16-.02.02-.15.16-.02.02-.16.16-.01.02-.15.16-.02.02-.16.16-.02.03-.16.16-.02.02-.15.16-.02.02-.16.16-.02.02-.16.16-.02.02-.16.15-.02.02-.16.16-.02.02-.16.16-.02.02-.16.15-.02.02-.16.15-.03.02-.16.15-.02.02-.16.15-.02.02-.16.15-.02.02-.16.15-.02.02-.17.15-.02.02-.16.15-.02.02-.17.14-.02.02-.17.15-.02.02-.17.15-.02.01-.17.14-.02.02-.17.15-.02.02-.17.15-.02.01-.17.14-.02.02-.17.15-.02.01-.17.14-.02.01-.17.14-.02.02-.17.14-.02.01-.17.14-.02.02-.17.14-.02.02-.18.14-.02.02-.17.14-.02.02-.18.14-.02.02-.17.14-.02.02-.18.14-.02.02-.18.13-.02.02-.18.14-.02.02-.18.13-.02.01-.18.13-.02.02-.18.14-.02.02-.18.13-.02.01-.18.13-.02.02-.18.13-.02.01-.18.13-.02.01-.19.13-.02.02-.18.13-.02.01-.18.13-.02.01-.18.13-.02.02-.19.12-.03.02-.18.13-.02.02-.19.13-.03.02-.19.13-.02.02-.19.13-.02.02-.18.12-.02.01-.19.12-.02.02-.19.12-.03.02-.19.12-.02.01-.19.12-.02.02-.19.12-.02.01-.19.12-.02.02-.19.12-.02.01-.19.12-.02.02-.19.12-.03.01-.2.11-.03.02-.19.12-.03.02-.2.11-.02.02-.2.11-.03.01-.2.12-.03.02-.19.11-.02.02-.2.12-.03.02-.19.11-.01.01-115.96 64.58-.01.01-.18.1-.03.01-.19.11-.03.01-.19.11-.03.01-.19.1-.02.02-.19.11-.02.01-.19.1-.03.01-.19.1-.03.01-.19.1-.02.01-.19.1-.03.01-.19.1-.03.02-.19.1-.02.01-.19.1-.03.01-.2.1-.03.01-.2.09-.02.02-.19.09-.03.01-.2.09-.03.01-.19.09-.02.01-.19.09-.03.01-.2.09-.03.01-.19.09-.03.01-.19.09-.03.01-.2.08-.03.01-.19.09-.02.01-.19.09-.03.01-.2.09-.03.01-.19.09-.03.01-.2.08-.02.01-.2.09-.03.01-.19.08-.03.01-.2.08-.03.02-.2.08-.02.01-.2.08-.03.01-.2.08-.02.01-.2.08-.02.01-.2.08-.03.01-.2.08-.02.01-.2.08-.03.01-.2.08-.03.01-.2.07-.03.01-.2.07-.03.01-.2.07-.03.01-.2.07-.02.01-.2.07-.03.01-.2.07-.03.01-.2.07-.02.01-.2.07-.03.01-.2.07-.03.01-.2.06-.03.01-.21.06h-.02l-.2.06-.03.01-.21.07h-.1l-.21.06-.04.01-.4.12-.05.02-.41.12-.05.01-.41.12-.05.02-.41.11-.05.01-.41.11-.06.01-.41.1-.05.01-.41.1-.053.01-.41.09-.06.01-.41.09-.05.01-.41.09-.06.01-.412.09-.06.01-.41.09-.05.01-.41.08-.05.02-.42.08-.05.01-.41.07-.05.01-.42.07-.05.01-.42.06-.05.01-.42.06h-.05l-.42.06-.06.01-.41.06h-.05l-.42.06-.06.01-.42.05-.05.01-.42.05-.06.01-.42.04h-.05l-.42.04h-.05l-.42.04-.06.01-.42.03-.05.01-.42.03h-.06l-.42.02h-.05l-.42.03-.05.01-.42.02-.05.01-.42.02h-.06l-.42.02h-.05l-.42.01h-.05l-.42.01h-.05l-.42.01h-1l-.42-.01h-.06l-.41-.01h-.1l-.42-.01h-.06l-.42-.01h-.1l-.42-.02h-.05l-.42-.02h-.05l-.42-.02h-.06l-.42-.03-.06-.01-.42-.03h-.05l-.42-.03h-.05l-.42-.04-.05-.01-.41-.04-.052-.01-.42-.04h-.05l-.42-.05h-.06l-.42-.05h-.05l-.42-.06-.06-.01-.42-.06-.05-.01-.42-.07-.06-.01-.42-.07-.06-.01-.42-.07-.05-.01-.41-.08-.06-.01-.42-.08-.05-.01-.42-.08-.05-.01-.42-.09-.06-.01-.41-.09-.06-.01-.42-.09-.05-.01-.41-.09-.05-.01-.41-.1-.05-.01-.41-.1-.05-.02-.41-.1-.05-.01-.41-.11-.05-.01-.41-.11-.05-.01-.41-.12-.05-.01-.41-.12-.05-.02-.4-.12-.05-.01-.4-.13-.05-.01-.41-.13-.05-.02-.4-.13-.04-.01-.21-.07-.03-.01-.2-.07-.03-.01-.2-.07-.03-.01-.2-.07-.03-.01-.2-.07-.02-.01-.2-.07-.03-.01-.2-.07-.02-.01-.2-.07-.02-.01-.2-.07-.02-.01-.2-.07-.02-.01-.2-.08-.03-.01-.2-.07-.03-.01-.2-.08-.02-.01-.2-.08-.03-.01-.2-.08-.02-.01-.2-.08-.02-.01-.2-.08-.02-.01-.2-.08-.02-.01-.2-.08-.03-.01-.2-.08-.02-.01-.19-.09-.03-.01-.2-.09-.03-.02-.19-.08-.02-.01-.19-.08-.02-.01-.2-.09-.03-.01-.19-.09-.03-.01-.19-.09-.02-.01-.2-.09-.03-.01-.19-.09-.03-.01-.19-.09-.03-.01-.19-.09-.03-.01-.2-.09-.03-.01-.2-.1-.03-.01-.2-.09-.03-.01-.19-.1-.03-.01-.19-.09-.02-.01-.19-.1-.03-.01-.19-.1-.03-.01-.19-.1-.02-.01-.19-.1-.03-.01-.19-.1-.03-.01-.19-.1-.02-.01-.19-.1-.02-.02-.19-.1-.02-.01-.19-.1-.03-.01-.19-.11-.02-.01-.19-.1-.02-.02-.19-.11-.02-.01-.19-.11-.03-.01-.19-.11-.02-.02-.19-.11-.02-.01-.18-.1-.01-.01-105-61.25-.01-.01-.22-.13-.02-.01-.22-.13-.03-.01-.22-.14-.02-.01-.23-.14-.03-.01-.22-.13-.02-.01-.22-.14-.03-.02-.22-.14-.02-.01-.22-.14-.02-.02-.22-.14-.03-.02-.22-.14-.03-.01-.22-.14-.02-.02-.22-.14-.03-.02-.22-.15-.02-.02-.22-.15-.02-.02-.22-.14-.02-.01-.21-.15-.02-.02-.21-.15-.02-.02-.21-.15-.02-.02-.22-.15-.02-.01-.21-.15-.02-.02-.21-.15-.02-.01-.21-.15-.02-.02-.21-.15-.02-.01-.21-.15-.02-.01-.21-.15-.02-.02-.21-.16-.02-.02-.21-.15-.02-.02-.21-.16-.02-.02-.2-.16-.02-.02-.2-.16-.02-.02-.2-.15-.02-.02-.21-.16-.03-.02-.2-.16-.02-.01-.21-.16-.02-.02-.2-.16-.02-.02-.2-.16-.02-.02-.2-.16-.03-.02-.2-.16-.02-.02-.2-.17-.02-.02-.2-.17-.02-.02-.2-.16-.02-.02-.2-.17-.02-.02-.2-.17-.02-.02-.19-.17-.02-.01-.2-.17-.02-.02-.19-.17-.02-.02-.2-.17-.02-.02-.19-.17-.02-.02-.19-.17-.02-.02-.2-.17-.02-.02-.19-.17-.02-.02-.19-.17-.02-.02-.19-.17-.02-.02-.18-.18-.02-.02-.18-.18-.02-.02-.19-.18-.02-.02-.19-.17-.02-.02-.19-.17-.02-.02-.19-.18-.02-.02-.18-.17-.02-.02-.18-.18-.01-.01-.18-.18-.02-.02-.18-.18-.02-.02-.18-.18-.02-.02-.18-.18-.02-.02-.18-.18-.02-.02-.17-.18-.02-.02-.18-.19-.02-.02-.18-.18-.02-.02-.18-.18-.02-.02-.17-.19-.02-.02-.18-.18-.02-.02-.17-.19-.02-.02-.17-.19-.02-.02-.17-.19-.02-.02-.17-.19-.02-.02-.17-.19-.02-.02-.17-.19-.02-.02-.17-.19-.02-.02-.16-.19-.01-.02-.17-.2-.02-.02-.17-.19-.02-.02-.16-.19-.01-.02-.17-.19-.01-.02-.16-.19-.02-.02-.16-.2-.02-.02-.16-.2-.02-.02-.16-.2-.01-.02-.16-.19-.02-.03-.16-.19-.02-.02-.16-.2-.02-.02-.15-.2-.02-.02-.16-.2-.02-.02-.15-.2-.02-.02-.16-.21-.02-.02-.15-.2-.02-.02-.15-.2-.02-.02-.15-.21-.02-.02-.15-.2-.02-.02-.15-.203-.02-.03-.15-.21-.01-.02-.15-.2-.02-.02-.14-.21-.02-.02-.14-.21-.02-.02-.15-.204-.01-.02-.15-.2-.02-.03-.15-.21-.01-.02-.14-.21-.02-.02-.14-.21-.01-.03-.14-.21-.02-.02-.14-.21-.02-.02-.14-.21-.02-.02-.14-.21-.02-.02-.14-.21-.01-.02-.14-.21-.01-.02-.14-.21-.02-.03-.14-.22-.01-.02-.14-.22-.01-.02-.13-.21-.01-.02-.13-.22-.01-.02-.13-.22-.02-.03-.13-.21-.01-.02-.13-.22-.02-.03-.13-.21-.01-.02-.12-.21-.02-.02-.13-.22-.02-.02-.13-.22-.01-.03-.13-.22-.01-.03-.12-.22-.01-.02-.12-.22-.01-.02-.13-.22-.01-.02-.12-.22-.01-.02-.13-.22-.02-.03-.12-.22-.01-.02-.12-.22-.015-.02-.12-.22-.01-.02-.11-.23-.01-.02-.12-.22-.01-.02-.12-.22-.01-.03-.12-.23-.01-.02-.11-.22-.01-.03-.12-.22-.01-.02-.11-.22-.01-.025-.11-.23-.01-.02-.11-.23-.01-.02-.11-.23-.01-.03-.11-.23-.01-.02-.11-.23-.01-.03-.11-.23-.02-.03-.11-.23-.01-.03-.1-.23-.02-.03-.1-.23-.01-.03-.1-.23-.01-.03-.1-.23-.01-.03-.1-.23-.01-.03-.1-.23-.01-.03-.1-.23-.01-.02-.1-.23-.01-.02-.1-.24-.01-.02-.09-.23-.01-.03-.1-.24-.01-.02-.1-.24-.01-.03-.1-.24-.01-.03-.09-.24-.01-.02-.09-.23-.01-.03-.09-.24-.01-.03-.09-.23-.01-.02-.09-.24-.01-.025-.09-.24-.01-.03-.09-.24-.01-.03-.09-.23-.01-.03-.09-.24-.01-.02-.09-.24-.01-.02-.09-.24v-.02l-.09-.24-.01-.03-.09-.24-.01-.02-.08-.24-.01-.02-.08-.24-.01-.02-.08-.24-.01-.03-.08-.24-.01-.02-.07-.24-.01-.03-.07-.24-.01-.03-.08-.24-.01-.03-.07-.24-.01-.03-.07-.24-.01-.03-.08-.25v-.03l-.07-.24-.01-.03-.07-.25-.01-.03-.07-.24-.01-.03-.07-.24-.01-.03-.07-.24v-.03l-.07-.25-.01-.03-.07-.25-.01-.03-.06-.24-.01-.02-.07-.25-.01-.03-.06-.25v-.02l-.06-.25-.01-.03-.06-.25v-.03l-.06-.25v-.02l-.06-.25-.01-.03-.06-.25v-.03l-.06-.25-.01-.02-.06-.25-.01-.03-.06-.25-.01-.03-.06-.25-.01-.02-.05-.25v-.1l-.05-.25v-.03l-.05-.25-.01-.03-.05-.25-.01-.02-.05-.25-.01-.03-.05-.25-.01-.03-.05-.25-.01-.03-.05-.25-.01-.03-.04-.25v-.03l-.04-.25-.01-.03-.04-.25v-.03l-.04-.26-.01-.02-.04-.26-.01-.03-.04-.26v-.03l-.04-.25-.01-.03-.03-.25-.005-.02-.04-.26-.01-.03-.03-.26v-.03l-.03-.26V278l-.03-.26-.01-.03-.03-.25v-.03l-.03-.26v-.03l-.03-.25v-.02l-.03-.26-.01-.03-.02-.26-.01-.03-.028-.26-.01-.03-.02-.26-.01-.03-.02-.26-.01-.03-.02-.26v-.03l-.02-.25v-.03l-.02-.26v-.03l-.02-.26v-.03l-.02-.26v.02l-.02-.26v-.03l-.01-.26v-.03l-.02-.26v-.03l-.01-.26v-.03l-.01-.26v-.03l-.02-.26v-.03l-.01-.26v-.1l-.01-.26v-.02l-.01-.26v-.03l-.01-.26v-.1l-.01-.26v-.025l-.01-.26v-.03l-.01-.26v-.03l-.01-.26V148.61l.01-.31v-.35l.01-.3v-.36l.01-.3.01-.3v-.03l.01-.3v-.03l.02-.3v-.023l.01-.31v-.03l.02-.31v-.03l.01-.3V145l.02-.3v-.03l.02-.3v-.03l.02-.3v-.03l.02-.3v-.03l.02-.3v-.03l.02-.3v-.03l.03-.3.01-.03.02-.3v-.03l.03-.3.01-.026.03-.3v-.028l.023-.3v-.02l.03-.3v-.03l.03-.3v-.03l.03-.3v-.02l.04-.3v-.03l.04-.3v-.03l.04-.3v-.02l.03-.3v-.03l.04-.29v-.03l.04-.29v-.02l.04-.29v-.02l.05-.3v-.03l.04-.29.01-.03.04-.3v-.03l.044-.3.01-.02.04-.29v-.02l.05-.29.01-.03.05-.292v-.02l.05-.29.01-.03.05-.29.01-.03.05-.3v-.03l.06-.292.01-.03.05-.29.01-.025.05-.29.01-.02.06-.29.01-.03.06-.29v-.03l.06-.29.01-.03.06-.29.01-.02.06-.29.01-.026.06-.29v-.03l.07-.29v-.02l.07-.29.01-.03.06-.29.01-.03.07-.29v-.02l.07-.29v-.03l.07-.29v-.03l.07-.29.01-.03.07-.29.01-.02.07-.29.01-.03.07-.29.01-.03.08-.29.006-.03.08-.28.01-.03.08-.29.01-.02.08-.28.01-.02.08-.29.01-.03.08-.28v-.02l.08-.29.01-.03.08-.28.01-.03.08-.29.01-.02.09-.28.01-.03.09-.28.01-.02.09-.28.01-.03.09-.28v-.02l.09-.28.01-.02.1-.28.01-.03.09-.28.01-.03.1-.28v-.02l.09-.28.01-.03.09-.28.01-.03.09-.28.01-.03.1-.28.01-.02.1-.28.01-.02.1-.28.01-.02.1-.27.01-.03.11-.28.01-.02.1-.27.01-.03.1-.28.01-.02.1-.28.01-.03.1-.28.01-.03.11-.28.01-.02.11-.27.01-.02.11-.27.01-.02.11-.27.01-.03.11-.27.01-.02.11-.27.01-.03.12-.28.01-.02.11-.27.02-.03.12-.27.01-.02.12-.27.01-.03.12-.27.01-.02.12-.27.01-.02.12-.27.01-.02.12-.27.01-.02.12-.27.01-.03.12-.27.01-.02.12-.26.01-.03.13-.26.01-.02.13-.26.01-.03.13-.27.01-.03.13-.26.01-.02.13-.26.01-.03.13-.27.01-.02.13-.26.02-.02.13-.27.01-.02.13-.26.01-.03.14-.26.01-.02.13-.26.01-.03.14-.26.01-.02.14-.26.01-.03.14-.26.01-.02.14-.26.02-.02.14-.25.01-.02.14-.26.02-.02.14-.25.01-.02.15-.26.01-.02.15-.26.01-.03.14-.26.02-.02.15-.26.01-.02.15-.25.02-.02.15-.25.01-.03.15-.25.02-.02.15-.25.01-.02.15-.25.01-.02.15-.25.017-.02.15-.25.01-.02.15-.25.01-.02.16-.25.01-.02.16-.25.02-.03.15-.25.02-.02.16-.25.01-.02.16-.25.02-.03.16-.25.01-.02.16-.24.02-.02.16-.24.01-.02.17-.24.01-.03.16-.24.02-.03.16-.25.02-.02.17-.24.02-.02.17-.24.02-.02.17-.24.01-.02.17-.24.02-.02.17-.24.02-.02.17-.23.01-.02.17-.24.02-.02.18-.24.01-.02.17-.23.01-.02.18-.23.02-.03.17-.24.02-.02.18-.24.01-.02.18-.23.02-.02.18-.23.02-.02.18-.24.01-.02.18-.23.02-.02.18-.24.02-.02.188-.23.02-.02.18-.23.02-.02.19-.23.01-.02.19-.23.02-.02.19-.23.02-.02.19-.23.02-.02.19-.22.02-.02.19-.23.02-.02.19-.22.02-.02.19-.22.02-.02.2-.22.02-.02.2-.23.02-.02.19-.22.01-.02.2-.22.02-.02.2-.22.02-.02.2-.22.01-.02.2-.22.02-.02.2-.22.01-.01.2-.21.02-.03.2-.22.02-.02.2-.21.02-.02.21-.21.02-.02.21-.22.02-.02.21-.21.02-.02.21-.22.02-.02.2-.21.02-.02.21-.21.02-.02.21-.21.02-.02.21-.21.02-.02.21-.21.02-.02.21-.21.02-.01.21-.21.02-.02.21-.21.02-.02.22-.21.02-.02.22-.2.02-.02.22-.2.02-.02.22-.2.02-.02.22-.2.02-.02.22-.2.02-.02.22-.2.02-.02.22-.2.02-.02.22-.2.02-.02.22-.19.02-.02.22-.19.02-.02.22-.2.02-.02.23-.19.02-.02.23-.19.02-.02.22-.19.02-.02.23-.19.02-.02.22-.2.02-.02.23-.19.02-.02.23-.19.02-.02.23-.19.02-.02.24-.19.02-.01.23-.18.02-.02.24-.18.02-.02.23-.19.03-.02.24-.19.02-.02.23-.18.02-.01.24-.18.02-.02.23-.18.03-.02.24-.18.02-.02.24-.18.02-.02.24-.18.02-.02.24-.18.02-.01.24-.17.02-.01.24-.18.02-.02.24-.18.02-.02.24-.18.02-.02.25-.17.02-.02.24-.17.02-.02.25-.17.02-.01.25-.17.02-.02.25-.17.03-.01.246-.17.03-.02.25-.17.02-.02.25-.17.02-.01.25-.17.03-.02.25-.16.02-.01.25-.16.02-.02.25-.16.02-.02.26-.17.02-.01.26-.16.02-.01.25-.16.02-.01.26-.16.02-.02.26-.16.02-.01.26-.16.02-.02.26-.16.03-.01.25-.15.02-.01 96-57.54h.015l.21-.12.03-.02.21-.12.02-.01.22-.12.02-.01.22-.12.02-.02.22-.12.02-.02.22-.13.02-.01.22-.12.02-.02.22-.12.02-.02.22-.12.02-.02.22-.12.02-.01.22-.12.03-.01.22-.12.02-.01.22-.11.03-.01.22-.11.02-.01.22-.11.02-.02.22-.12.03-.01.22-.11.03-.01.22-.11.03-.01.23-.11.02-.01.22-.11.02-.02.23-.1.02-.02.23-.11.02-.02.22-.1.03-.01.23-.11.02-.01.23-.1.03-.01.22-.11.03-.01.23-.1.03-.01.23-.11.02-.01.23-.11.02-.01.23-.1.02-.01.23-.1.03-.01.23-.1.02-.01.23-.1.03-.01.23-.1.02-.01.23-.09.03-.01.23-.1.03-.01.23-.09.02-.01.23-.1.02-.01.23-.09.02-.01.23-.1.03-.01.23-.09.03-.01.23-.08.02-.01.23-.09.02-.01.23-.08.03-.01.23-.08h.02l.23-.09.03-.01.23-.09.03-.01.23-.08.03-.01.24-.08.02-.01.23-.08.03-.01.23-.08.02-.01.23-.08.02-.01.24-.08.02-.01.23-.08.03-.01.23-.07.03-.01.23-.07.03-.01.23-.08.03-.01.24-.07.02-.01.24-.07.03-.01.23-.07.03-.01.24-.07.03-.01.24-.07.03-.01.23-.07h.02l.24-.06.02-.01.24-.06.03-.01.24-.07.03-.01.23-.06.02-.01.24-.06.03-.01.24-.06h.03l.24-.06.03-.01.24-.06.03-.01.23-.06.03-.01.24-.06.03-.01.24-.06.02-.01.24-.06.03-.01.24-.06h.03l.24-.05.03-.01.24-.05.03-.01.24-.06h.03l.24-.05.03-.01.24-.05.03-.01.24-.05h.02l.24-.05.03-.01.24-.05.03-.01.24-.04.02-.01.24-.04.03-.01.24-.04.03-.01.24-.04h.03l.24-.04.03-.01.24-.04.03-.01.24-.04h.03l.24-.04h.03l.24-.04h.03l.24-.04h.03l.24-.03.03-.01.24-.03h.02l.24-.03h.03l.25-.03.02-.01.24-.03h.03l.24-.03h.03l.24-.03h.03l.25-.03h.03l.24-.02h.03l.24-.03h.03l.24-.02h.03l.24-.02.03-.01.24-.02h.03l.24-.02h.03l.24-.02h.03l.24-.02.03-.01.24-.02h.02l.24-.02h.03l.25-.02h.03l.24-.02h.02l.24-.02h.02l.24-.01h.03l.24-.01h.03l.25-.01h.04l.24-.02h.03l.24-.01h.03l.24-.01h.03l.24-.01h.57l.24-.01h1.62zm-.22 27-.16.002h-.162l-.16.002-.16.003-.16.01-.16.01-.16.01-.16.01-.16.01-.16.01-.16.01-.16.01-.16.01-.16.01-.16.01-.16.01-.16.01-.16.01-.16.02-.16.02-.16.01-.158.01-.16.02-.16.02-.16.02-.16.02-.158.02-.16.02-.16.02-.157.02-.16.02-.16.02-.158.03-.16.02-.16.03-.16.03-.16.03-.16.02-.16.03-.16.03-.16.03-.16.03-.16.03-.16.03-.16.03-.16.03-.16.03-.16.03-.16.03-.16.04-.16.04-.16.04-.16.04-.16.04-.16.04-.16.03-.16.04-.16.04-.16.04-.16.04-.15.04-.16.04-.16.04-.16.04-.16.05-.15.05-.15.04-.16.05-.16.05-.16.05-.16.05-.16.04-.15.05-.16.05-.16.05-.16.05-.15.05-.16.05-.16.05-.15.05-.15.05-.15.05-.15.06-.16.06-.16.06-.15.06-.15.06-.15.06-.15.06-.15.06-.15.06-.15.06-.15.06-.15.06-.15.06-.15.06-.15.06-.15.07-.15.07-.15.07-.15.07-.14.07-.15.07-.15.07-.15.07-.15.07-.15.07-.15.07-.15.07-.15.08-.15.07-.15.07-.15.08-.15.07-.15.07-.15.08-.14.08-.14.07-.14.08-.15.08-.14.08-.14.08-.14.08-.15.08-.15.08-.14.08-.14.08-.15.08-.14.08-.16.09-95.95 57.55-.2.12-.19.12-.19.12-.19.12-.19.12-.19.11-.18.12-.18.12-.18.12-.18.12-.19.12-.18.12-.18.12-.18.13-.18.12-.18.13-.18.12-.18.13-.18.13-.18.13-.18.13-.18.13-.17.13-.18.13-.17.13-.18.13-.18.13-.17.13-.18.13-.17.14-.17.13-.17.13-.17.14-.17.13-.17.13-.17.14-.17.14-.16.14-.17.14-.16.14-.16.14-.16.14-.16.15-.16.14-.17.14-.16.15-.16.14-.16.14-.16.14-.16.15-.16.15-.16.15-.16.15-.15.15-.16.15-.16.15-.15.15-.15.15-.15.15-.15.15-.15.15-.15.16-.15.15-.15.15-.15.16-.15.16-.14.16-.14.16-.15.16-.14.16-.15.16-.15.16-.14.15-.14.16-.14.16-.14.16-.14.16-.14.16-.14.16-.14.16-.14.16-.14.16-.14.16-.14.16-.13.17-.14.17-.14.17-.13.16-.13.17-.14.17-.13.16-.13.17-.13.17-.13.17-.13.17-.12.17-.13.17-.12.17-.13.17-.13.17-.13.17-.13.17-.12.18-.12.17-.13.17-.12.18-.12.18-.12.18-.12.18-.12.18-.12.18-.12.18-.12.18-.12.18-.12.18-.12.18-.11.18-.11.18-.11.18-.11.18-.11.18-.11.18-.11.18-.11.18-.11.19-.11.18-.11.18-.1.18-.11.19-.11.19-.1.18-.11.19-.1.19-.1.19-.1.19-.1.19-.1.19-.1.19-.1.19-.1.19-.09.19-.09.19-.09.19-.09.19-.09.19-.09.2-.09.19-.09.19-.09.19-.09.2-.09.19-.09.19-.09.2-.09.19-.08.2-.08.2-.08.19-.08.2-.08.2-.08.2-.08.19-.08.2-.08.2-.08.2-.07.2-.07.2-.08.2-.08.2-.08.2-.07.2-.08.2-.07.2-.07.2-.07.21-.07.2-.07.2-.07.2-.07.2-.07.21-.07.2-.07.21-.07.2-.06.2-.06.21-.06.21-.06.2-.06.21-.06.21-.05.21-.05.21-.06.21-.05.21-.06.21-.05.21-.05.21-.05.21-.05.21-.05.21-.05.21-.05.21-.05.21-.04.21-.05.21-.04.21-.05.21-.05.21-.04.21-.04.21-.05.21-.04.22-.04.21-.04.21-.04.21-.04.21-.04.21-.03.21-.03.21-.03.21-.03.22-.04.21-.03.21-.03.21-.03.21-.03.21-.03.21-.03.22-.02.22-.03.21-.02.22-.03.21-.02.22-.02.22-.02.21-.02.22-.02.22-.02.22-.02.22-.02.22-.02.22-.02.22-.01.22-.01.22-.02.22-.01.22-.01.22-.01.22-.01.22-.01.21v.22l-.01.22v.44l-.01.22v121.16l.01.18.01.18.01.18.01.17.01.18.01.18.01.18.01.18.01.17.01.18.01.17.01.18.01.18.01.17.01.17.01.17.01.18.02.17.02.17.02.17.02.17.02.18.02.18.02.17.02.18.02.17.02.17.03.17.03.17.03.18.02.17.02.18.03.17.03.17.03.17.03.17.03.17.03.17.03.18.03.17.03.17.03.17.03.17.03.17.04.17.04.16.04.16.04.18.04.17.04.17.04.17.04.17.04.16.04.17.04.16.04.17.05.17.04.17.05.17.05.17.04.17.05.16.05.17.05.17.05.16.05.17.05.17.05.17.05.17.05.17.05.16.05.17.05.17.05.16.06.16.06.16.06.17.05.16.06.16.06.17.06.16.06.16.06.16.06.16.07.16.06.16.07.16.06.16.06.16.06.16.07.16.07.16.07.16.07.16.07.16.07.16.06.16.07.16.07.15.07.16.07.16.08.16.07.15.07.15.08.16.08.16.07.15.08.15.08.15.08.16.08.15.08.15.08.16.08.15.08.15.08.15.08.15.08.15.08.15.08.15.09.15.09.15.08.15.08.15.09.15.09.15.09.15.09.14.09.15.09.15.09.15.09.14.1.14.09.15.09.15.09.15.09.14.1.14.1.15.1.14.1.15.09.14.09.15.1.14.1.14.1.14.1.14.1.14.1.14.1.14.11.14.1.14.1.13.11.14.1.14.1.13.11.13.11.14.11.13.11.13.1.13.11.13.11.13.1.14.11.13.11.13.11.13.11.13.11.13.11.13.12.13.11.13.11.13.12.13.11.13.12.13.12.13.11.13.12.12.12.13.11.12.12.12.12.13.12.13.12.13.12.12.12.12.12.12.12.12.13.12.12.12.12.12.13.12.12.12.13.12.12.12.13.11.13.12.13.11.13.12.13.12.13.11.13.11.13.11.13.11.13.11.13.11.14.12.14.11.13.11.13.11.13.11.13.11.14.11.13.11.13.11.13.11.14.11.13.1.14.11.14.1.14.1.14.1.14.11.14.11.14.1.14.11.14.1.14.1.15.11.14.1.14.1.15.1.15.1.14.1.14.09.15.09.14.09.15.1.14.09.15.1.15.09.15.1.15.09.15.09.15.09.15.09.15.09.15.09.17.1 104.7 61.21.13.07.12.06.12.07.12.07.12.06.11.06.12.07.12.06.12.07.12.06.11.06.12.06.12.07.12.06.12.06.12.06.11.06.12.06.12.06.12.06.12.06.12.06.12.05.12.06.12.05.12.05.12.05.12.05.12.05.12.05.12.05.12.05.12.05.12.05.12.05.13.05.12.05.12.05.12.05.12.05.12.04.12.04.12.05.13.05.12.05.12.04.12.04.13.04.12.04.12.04.12.04.11.03.26.08.25.08.25.08.25.08.25.07.25.07.25.07.25.06.25.06.25.06.25.06.25.06.25.05.25.06.26.05.26.05.25.04.26.04.25.04.25.04.25.04.26.04.25.04.26.03.25.03.25.03.26.02.25.02.26.02.25.02.26.02.26.01.26.01.26.01.26.01.25.01.26.01h.26l.26.01h.26l.25-.01h.26l.26-.01.26-.01.25-.01.26-.01.26-.01.26-.01.26-.02.25-.02.26-.02.25-.03.26-.03.25-.03.26-.03.26-.03.25-.04.26-.04.25-.04.25-.04.25-.04.25-.04.26-.05.26-.05.25-.05.25-.06.26-.06.26-.06.25-.06.26-.06.25-.07.25-.07.25-.07.25-.07.25-.07.26-.08.12-.03.13-.04.12-.04.12-.04.12-.04.12-.04.12-.04.12-.04.12-.04.12-.05.12-.04.12-.04.12-.05.12-.04.12-.05.12-.04.12-.04.13-.04.12-.04.12-.05.12-.05.12-.05.12-.05.12-.05.12-.05.12-.05.12-.05.12-.05.12-.06.12-.06.12-.05.12-.05.12-.06.12-.06.12-.06.12-.06.12-.05.12-.06.12-.06.12-.06.12-.05.12-.06.12-.06.11-.06.12-.06.12-.06.12-.06.12-.07.11-.06.12-.06.12-.07.13-.07 115.93-64.56.13-.07.12-.07.12-.07.13-.07.12-.07.12-.07.12-.07.12-.07.12-.07.12-.07.12-.08.12-.07.12-.08.12-.08.12-.07.12-.07.11-.07.11-.08.12-.08.11-.08.11-.08.12-.08.12-.08.11-.08.11-.07.12-.08.12-.08.12-.08.11-.08.11-.08.11-.08.11-.09.12-.08.11-.09.1-.08.11-.09.11-.08.11-.09.11-.09.11-.09.1-.08.1-.09.11-.09.11-.09.11-.09.11-.09.1-.09.11-.09.11-.09.1-.09.1-.09.11-.09.1-.09.1-.09.1-.1.1-.09.1-.09.11-.09.1-.09.1-.09.1-.09.1-.09.1-.1.1-.09.1-.1.1-.1.1-.1.1-.1.1-.1.09-.09.1-.1.09-.1.09-.1.09-.1.09-.1.09-.1.09-.1.09-.1.1-.11.09-.1.09-.1.09-.1.09-.1.09-.1.09-.11.09-.1.09-.11.09-.1.09-.11.08-.1.09-.1.09-.1.08-.11.09-.1.09-.11.08-.1.08-.1.08-.11.08-.11.08-.11.09-.11.08-.11.08-.11.08-.11.08-.11.08-.11.08-.11.08-.12.08-.11.08-.11.08-.11.07-.11.07-.11.08-.12.08-.11.07-.11.08-.12.08-.11.07-.12.08-.12.07-.11.07-.11.07-.11.07-.12.08-.12.07-.11.07-.12.07-.12.06-.12.06-.12.07-.11.06-.12.07-.12.07-.12.06-.12.07-.12.06-.12.06-.12.06-.12.06-.12.06-.12.06-.13.06-.12.06-.12.06-.13.06-.12.06-.12.06-.13.05-.12.06-.12.06-.13.05-.13.05-.12.05-.13.05-.12.06-.12.05-.13.06-.13.05-.12.06-.13.05-.13.05-.13.06-.12.05-.12.05-.13.05-.13.05-.12.05-.13.05-.13.05-.13.04-.13.05-.13.05-.13.05-.12.05-.13.05-.13.04-.13.04-.13.05-.13.04-.13.05-.13.04-.13.04-.13.04-.13.05-.14.04-.13.04-.13.04-.13.04-.12.04-.13.04-.14.03-.13.04-.12.04-.14.03-.14.03-.13.03-.14.04-.13.03-.14.04-.13.03-.14.03-.13.03-.13.03-.13.03-.13.03-.13.03-.13.03-.14.02-.13.03-.14.03-.14.03-.14.03-.13.02-.14.02-.14.03-.13.02-.14.02-.14.02-.13.02-.13.02-.14.02-.14.02-.13.02-.14.02-.14.02-.13.02-.14.02-.14.02-.14.02-.13.02-.15.01-.14.02-.13.01-.13.02-.14.01-.14.01-.14.01-.14.01-.14.01-.14.01-.14v-.29l.01-.14.01-.14.01-.14.01-.14.01-.13.01-.15.01-.14v-.14l.01-.14v-138l-.01-.13V136l-.01-.13v-.25l-.01-.13-.01-.13-.01-.13-.01-.13-.01-.13-.01-.13-.01-.13-.01-.13-.01-.13-.01-.12-.01-.13-.01-.12-.01-.12-.01-.12-.02-.13-.01-.14-.01-.12-.01-.13-.02-.13-.02-.13-.01-.12-.02-.13-.02-.12-.02-.13-.02-.13-.02-.12-.02-.12-.02-.12-.02-.12-.02-.12-.02-.12-.02-.12-.02-.11-.05-.26-.05-.25-.05-.24-.06-.25-.06-.24-.05-.24-.06-.25-.06-.25-.06-.24-.07-.24-.07-.24-.07-.24-.07-.24-.08-.24-.08-.24-.07-.24-.07-.24-.08-.24-.09-.24-.08-.23-.08-.24-.08-.23-.09-.23-.09-.23-.09-.23-.09-.23-.1-.23-.09-.23-.1-.23-.1-.23-.1-.22-.11-.23-.11-.22-.11-.22-.11-.228-.12-.22-.11-.23-.12-.22-.12-.22-.12-.22-.12-.216-.12-.22-.13-.22-.13-.21-.13-.21-.13-.21-.13-.22-.14-.21-.14-.21-.14-.21-.14-.21-.14-.21-.14-.2-.15-.2-.15-.2-.15-.2-.15-.2-.16-.2-.15-.195-.15-.2-.16-.19-.16-.2-.16-.19-.16-.19-.16-.19-.17-.19-.17-.19-.17-.18-.17-.18-.17-.19-.17-.18-.17-.18-.17-.18-.18-.18-.18-.18-.17-.17-.18-.18-.19-.17-.19-.17-.19-.17-.18-.17-.19-.17-.19-.16-.2-.17-.09-.08-.1-.09-.1-.08-.1-.08-.1-.08-.1-.08-.1-.08-.09-.08-.1-.08-.1-.08-.1-.08-.1-.08-.1-.08-.1-.07-.1-.07-.1-.08-.1-.07-.11-.07-.1-.08-.11-.08-.1-.07-.11-.08-.1-.08-.11-.07-.11-.07-.1-.07-.11-.07-.1-.07-.11-.07-.11-.07-.11-.07-.11-.07-.11-.07-.1-.07-.11-.07-.11-.06-.11-.07-.11-.07-.11-.07-.11-.07-.11-.06-.11-.07-.11-.07-.12-.07L956.7 45.4l-.16-.09-.15-.08-.15-.08-.14-.08-.15-.08-.14-.08-.15-.08-.15-.08-.15-.08-.15-.08-.15-.08-.15-.07-.15-.07-.14-.077-.15-.07-.15-.07-.15-.07-.15-.07-.15-.07-.15-.07-.15-.07-.14-.07-.15-.07-.15-.07-.15-.07-.15-.06-.15-.07-.15-.06-.15-.07-.15-.06-.16-.06-.15-.06-.15-.06-.15-.06-.15-.06-.15-.06-.15-.06-.15-.06-.15-.06-.16-.05-.15-.05-.15-.05-.15-.05-.15-.05-.16-.05-.16-.05-.15-.05-.15-.05-.15-.05-.15-.05-.15-.05-.16-.05-.16-.043-.16-.05-.15-.05-.16-.05-.16-.05-.16-.04-.16-.05-.15-.04-.16-.04-.15-.05-.16-.04-.156-.04-.16-.04-.16-.04-.155-.04-.16-.04-.15-.04-.15-.03-.16-.038-.16-.03-.16-.03-.15-.04-.16-.03-.16-.04-.16-.03-.15-.03-.16-.03-.16-.03-.16-.03-.16-.03-.16-.03-.16-.028-.16-.023-.16-.03-.16-.02-.16-.03-.15-.02-.16-.02-.16-.02-.16-.03-.16-.03-.16-.02-.16-.02-.16-.02-.16-.02-.16-.02-.16-.02-.16-.02-.16-.01-.15-.02-.16-.01-.16-.02-.16-.02-.16-.02-.16-.01-.16-.02-.16-.01-.16-.01h-.16l-.16-.01-.16-.01-.16-.01-.16-.01-.16-.01-.16-.01h-.16l-.16-.01-.16-.01h-.32l-.16-.01h-.48z"/><path fill="#EBB951" d="M1482.54 259.914V137.607a44.13 44.13 0 0 0-22.233-38.312L1346.64 34.333a52.622 52.622 0 0 0-53.18.56l-95.98 57.568a67.094 67.094 0 0 0-32.574 57.53v119.52c0 19.94 10.58 38.38 27.793 48.44 29.94 17.51 77.02 45.02 104.71 61.21a45.59 45.59 0 0 0 45.2.47l115.94-64.57a46.68 46.68 0 0 0 23.97-40.79v-14.35z"/><path fill="#FCD804" d="M1320.656 13.897h.27l.243.003h.02l.24.004h.03l.24.004h.03l.24.005h.02l.24.007h.02l.24.007h.02l.24.01h.03l.24.01h.03l.24.01h.03l.24.012h.03l.24.01h.02l.24.01h.02l.24.01h.03l.24.01h.03l.25.01h.03l.24.02h.03l.24.01h.03l.24.02h.03l.24.02h.03l.24.02h.03l.24.02h.03l.24.02h.02l.24.02h.03l.24.03h.02l.24.02h.03l.24.02h.03l.24.03h.03l.24.03.03.01.24.03h.03l.24.03h.03l.25.03h.02l.24.03h.03l.24.03h.02l.24.03h.03l.24.03h.02l.24.03h.03l.24.04h.03l.24.03.02.01.24.04h.03l.24.04.03.01.24.04h.03l.24.04h.03l.24.04h.03l.24.04h.03l.24.04h.03l.24.05.03.01.24.04h.03l.24.05.03.01.24.05.03.01.24.05.03.01.24.05.03.01.24.05.03.01.24.05h.03l.24.05h.02l.24.06h.03l.24.05.03.01.23.06.02.01.24.06h.03l.24.06.03.01.23.06.03.01.23.06.03.01.24.06h.03l.23.06h.03l.24.07h.02l.24.07h.03l.24.07.03.01.24.07h.03l.23.07h.03l.23.07.03.01.23.07.03.01.23.07.03.01.23.07.03.01.23.08.02.01.23.07.03.01.24.08.02.01.24.08.03.01.24.08.03.01.23.08h.02l.23.08.03.01.23.08.02.01.23.08.02.01.23.08.03.01.23.08.03.01.23.08.02.01.23.09.02.01.23.08.03.01.23.09.02.01.23.09.03.01.23.09.02.01.23.09.03.01.23.09.02.01.23.09.03.01.23.09.03.01.23.09.03.01.23.09.02.02.23.09.02.01.23.09.02.01.23.1.03.01.23.1.02.01.23.1.02.01.22.1.02.01.23.11.02.01.23.1.02.01.22.1.02.01.22.11.03.01.22.11.03.01.22.11.03.01.23.11.03.02.23.11.02.01.22.11.03.01.22.11.03.01.22.11.03.01.22.11.03.01.23.12.03.01.22.11.02.02.22.12.02.01.22.12.03.02.22.12.03.01.22.12.02.02.22.12.02.02.22.12.02.01.22.12.03.02.22.12.03.02.22.13 113.68 65 .19.11.02.02.18.11.02.01.19.11.03.01.18.11.02.01.18.11.03.01.18.11.02.01.18.11.03.01.18.11.02.02.18.12.03.02.18.11.02.01.18.12.02.01.18.11.02.01.18.11.02.02.18.12.02.01.17.12.03.02.18.12.02.01.18.11.03.02.17.12.02.02.17.12.03.01.17.12.02.02.17.12.02.01.17.12.02.02.17.12.02.02.17.12.03.02.17.13.02.02.17.12.02.01.17.12.02.02.17.12.02.02.17.12.02.01.17.12.02.02.17.13.02.01.17.13.02.02.16.13.02.01.17.13.02.02.17.13.03.02.16.12.02.01.16.13.02.02.16.13.02.02.17.14.02.02.16.13.02.02.16.13.02.02.16.14.02.02.16.14.02.02.16.14.03.03.31.27.04.04.31.27.04.04.32.28.04.03.31.28.04.04.31.28.04.04.31.28.04.04.31.29.04.04.3.29.04.04.3.29.04.04.3.29.04.04.3.3.04.04.29.3.04.04.29.3.04.04.28.3.04.04.28.3.04.04.28.31.04.04.28.31.04.04.28.31.03.04.27.32.03.04.27.31.04.04.27.31.04.04.27.32.03.04.27.32.04.05.26.32.03.04.26.33.03.04.26.33.03.05.25.33.03.04.25.33.03.05.24.33.03.04.24.33.03.04.24.34.03.05.23.34.03.04.24.34.03.05.23.34.03.04.23.35.03.05.22.34.03.05.22.35.03.04.22.35.03.05.22.35.03.05.22.36.03.04.21.36.03.05.21.36.03.05.21.35.02.05.2.37.02.05.2.36.02.05.2.36.03.05.19.36.03.05.19.37.02.05.19.37.03.05.19.37.02.05.19.37.02.05.18.37.02.05.18.37.03.05.17.37.02.05.17.38.03.05.17.38.02.05.16.38.02.05.16.38.02.05.16.38.02.05.15.39.02.05.15.39.02.05.15.39.02.06.14.39.02.05.14.39.02.05.14.39.02.05.14.39.01.05.13.39.02.05.13.39.02.05.13.4.01.05.12.39.01.05.13.4.01.05.11.4.02.05.11.4.01.05.11.4.02.05.11.4.01.05.11.41.01.06.1.4.02.06.1.4.01.06.09.41.01.05.09.4.01.06.09.41.01.05.08.41.01.06.08.41.01.05.08.41v.05l.04.21.01.02.04.2.01.03.04.21.01.03.03.2.01.03.03.21v.02l.04.21v.03l.03.21v.03l.03.21v.02l.03.21.01.03.03.21v.03l.03.21.01.03.03.21v.04l.03.21.01.02.03.21v.02l.03.21v.03l.03.2v.02l.03.21.01.03.02.21v.03l.02.21v.03l.02.21v.03l.02.21v.03l.02.21v.03l.02.21v.03l.02.21.01.03.02.21v.03l.02.21v.02l.01.21v.03l.02.21v.02l.01.21v.04l.01.22v.02l.01.21v.03l.02.21v.04l.01.21v.03l.01.21v.02l.01.21v.03l.01.22v.26l.01.22v.03l.01.21v.27l.01.21V275l-.01.23v.27l-.01.22v.03l-.01.22v.03l-.01.23v.03l-.01.23v.03l-.01.23-.01.03-.01.23v.03l-.01.23v.03l-.02.227v.02l-.01.227v.04l-.02.23v.03l-.02.227v.03l-.02.22v.03l-.02.22v.04l-.02.23v.03l-.02.23-.01.03-.02.22-.01.03-.02.22v.03l-.02.22v.03l-.02.23v.02l-.02.22-.01.03-.02.23-.01.03-.03.22v.03l-.03.22v.03l-.03.22v.03l-.03.22v.03l-.03.23-.01.03-.03.22v.03l-.03.22-.01.03-.03.22v.02l-.03.22-.01.03-.03.22v.03l-.03.22-.01.03-.03.23-.01.04-.04.22v.02l-.04.22-.01.03-.04.22v.03l-.04.22v.02l-.04.22v.03l-.04.22-.01.03-.04.21-.01.03-.05.22v.02l-.05.22-.01.03-.04.22-.01.02-.05.21v.03l-.05.22v.03l-.05.22-.01.03-.04.22v.02l-.05.22-.01.03-.05.22v.02l-.05.22-.01.03-.05.22-.01.03-.05.22-.01.03-.05.21-.01.02-.05.21-.01.03-.06.22-.01.03-.06.21-.01.02-.06.22-.01.03-.06.21-.01.03-.06.21-.01.03-.06.21v.03l-.06.21-.01.03-.06.21-.01.02-.06.21-.01.02-.07.22-.01.03-.07.22v.02l-.06.21-.01.02-.07.21-.01.03-.07.21-.01.02-.07.21-.01.03-.07.21-.01.03-.07.21-.01.02-.07.2-.01.03-.07.21-.01.03-.07.21-.01.03-.07.21-.01.03-.08.21-.01.02-.08.21-.01.03-.08.2-.01.02-.08.21-.01.02-.07.21-.01.03-.08.2-.01.03-.08.21-.01.02-.08.21-.01.03-.08.21-.01.02-.08.2-.01.03-.08.21-.01.03-.08.21-.01.03-.09.2-.01.02-.08.2-.01.03-.08.21-.01.02-.09.2-.01.03-.08.2-.01.03-.09.2-.01.02-.09.2-.01.03-.09.2-.01.03-.09.2-.01.03-.09.2-.01.02-.09.2-.01.03-.09.2-.01.02-.09.2-.01.02-.1.2-.01.03-.09.2-.01.02-.1.2-.01.03-.1.2-.01.03-.1.2-.01.02-.1.19-.01.02-.1.2-.01.02-.1.2-.02.03-.1.2-.02.02-.1.2-.01.02-.1.19-.01.02-.1.19-.01.03-.1.19-.02.02-.1.19-.02.03-.1.19-.01.03-.11.2-.01.02-.11.19-.02.03-.11.19-.01.03-.1.19-.02.02-.11.19-.01.03-.11.19-.01.02-.11.19-.01.02-.11.19-.02.02-.11.19-.02.03-.12.19-.01.03-.11.19-.02.02-.11.19-.01.02-.11.19-.01.02-.12.18-.02.03-.12.18-.01.02-.11.18-.02.02-.12.19-.02.02-.12.19-.01.02-.12.18-.02.02-.12.18-.02.02-.12.19-.02.02-.12.18-.02.03-.12.18-.01.02-.12.18-.01.02-.12.19-.01.02-.12.18-.02.02-.12.18-.01.03-.13.18-.01.02-.13.18-.01.02-.13.18-.01.02-.13.18-.01.02-.13.18-.02.03-.13.18-.02.02-.13.17-.02.02-.13.17-.02.02-.14.18-.02.03-.13.18-.02.02-.13.18-.02.02-.13.18-.02.02-.13.18-.02.02-.13.17-.02.02-.14.18-.01.02-.13.17-.02.02-.14.18-.02.02-.14.17-.02.02-.14.17-.02.02-.14.17-.02.02-.14.17-.02.02-.14.16-.01.02-.14.17-.02.03-.14.17-.02.02-.14.17-.02.02-.14.16-.02.02-.14.16-.02.02-.14.17-.02.02-.15.17-.02.02-.15.16-.02.02-.15.16-.02.02-.15.16-.02.02-.15.17-.02.02-.15.17-.01.02-.15.16-.02.03-.15.16-.02.02-.15.16-.02.02-.16.16-.02.02-.15.16-.02.02-.15.16-.02.02-.16.15-.02.02-.16.16-.02.02-.16.16-.02.02-.16.16-.02.02-.16.15-.02.02-.16.16-.02.02-.16.15-.02.01-.16.15-.02.02-.16.16-.02.02-.16.15-.02.02-.16.15-.02.02-.16.15-.03.02-.17.15-.02.02-.16.15-.03.02-.17.15-.02.02-.16.15-.02.01-.16.15-.02.02-.16.15-.02.02-.17.14-.02.02-.17.15-.02.02-.17.15-.02.02-.17.15-.02.02-.17.14-.02.02-.17.15-.02.02-.17.14-.02.02-.17.14-.03.02-.17.14-.02.02-.17.14-.02.02-.17.14-.02.02-.18.14-.02.01-.17.14-.02.02-.18.14-.02.02-.18.13-.02.02-.18.13-.02.02-.18.14-.02.02-.18.13-.02.02-.17.13-.02.01-.18.13-.02.02-.18.13-.02.02-.19.13-.02.02-.18.13-.02.01-.19.13-.03.02-.18.13-.02.01-.19.12-.02.02-.19.13-.02.01-.18.13-.03.02-.19.13-.03.02-.19.13-.02.01-.18.12-.02.02-.19.13-.02.02-.19.13-.02.02-.19.13-.02.01-.19.13-.02.01-.19.13-.02.02-.19.12-.02.02-.19.12-.02.02-.19.12-.02.01-.19.11-.03.02-.19.12-.03.01-.19.12-.02.02-.19.12-.03.01-.19.12-.02.01-.2.11-.03.01-.2.11-.02.01-.2.11-.03.01-.2.11-.03.01-.2.11-.03.01-.2.11-.02.02-.19.11-.01.01-115.96 64.58-.01.01-.19.1-.03.02-.19.1-.02.01-.19.11-.03.01-.19.1-.02.01-.19.11-.02.02-.19.1-.03.02-.2.1-.03.01-.19.1-.02.01-.19.1-.03.01-.2.09-.02.01-.19.09-.02.01-.19.1-.03.02-.2.09-.02.01-.2.1-.03.01-.19.09-.02.01-.19.09-.03.01-.2.09-.02.01-.2.09-.03.02-.2.09-.03.01-.2.09-.03.01-.2.09-.03.01-.2.09-.03.01-.19.08-.03.01-.19.08-.03.01-.2.09-.02.01-.19.08-.03.01-.2.08-.02.01-.2.09-.03.01-.2.08-.02.01-.2.08-.03.01-.2.08-.02.01-.2.08-.03.01-.2.08-.02.01-.19.08-.02.01-.2.08-.03.01-.2.07-.03.01-.2.07-.03.01-.2.08-.02.01-.2.07-.02.01-.2.07-.02.01-.2.07-.03.01-.21.07-.02.01-.2.07-.03.01-.2.07-.03.01-.2.07-.03.01-.2.07-.02.01-.2.07-.03.01-.2.06-.03.01-.2.06-.02.01-.2.07-.21.06-.03.01-.21.06-.04.01-.4.12-.05.02-.41.12-.05.02-.41.11-.05.01-.41.11-.06.01-.41.11-.05.01-.41.11-.05.01-.41.1-.05.01-.41.1-.05.02-.41.09-.05.01-.41.09-.06.01-.41.09-.05.01-.41.08-.05.01-.41.08-.05.01-.42.08-.05.01-.42.08-.05.01-.41.07-.05.01-.42.06-.06.01-.42.07-.05.01-.42.06-.05.01-.42.06-.05.01-.42.06h-.05l-.41.05h-.05l-.42.05-.06.01-.42.04-.06.01-.42.04-.06.01-.42.03-.05.01-.42.03-.05.01-.42.03h-.05l-.42.03h-.04l-.42.03-.06.01-.42.02-.05.01-.42.02-.05.01-.42.01h-.06l-.42.01h-.05l-.42.01h-1.46l-.42-.01h-.05l-.42-.01h-.05l-.42-.01h-.05l-.42-.02h-.05l-.42-.02-.05-.01-.42-.02h-.05l-.42-.03h-.05l-.42-.03h-.06l-.42-.03h-.05l-.42-.04h-.06l-.42-.04h-.05l-.42-.04h-.05l-.42-.05h-.05l-.42-.05-.05-.01-.42-.05h-.05l-.42-.06-.05-.01-.42-.06-.06-.01-.42-.06-.06-.01-.41-.06-.05-.01-.41-.07-.05-.01-.42-.07-.05-.01-.42-.08-.05-.01-.42-.08-.05-.01-.41-.09-.06-.01-.41-.08-.06-.02-.42-.09-.05-.01-.41-.09-.05-.01-.41-.09-.06-.01-.41-.1-.05-.01-.41-.1-.05-.02-.41-.11-.05-.01-.41-.11-.05-.01-.41-.11-.05-.02-.41-.12-.05-.02-.41-.12-.05-.02-.41-.12-.05-.02-.4-.13-.06-.02-.4-.13-.04-.01-.21-.07-.03-.01-.2-.07-.02-.01-.2-.07-.03-.01-.2-.07-.03-.01-.2-.07-.03-.01-.2-.07-.03-.01-.2-.07-.03-.01-.2-.08-.02-.01-.2-.07-.02-.01-.2-.07-.02-.01-.2-.07-.02-.01-.2-.08-.03-.01-.2-.07-.03-.01-.2-.08-.03-.01-.2-.08-.03-.01-.2-.08-.02-.01-.2-.08-.03-.01-.2-.08-.03-.01-.2-.08-.03-.01-.2-.08-.02-.01-.2-.08-.02-.01-.2-.08-.02-.01-.2-.09-.03-.01-.19-.09-.03-.01-.2-.09-.03-.01-.19-.09-.03-.01-.2-.08-.03-.01-.19-.09-.03-.01-.19-.09-.02-.01-.19-.09-.02-.01-.2-.09-.02-.02-.19-.09-.03-.01-.2-.1-.02-.01-.2-.1-.02-.02-.19-.1-.02-.01-.2-.1-.02-.01-.19-.1-.03-.01-.19-.1-.03-.01-.19-.1-.03-.01-.19-.1-.03-.01-.19-.1-.03-.01-.19-.1-.03-.01-.19-.1-.03-.01-.19-.11-.02-.01-.19-.1-.02-.01-.19-.11-.02-.01-.19-.1-.02-.02-.19-.11-.02-.02-.19-.11-.02-.01-.19-.11-.03-.01-.19-.11-.03-.01-.18-.1-.01-.01-104.73-61.21h-.02l-.22-.13-.03-.02-.23-.14-.03-.01-.22-.13-.03-.02-.23-.13-.03-.01-.23-.14-.03-.01-.22-.14-.02-.01-.22-.14-.03-.01-.22-.14-.02-.02-.22-.14-.02-.02-.22-.14-.02-.02-.22-.14-.02-.01-.22-.15-.03-.01-.22-.14-.02-.01-.22-.15-.02-.01-.21-.14-.02-.02-.22-.15-.03-.02-.22-.14-.02-.02-.22-.14-.03-.02-.21-.15-.02-.02-.21-.14-.02-.01-.21-.15-.03-.02-.21-.15-.02-.02-.21-.15-.02-.02-.21-.15-.02-.02-.21-.15-.02-.01-.21-.15-.02-.01-.2-.15-.03-.02-.2-.16-.02-.02-.2-.15-.02-.01-.21-.16-.02-.02-.2-.16-.02-.01-.2-.16-.02-.01-.2-.16-.02-.01-.2-.16-.03-.02-.2-.16-.02-.02-.2-.16-.02-.02-.2-.16-.02-.01-.2-.17-.02-.02-.2-.16-.02-.02-.2-.16-.02-.01-.2-.17-.02-.02-.19-.16-.02-.02-.19-.17-.03-.02-.2-.17-.02-.02-.19-.17-.02-.02-.19-.17-.02-.01-.19-.17-.02-.01-.19-.17-.02-.01-.19-.17-.03-.02-.19-.17-.02-.02-.19-.17-.02-.01-.19-.18-.02-.02-.18-.17-.02-.02-.19-.18-.02-.02-.19-.18-.02-.02-.19-.17-.02-.02-.18-.18-.02-.02-.18-.18-.02-.02-.18-.18-.02-.02-.18-.18-.02-.01-.18-.18-.02-.02-.18-.18-.02-.02-.18-.18-.02-.02-.18-.18-.02-.02-.17-.18-.02-.02-.18-.18-.02-.01-.17-.19-.02-.03-.18-.19-.02-.02-.18-.19-.02-.02-.18-.18-.02-.02-.17-.19-.01-.02-.18-.19-.02-.02-.17-.19-.02-.02-.17-.18-.02-.02-.17-.19-.02-.03-.17-.19-.02-.02-.17-.19-.02-.02-.17-.19-.02-.02-.16-.19-.02-.02-.17-.2-.02-.02-.17-.19-.02-.03-.17-.19-.02-.02-.16-.19-.01-.02-.16-.2-.02-.02-.16-.2-.02-.02-.16-.19-.01-.02-.16-.2-.02-.02-.16-.19-.02-.02-.16-.2-.02-.02-.16-.2-.02-.02-.16-.2-.01-.02-.15-.2-.02-.02-.15-.2-.02-.02-.16-.2-.02-.02-.15-.2-.018-.02-.16-.2-.01-.02-.15-.2-.01-.02-.157-.2-.01-.02-.15-.2-.02-.03-.15-.21-.01-.02-.15-.2-.01-.03-.15-.21-.02-.02-.15-.21-.02-.02-.15-.21-.02-.02-.15-.21-.01-.03-.14-.21-.02-.02-.14-.21-.01-.02-.14-.21-.02-.02-.14-.2-.01-.02-.14-.21-.01-.03-.14-.21-.01-.02-.14-.21-.02-.03-.14-.21-.01-.02-.14-.22-.02-.02-.14-.21-.01-.02-.14-.21-.01-.02-.14-.21-.02-.02-.14-.21-.01-.03-.13-.21-.01-.02-.13-.21-.016-.02-.13-.22-.02-.02-.13-.21-.01-.02-.13-.21-.02-.02-.13-.21-.01-.02-.13-.22-.01-.02-.13-.21-.02-.02-.13-.22-.01-.03-.12-.22-.01-.02-.13-.22-.02-.02-.12-.22-.01-.02-.13-.22-.01-.03-.13-.22-.01-.02-.12-.22-.02-.02-.12-.22-.01-.02-.12-.22-.01-.03-.12-.23-.01-.02-.12-.22-.01-.02-.12-.22-.01-.03-.11-.23-.01-.02-.11-.22-.01-.02-.12-.22-.01-.02-.12-.23-.01-.02-.11-.23-.01-.02-.11-.23-.01-.03-.12-.23-.01-.03-.11-.23-.01-.03-.11-.23-.01-.02-.11-.22-.01-.03-.11-.23-.01-.02-.11-.23-.01-.02-.11-.23-.01-.03-.1-.23-.01-.03-.1-.23-.01-.03-.11-.23-.01-.02-.1-.24-.01-.02-.1-.23-.01-.02-.1-.24-.01-.03-.1-.23-.01-.02-.1-.23-.01-.02-.1-.23-.01-.03-.1-.24-.01-.02-.1-.23-.01-.03-.1-.24-.01-.03-.09-.23v-.02l-.09-.24-.01-.03-.1-.24-.01-.03-.09-.24-.01-.03-.09-.24-.01-.02-.09-.24v-.02l-.09-.24-.01-.03-.09-.24-.01-.03-.09-.24-.01-.02-.08-.24-.01-.03-.08-.24-.01-.02-.09-.24-.01-.03-.08-.24-.01-.03-.08-.24-.01-.02-.08-.24-.01-.03-.08-.25-.01-.02-.08-.24-.01-.02-.07-.24-.01-.03-.07-.24-.01-.03-.08-.24-.01-.03-.08-.24-.01-.03-.07-.25v-.03l-.07-.25-.01-.03-.07-.24V289l-.08-.24-.01-.03-.07-.25-.01-.03-.07-.24-.01-.02-.07-.24-.01-.027-.06-.24-.01-.03-.07-.25v-.03l-.07-.24-.01-.03-.07-.25-.01-.02-.06-.24-.01-.03-.06-.25-.01-.02-.06-.25-.01-.03-.06-.25-.01-.02-.05-.25-.01-.03-.06-.25-.01-.02-.06-.25-.01-.03-.06-.25-.01-.02-.06-.25-.01-.03-.06-.25v-.02l-.05-.25v-.03l-.05-.25-.01-.03-.05-.26-.01-.03-.05-.25v-.02l-.05-.25v-.03l-.05-.25-.01-.03-.05-.25v-.02l-.05-.25-.01-.03-.04-.25-.01-.02-.04-.25v-.03l-.05-.26v-.03l-.04-.26v-.02l-.04-.25v-.03l-.04-.26-.01-.03-.04-.25v-.03l-.04-.25v-.03l-.04-.26v-.03l-.04-.26v.03l-.04-.25-.01-.03-.04-.26v-.02l-.03-.26v-.03l-.03-.26-.01-.03-.03-.26v-.02l-.03-.26v-.03l-.03-.26v-.02l-.03-.26v-.03l-.03-.26v-.03l-.02-.26v-.03l-.03-.26v-.03l-.02-.26v-.03l-.02-.26v-.03l-.02-.25-.02-.26v-.03l-.02-.26v-.02l-.02-.26v-.03l-.02-.26v-.03l-.02-.26-.01-.03-.02-.26v-.03l-.01-.26v-.1l-.01-.26v-.03l-.01-.27v-.03l-.01-.26v-.03l-.01-.256v-.03l-.01-.26v-.03l-.01-.27v-.03l-.01-.26v-.03l-.01-.26v-.03l-.01-.27V149.3l.01-.31v-.69l.01-.3v-.02l.01-.3v-.03l.01-.303v-.03l.01-.306v.02l.01-.3v-.03l.01-.3v-.03l.02-.3v-.02l.01-.3v-.03l.02-.3v-.03l.02-.3v-.02l.02-.3.006-.03.02-.3v-.03l.02-.31v-.03l.03-.3v-.02l.02-.3v-.02l.03-.3v-.03l.03-.3v-.02l.03-.3v-.03l.03-.3v-.03l.03-.3v-.03l.03-.3v-.03l.03-.29.01-.02.04-.29v-.03l.03-.29v-.03l.04-.3v-.02l.04-.3.01-.03.04-.3v-.02l.04-.3.01-.02.04-.3v-.03l.04-.29.01-.02.04-.3.01-.03.05-.29.01-.03.04-.29v-.02l.04-.29.01-.03.05-.29v-.03l.05-.29v-.03l.05-.29.01-.03.05-.3V136l.05-.298.01-.03.05-.295v-.02l.06-.297.01-.03.06-.29v-.03l.06-.29v-.03l.06-.29.01-.03.06-.29v-.026l.06-.29.01-.022.06-.29v-.03l.06-.29v-.02l.07-.29.01-.03.07-.29v-.03l.07-.29.01-.03.07-.29.01-.03.06-.29.01-.03.07-.29v-.03l.07-.29.01-.02.07-.28.01-.03.07-.29.01-.03.07-.29.01-.026.07-.29.01-.03.08-.29.01-.02.07-.28.01-.022.08-.29v-.02l.08-.29.01-.024.08-.28.01-.03.08-.28.01-.03.08-.285.01-.026.08-.29.01-.02.09-.29.01-.03.09-.28v-.03l.09-.28.01-.03.09-.28.01-.03.08-.28.01-.03.09-.28.01-.03.09-.28v-.02l.09-.28.01-.03.1-.28.01-.02.09-.28.01-.03.1-.28.01-.02.1-.28.01-.03.1-.28.01-.03.09-.28.01-.03.1-.28.01-.03.107-.28.01-.02.1-.28.01-.03.11-.27.01-.03.1-.27.01-.03.1-.28.01-.03.1-.27.01-.03.11-.27.01-.03.11-.27.01-.03.11-.27.01-.03.12-.28.01-.02.11-.27.01-.02.11-.27.01-.03.11-.27.01-.03.12-.27.01-.03.12-.27.01-.02.12-.27.01-.03.11-.27.01-.03.12-.27.01-.03.12-.27.01-.02.13-.27.01-.02.13-.26.01-.02.123-.26.01-.03.13-.27.01-.02.13-.26.01-.03.13-.27.01-.02.13-.27.01-.02.13-.27.01-.02.13-.27.01-.02.13-.26.01-.02.14-.27.01-.02.13-.26.01-.03.14-.26.01-.02.14-.26.015-.03.13-.26.01-.03.14-.26.01-.02.14-.26.01-.03.14-.26.01-.02.14-.25.02-.02.14-.26.02-.03.14-.26.01-.02.15-.25.01-.02.15-.25.01-.02.14-.25.02-.03.15-.26.01-.02.15-.26.01-.02.15-.26.01-.02.15-.25.015-.02.15-.26.01-.03.15-.25.01-.02.15-.25.01-.02.15-.25.02-.02.16-.25.01-.03.16-.25.01-.02.16-.25.01-.02.16-.25.01-.02.16-.25.01-.02.16-.25.02-.03.16-.25.01-.02.17-.25.02-.02.16-.25.02-.02.16-.25.02-.02.17-.25.01-.02.16-.24.02-.03.17-.24.01-.02.17-.24.02-.02.17-.24.02-.02.17-.24.02-.02.17-.24.02-.02.17-.24.01-.02.17-.24.01-.02.17-.24.01-.02.18-.24.02-.02.18-.24.01-.02.18-.24.02-.02.18-.23.02-.02.18-.23.02-.02.18-.24.01-.02.18-.24.02-.02.19-.23.02-.02.18-.23.01-.02.18-.23.02-.02.19-.24.02-.02.19-.23.02-.02.18-.23.02-.03.19-.23.02-.02.19-.23.01-.02.19-.23.01-.02.19-.23.02-.03.19-.22.01-.02.2-.22.02-.03.19-.23.01-.02.19-.22.02-.02.19-.23.02-.02.2-.23.01-.02.2-.22.02-.02.19-.22.02-.02.2-.22.02-.02.2-.21.02-.02.2-.22.02-.03.2-.22.02-.02.2-.22.02-.02.2-.22.02-.02.2-.21.02-.02.2-.21.02-.02.2-.21.02-.02.21-.21.02-.02.21-.21.02-.02.21-.21.02-.02.21-.21.02-.02.21-.21.02-.02.21-.21.02-.02.21-.21.01-.02.21-.21.02-.02.22-.21.02-.02.21-.2.02-.02.22-.2.02-.02.22-.2.02-.02.22-.21.02-.02.22-.21.02-.02.22-.2.02-.02.22-.2.02-.02.22-.2.02-.01.22-.2.02-.01.22-.2.02-.02.22-.19.02-.02.23-.2.02-.02.23-.2.02-.02.23-.19.02-.02.23-.2.02-.01.23-.2.02-.02.23-.19.02-.02.23-.19.02-.02.23-.19.02-.02.23-.19.02-.02.23-.19.02-.02.23-.19.02-.02.24-.18.02-.02.23-.18.02-.02.23-.19.02-.01.24-.19.02-.02.24-.19.02-.01.24-.18.02-.02.24-.18.02-.02.24-.18.02-.02.24-.18.02-.01.24-.18.02-.02.24-.18.02-.02.24-.18.03-.01.25-.18.03-.02.24-.18.02-.02.25-.18.02-.01.25-.17.03-.01.24-.17.02-.02.25-.17.02-.02.25-.17.02-.01.25-.17.02-.01.25-.17.02-.01.25-.17.02-.01.25-.16.02-.01.25-.16.03-.02.25-.17.02-.02.26-.16.02-.01.26-.16.02-.01.26-.16.02-.02.26-.16.02-.02.26-.16.02-.02.26-.16.03-.01.26-.16.02-.01.25-.15.01-.01 96-57.57.01-.01.21-.13.02-.02.21-.13.03-.02.21-.13.02-.01.22-.13.02-.01.22-.12.02-.01.22-.12.03-.02.22-.12.02-.02.22-.12.02-.01.21-.12.02-.01.22-.12.02-.01.22-.12.03-.01.22-.12.02-.01.22-.12.03-.01.22-.11.02-.02.22-.11.03-.01.23-.11.03-.02.22-.11.02-.01.22-.11.02-.01.22-.11.02-.02.23-.11.02-.01.23-.11.03-.01.22-.11.02-.01.22-.11.02-.01.22-.11.03-.02.22-.1.03-.01.22-.11.02-.01.23-.1.03-.01.23-.1.02-.02.23-.1.02-.01.23-.1.02-.01.23-.1.02-.01.23-.1.03-.01.22-.1.03-.01.23-.1.02-.01.23-.1.02-.01.23-.09.03-.01.23-.1.03-.01.23-.1.02-.01.23-.09.03-.01.23-.09.03-.01.23-.09.02-.01.23-.09.03-.01.23-.09.03-.01.23-.08.02-.01.23-.09.03-.01.24-.09.03-.01.23-.08.03-.01.23-.08.02-.01.23-.08.03-.01.23-.08.02-.01.24-.08.03-.01.23-.08.03-.01.24-.08.03-.01.23-.07.03-.01.24-.08.02-.01.24-.07.03-.01.24-.07.02-.01.23-.07.03-.01.23-.07.03-.01.23-.07.03-.01.24-.07.03-.01.24-.07.03-.01.24-.07.02-.01.24-.07.03-.01.23-.07.03-.01.24-.07.02-.01.23-.06.02-.01.24-.06.02-.01.23-.06h.02l.23-.06.03-.01.24-.06.03-.01.24-.06.03-.01.24-.06.03-.01.24-.06.02-.01.24-.06h.03l.24-.05.03-.01.24-.05.03-.01.24-.05.02-.01.24-.05.03-.01.24-.05h.03l.24-.05h.03l.24-.05.03-.01.24-.05h.03l.24-.05.03-.01.24-.04h.03l.24-.05h.03l.24-.04.02-.01.24-.04.02-.01.24-.04.03-.01.24-.04h.03l.24-.04.03-.01.24-.04h.03l.24-.04h.03l.24-.04.03-.01.24-.03h.03l.24-.04.03-.01.25-.04.03-.01.24-.04h.03l.24-.03h.03l.24-.03h.03l.24-.03h.03l.24-.03.03-.01.24-.03h.03l.24-.02h.03l.24-.03h.03l.24-.02h.03l.24-.03h.03l.25-.03h.03l.24-.02h.02l.24-.02h.03l.24-.02h.03l.25-.02h.03l.25-.02h.03l.25-.01h.02l.24-.02.03-.01.24-.02h.03l.24-.01h.03l.24-.01h.03l.24-.02h.03l.25-.01h.03l.24-.01h.03l.24-.01h.03l.25-.01h.02l.25-.01h.03l.24-.01h.29l.24-.01h.03l.24-.01h.84zm-.22 27-.16.002h-1.282l-.16.01h-.48l-.16.01-.16.01-.16.01-.16.01-.16.01-.16.01-.16.01-.158.01-.16.01-.16.01-.16.01-.158.01-.16.01-.16.02-.16.01-.16.02-.158.02-.158.02-.16.02-.158.02-.16.02-.158.02-.16.02-.157.02-.16.03-.16.03-.16.03-.16.02-.16.02-.16.03-.16.03-.16.03-.16.03-.16.03-.16.03-.16.03-.16.03-.16.03-.16.03-.16.04-.16.04-.16.04-.16.04-.16.04-.16.04-.16.04-.16.04-.16.04-.16.04-.16.04-.16.04-.16.04-.16.05-.16.04-.15.04-.16.04-.16.05-.16.05-.16.05-.15.05-.16.05-.16.05-.15.05-.16.05-.16.05-.15.05-.16.05-.15.05-.15.06-.15.05-.15.05-.16.06-.15.05-.15.06-.15.06-.15.06-.15.06-.15.06-.15.06-.15.06-.15.06-.15.06-.15.06-.15.06-.15.06-.15.06-.15.06-.15.07-.15.07-.15.07-.15.06-.15.07-.15.07-.15.07-.15.07-.15.07-.15.08-.15.07-.15.07-.15.08-.15.08-.14.07-.15.08-.15.08-.15.07-.15.08-.15.08-.15.08-.15.08-.14.08-.15.08-.15.08-.15.08-.14.08-.14.08-.14.08-.15.09-95.95 57.56-.21.12-.19.11-.19.12-.19.11-.19.12-.19.12-.18.12-.19.12-.19.12-.18.12-.18.13-.18.12-.19.13-.18.13-.18.12-.18.12-.18.13-.18.12-.18.13-.18.12-.17.12-.18.13-.18.13-.18.13-.18.13-.18.13-.18.13-.17.13-.18.13-.17.13-.17.13-.17.14-.17.13-.17.14-.17.14-.17.13-.16.13-.17.14-.17.14-.17.13-.16.14-.16.14-.16.14-.16.14-.17.15-.17.14-.16.15-.16.15-.16.14-.16.14-.16.14-.16.15-.16.15-.16.15-.16.15-.15.15-.16.15-.16.15-.15.16-.15.15-.15.15-.16.15-.15.15-.15.16-.15.16-.15.16-.15.16-.15.16-.15.16-.15.16-.14.16-.15.16-.14.16-.15.16-.15.16-.14.16-.14.16-.14.16-.14.16-.14.16-.13.16-.14.16-.14.16-.14.16-.13.17-.14.17-.13.17-.13.16-.13.17-.13.17-.13.16-.14.17-.13.17-.13.17-.13.17-.13.17-.13.17-.12.17-.13.17-.13.17-.12.17-.13.17-.13.17-.12.17-.12.18-.12.18-.12.18-.12.18-.12.18-.12.18-.12.18-.12.17-.12.18-.12.18-.11.18-.12.18-.11.18-.11.18-.12.19-.11.18-.11.18-.11.19-.11.18-.11.19-.11.18-.11.18-.11.19-.1.19-.1.18-.1.19-.11.18-.1.19-.1.18-.1.18-.11.2-.09.18-.1.19-.1.2-.1.19-.1.19-.09.19-.1.19-.09.19-.09.19-.09.19-.09.2-.09.19-.09.19-.09.2-.09.19-.09.19-.08.19-.08.19-.09.2-.09.2-.08.2-.08.2-.09.19-.08.2-.08.2-.08.2-.08.2-.08.2-.08.2-.07.2-.08.2-.08.2-.07.2-.08.2-.07.2-.08.21-.07.2-.07.21-.07.2-.07.2-.06.2-.07.2-.07.2-.06.2-.06.21-.07.21-.06.2-.07.2-.06.21-.06.21-.06.2-.06.21-.06.21-.06.2-.05.21-.06.21-.05.21-.06.21-.06.21-.05.2-.06.21-.05.21-.05.21-.05.21-.05.21-.05.21-.05.21-.05.21-.04.21-.04.21-.04.21-.05.22-.04.22-.04.21-.04.21-.04.21-.04.22-.04.21-.03.21-.03.22-.04.22-.03.21-.04.21-.03.21-.03.21-.03.22-.03.22-.03.21-.03.22-.02.21-.02.21-.02.22-.03.21-.03.21-.03.22-.02.22-.02.21-.02.21-.02.22-.02.22-.02.21-.02.22-.02.22-.02.22-.02.22-.01.22-.01.22-.01.21-.02.22-.01.22-.01.22-.01.22-.01.22-.01.22-.01.22v.22l-.01.22v121.1l.01.18v.18l.01.17.01.17.01.18v.34l.01.18v.18l.01.17.01.18.01.17.01.17.02.18.01.18.02.17.01.17.02.17.01.17.02.17.02.17.02.17.02.17.02.17.02.17.02.17.02.18.02.17.03.17.03.17.02.17.03.17.03.18.03.18.03.17.02.17.03.17.03.17.03.17.03.17.03.18.03.16.03.17.04.17.04.17.04.17.04.17.04.17.03.17.04.16.04.17.04.17.04.16.04.17.04.17.04.17.05.16.04.16.04.17.05.17.05.16.05.17.04.16.05.16.05.17.05.17.05.16.05.16.05.17.05.17.05.17.05.16.05.16.05.16.05.17.05.17.05.16.06.16.06.16.06.16.06.16.06.16.06.16.06.17.06.17.06.16.06.16.07.16.06.16.07.16.06.16.06.16.07.16.07.16.07.16.06.16.07.15.07.15.07.16.08.15.07.15.07.15.07.16.07.15.08.15.08.16.07.15.07.16.07.15.08.15.08.16.08.15.08.15.08.15.08.15.08.16.08.15.08.15.08.15.08.15.08.15.09.15.09.15.08.14.09.15.09.15.09.15.09.14.08.15.09.15.09.15.09.14.09.15.09.14.09.15.09.14.1.14.09.14.1.14.1.14.09.14.09.14.1.14.1.15.1.14.1.14.1.14.1.14.1.14.1.14.1.14.1.14.1.14.1.14.1.13.11.14.1.14.1.14.11.13.1.14.1.14.11.13.11.13.11.13.1.13.11.13.11.13.11.13.11.13.11.14.11.13.11.13.11.13.12.13.11.13.11.13.12.13.12.13.12.13.12.13.11.13.12.12.12.13.12.13.12.12.12.13.12.12.12.12.12.12.13.12.12.12.12.12.13.12.12.12.12.12.13.12.13.12.13.12.13.12.13.11.13.12.13.12.12.11.13.12.13.11.13.11.13.11.13.11.13.11.14.11.13.12.13.11.13.11.13.11.14.11.14.11.14.11.14.11.14.11.14.11.13.11.14.1.14.1.14.1.14.1.14.11.15.11.14.1.14.11.14.1.14.1.15.1.14.11.15.1.15.1.15.1.15.09.15.1.15.1.14.1.15.09.14.09.15.09.15.1.15.09.15.09.16.09.15.09.15.09.15.09.15.1.17.1 104.7 61.19.12.07.12.07.11.07.12.06.12.07.12.07.12.06.11.06.11.06.12.06.12.06.12.06.11.06.12.06.12.06.12.06.12.06.12.06.12.05.12.05.12.05.12.05.12.06.12.05.12.05.12.06.12.06.12.05.12.06.12.05.12.05.12.05.12.05.12.05.12.05.12.05.12.05.12.05.12.05.12.05.12.04.12.04.12.05.12.05.12.05.12.05.12.05.12.04.12.04.12.04.13.04.11.03.26.09.25.08.25.07.24.08.25.07.25.07.25.07.25.06.25.06.25.06.25.06.26.05.25.05.26.05.26.05.25.05.26.04.26.05.26.05.26.04.26.04.25.04.25.04.26.03.26.03.26.03.26.03.26.02.25.02.26.02.25.02.26.01.26.01.26.01.25.01.26.01.26.01h.25l.26.01h1.03l.26-.01.25-.01.26-.02.25-.02.26-.01.25-.02.26-.02.26-.02.25-.03.25-.03.26-.03.26-.03.25-.03.26-.04.26-.04.26-.04.25-.04.26-.04.26-.05.25-.05.25-.05.26-.05.25-.06.25-.06.25-.06.25-.06.25-.06.25-.07.25-.06.25-.07.25-.07.24-.08.27-.08.11-.03.13-.04.12-.04.12-.04.12-.04.12-.04.12-.04.12-.04.13-.04.12-.04.13-.05.13-.04.12-.04.12-.04.13-.04.12-.05.12-.04.12-.05.12-.05.12-.05.12-.05.12-.05.12-.05.12-.05.12-.05.12-.05.12-.05.12-.05.12-.05.12-.05.12-.05.12-.05.12-.05.12-.06.12-.06.12-.05.12-.06.12-.06.12-.06.12-.06.12-.06.12-.06.11-.06.12-.06.12-.06.12-.06.12-.06.12-.06.12-.06.12-.07.11-.06.13-.07 116-64.44.13-.08.12-.07.12-.07.12-.07.13-.07.12-.07.12-.07.13-.07.12-.08.12-.07.12-.08.11-.07.12-.07.12-.07.12-.07.12-.07.11-.07.11-.07.11-.07.11-.08.11-.08.11-.08.11-.08.11-.08.11-.08.11-.08.11-.08.11-.08.11-.08.11-.08.11-.08.11-.08.11-.08.11-.09.11-.08.11-.08.11-.09.1-.08.11-.09.11-.08.11-.09.11-.09.11-.08.1-.09.1-.09.1-.09.1-.09.11-.09.1-.09.1-.09.11-.09.1-.09.1-.1.1-.1.1-.09.1-.09.1-.09.1-.09.1-.09.1-.09.1-.09.1-.09.1-.1.1-.09.1-.09.1-.1.09-.09.09-.1.1-.1.1-.1.1-.1.1-.09.09-.1.1-.1.09-.1.09-.1.09-.1.09-.1.09-.1.1-.1.09-.1.09-.1.09-.1.09-.11.09-.1.08-.1.09-.11.09-.11.09-.1.09-.1.08-.11.08-.1.09-.11.08-.11.08-.1.08-.11.09-.11.08-.11.09-.11.09-.1.08-.11.08-.1.08-.11.08-.12.08-.1.08-.11.08-.11.07-.11.08-.11.08-.11.08-.11.07-.11.07-.11.08-.11.08-.11.08-.12.07-.11.07-.12.07-.11.07-.11.07-.12.07-.11.07-.12.07-.12.07-.11.07-.11.07-.11.07-.11.07-.12.07-.12.07-.12.07-.12.07-.12.07-.12.06-.12.07-.12.07-.12.07-.12.07-.12.06-.12.06-.12.06-.12.06-.12.07-.12.06-.13.07-.13.06-.13.06-.12.06-.12.06-.12.05-.12.06-.12.05-.12.05-.12.06-.12.05-.12.06-.12.06-.13.06-.13.05-.12.06-.13.05-.13.05-.13.05-.12.05-.13.05-.13.05-.12.05-.13.05-.13.05-.13.05-.12.05-.13.05-.13.04-.13.05-.13.04-.13.04-.13.04-.13.05-.13.04-.13.04-.13.04-.13.04-.13.04-.13.04-.13.04-.13.04-.13.04-.13.04-.14.03-.13.04-.13.04-.13.03-.13.04-.13.04-.14.04-.14.03-.13.03-.13.03-.14.03-.13.03-.13.03-.14.03-.13.03-.14.03-.13.03-.13.03-.13.02-.14.03-.14.02-.13.03-.138.03-.13.03-.14.03-.13.03-.13.02-.13.03-.14.02-.14.02-.13.02-.14.02-.14.02-.14.02-.14.02-.14.02-.14.02-.14.01-.14.02-.14.02-.14.02-.14.01-.14.01-.14.01-.14.02-.14.01-.14.01-.13.01-.14.01-.14.01-.14.01-.15.01-.14.01-.13.01-.14v-.2l.01-.14.01-.14.01-.14.01-.14.01-.14v-.3l.01-.14V137.1l-.01-.13v-.51l-.01-.126v-.135l-.01-.13-.01-.13-.01-.13-.01-.13-.01-.13-.01-.13-.01-.13-.01-.13-.01-.13-.01-.13-.01-.13-.01-.13-.01-.13-.01-.13-.02-.13-.02-.13-.01-.13-.02-.13-.02-.13-.02-.13-.02-.13-.02-.12-.01-.12-.02-.13-.02-.13-.02-.12-.02-.12-.02-.13-.02-.13-.02-.13-.02-.13-.02-.13-.02-.11-.05-.26-.05-.24-.05-.25-.06-.25-.06-.25-.06-.25-.06-.24-.06-.25-.06-.24-.06-.24-.06-.24-.07-.25-.07-.24-.07-.24-.07-.24-.07-.24-.08-.23-.08-.24-.08-.24-.09-.23-.09-.23-.09-.23-.09-.23-.09-.23-.1-.24-.1-.23-.1-.23-.1-.23-.1-.22-.1-.23-.11-.23-.1-.23-.11-.23-.11-.23-.11-.22-.12-.23-.12-.22-.12-.22-.12-.22-.12-.22-.12-.22-.13-.22-.13-.21-.13-.21-.13-.21-.13-.22-.14-.21-.13-.21-.14-.21-.13-.21-.14-.21-.14-.2-.15-.21-.14-.2-.15-.2-.15-.2-.15-.2-.15-.2-.15-.2-.16-.19-.16-.2-.16-.2-.15-.19-.16-.19-.16-.2-.16-.19-.16-.19-.17-.19-.17-.19-.17-.18-.17-.18-.18-.18-.18-.18-.18-.18-.18-.17-.18-.17-.19-.18-.18-.17-.18-.17-.19-.17-.19-.17-.19-.16-.19-.16-.21-.17-.09-.08-.1-.08-.1-.08-.1-.08-.1-.08-.1-.08-.1-.08-.1-.08-.1-.08-.1-.07-.1-.08-.1-.07-.09-.08-.1-.08-.1-.08-.1-.08-.1-.07-.11-.08-.11-.08-.1-.07-.1-.07-.1-.08-.11-.07-.1-.07-.1-.08-.1-.07-.1-.07-.11-.07-.1-.07-.1-.07-.11-.07-.11-.06-.11-.07-.11-.07-.11-.07-.1-.06-.11-.07-.11-.07-.11-.07-.11-.06-.11-.07-.12-.07-.11-.06-.12-.08L1340 46.05l-.154-.09-.14-.08-.144-.08-.145-.08-.145-.07-.145-.08-.148-.077-.15-.08-.15-.077-.15-.08-.15-.075-.15-.07-.15-.07-.15-.07-.15-.07-.15-.07-.15-.07-.15-.07-.15-.07-.15-.07-.15-.06-.15-.07-.15-.07-.15-.07-.15-.06-.15-.06-.15-.07-.15-.06-.15-.06-.15-.06-.15-.06-.15-.06-.15-.06-.15-.06-.16-.06-.15-.06-.15-.05-.15-.05-.16-.06-.16-.06-.16-.05-.15-.06-.16-.05-.15-.05-.15-.05-.15-.05-.16-.05-.15-.05-.16-.05-.15-.05-.16-.05-.15-.04-.15-.05-.15-.04-.16-.04-.16-.04-.16-.05-.16-.04-.15-.04-.15-.04-.16-.05-.16-.04-.16-.04-.16-.04-.15-.04-.16-.04-.15-.04-.16-.04-.16-.03-.16-.04-.15-.04-.16-.03-.16-.04-.15-.03-.15-.03-.16-.03-.16-.03-.16-.03-.16-.03-.16-.03-.16-.03-.16-.03-.16-.03-.16-.03-.16-.03-.16-.02-.16-.02-.16-.03-.16-.02-.16-.02-.16-.02-.16-.02-.16-.02-.16-.02-.16-.02-.16-.02-.16-.02-.15-.02-.16-.01-.16-.02-.16-.02-.16-.02-.16-.02-.16-.01-.16-.01-.16-.02-.16-.01-.16-.01-.16-.01-.16-.01-.16-.01-.16-.01-.16-.01-.16-.01h-.32l-.16-.01h-.8l-.16-.01h-.48z"/><path fill="#fff" d="M1039.925 204.026c0 47.187-8.943 60.934-26.816 80.584-17.87 19.65-41.57 27.567-71.1 27.567-26.99 0-48.75-9.575-67.61-26.23-20.88-18.446-36.08-47.037-36.08-78.945 0-31.37 11.72-58.485 32.49-78.676 18.22-17.667 45.34-29.177 73.31-29.177 33.76 0 68.82 15.98 90.43 47.53l-31.73 26.82c-13.45-25.03-32.94-33.46-60.82-34.26-30.83-.88-64.77 28.53-62.25 67.75 1.4 21.94 11.65 59.65 60.96 66.57 25.91 3.63 55.36-24.02 55.36-39.04H947.4v-37.5h92.508V204zM1323.723 99.15c58.784 0 106.52 47.728 106.52 106.514 0 58.787-47.736 106.514-106.52 106.514-58.783 0-106.52-47.727-106.52-106.514 0-58.786 47.737-106.514 106.52-106.514zm0 39.572c36.946 0 66.936 29.996 66.936 66.942s-29.99 66.94-66.94 66.94-66.94-29.994-66.94-66.94 29.99-66.942 66.93-66.942z"/>
    </symbol>

  </defs>

  <g id="facebook">
    <use xlink:href="#facebook-symbol"/>
  </g>

  <g id="twitter">
    <use xlink:href="#twitter-symbol"/>
  </g>

  <g id="reddit">
    <use xlink:href="#reddit-symbol"/>
  </g>

  <g id="pinterest">
    <use xlink:href="#pinterest-symbol"/>
  </g>

  <g id="linkedin">
    <use xlink:href="#linkedin-symbol"/>
  </g>

  <g id="tumblr">
    <use xlink:href="#tumblr-symbol"/>
  </g>

  <g id="patreon">
    <use xlink:href="#patreon-symbol"/>
  </g>

  <g id="github">
    <use xlink:href="#github-symbol"/>
  </g>

  <g id="hugo">
    <use xlink:href="#hugo-symbol"/>
  </g>

</svg>