<?xml version="1.0" encoding="utf-8"?>
<!DOCTYPE svg PUBLIC "-//W3C//DTD SVG 1.1//EN" "http://www.w3.org/Graphics/SVG/1.1/DTD/svg11.dtd">
<svg version="1.1" xmlns="http://www.w3.org/2000/svg" xmlns:xlink="http://www.w3.org/1999/xlink">
  <defs>

    <style>
      g { display: none; }
      g:target { display: inline; }
    </style>

    <symbol id="open-symbol">
      <svg xmlns="http://www.w3.org/2000/svg" viewBox="0 0 32 32">
        <path d="M24 21v2c0 0.547-0.453 1-1 1h-22c-0.547 0-1-0.453-1-1v-2c0-0.547 0.453-1 1-1h22c0.547 0 1 0.453 1 1zM24 13v2c0 0.547-0.453 1-1 1h-22c-0.547 0-1-0.453-1-1v-2c0-0.547 0.453-1 1-1h22c0.547 0 1 0.453 1 1zM24 5v2c0 0.547-0.453 1-1 1h-22c-0.547 0-1-0.453-1-1v-2c0-0.547 0.453-1 1-1h22c0.547 0 1 0.453 1 1z"/>
      </svg>
    </symbol>

    <symbol id="close-symbol">
      <svg xmlns="http://www.w3.org/2000/svg">
        <path d="M31.708 25.708L22 16l9.708-9.708c.105-.105.18-.227.229-.357.133-.356.057-.771-.229-1.057L27.122.292c-.286-.286-.702-.361-1.057-.229-.13.048-.252.124-.357.228L16 9.999 6.292.291c-.105-.104-.227-.18-.357-.228-.356-.133-.771-.057-1.057.229L.292 4.878c-.286.286-.361.702-.229 1.057.049.13.124.252.229.357L10 16 .292 25.708c-.104.105-.18.227-.229.357-.133.355-.057.771.229 1.057l4.586 4.586c.286.286.702.361 1.057.229.13-.049.252-.124.357-.229L16 22l9.708 9.708c.105.105.227.18.357.229.356.133.771.057 1.057-.229l4.586-4.586c.286-.286.362-.702.229-1.057-.049-.13-.124-.252-.229-.357z"/>
      </svg>
    </symbol>

    <symbol id="logout-symbol" viewBox="0 0 28 28">
      <path d="M19 10l-6-5v3h-7v4h7v3l6-5zM3 3h8v-2h-8c-1.1 0-2 0.9-2 2v14c0 1.1 0.9 2 2 2h8v-2h-8v-14z"/>
    </symbol>

    <symbol id="dots-symbol" viewBox="0 0 24 24">
      <path d="M12 16.5c.83 0 1.5.67 1.5 1.5s-.67 1.5-1.5 1.5-1.5-.67-1.5-1.5.67-1.5 1.5-1.5zM10.5 12c0 .83.67 1.5 1.5 1.5s1.5-.67 1.5-1.5-.67-1.5-1.5-1.5-1.5.67-1.5 1.5zm0-6c0 .83.67 1.5 1.5 1.5s1.5-.67 1.5-1.5-.67-1.5-1.5-1.5-1.5.67-1.5 1.5z"/>
    </symbol>

    <symbol id="random-symbol" viewBox="0 0 32 32">
      <path d="M24 22h-3.172l-5-5 5-5H24v5l7-7-7-7v5h-4a2 2 0 0 0-1.414.586L13 14.172 7.414 8.586A2 2 0 0 0 6 8H0v4h5.172l5 5-5 5H0v4h6a2 2 0 0 0 1.414-.586L13 19.828l5.586 5.586A2 2 0 0 0 20 26h4v5l7-7-7-7v5z" />
    </symbol>

    <symbol id="top-symbol" viewBox="0 0 36 32">
      <path d="M34 28.161a3.65 3.65 0 0 0 2 3.256v.498a7.42 7.42 0 0 1-6.414-2.251c-.819.218-1.688.336-2.587.336-4.971 0-9-3.582-9-8s4.029-8 9-8 9 3.582 9 8c0 1.73-.618 3.331-1.667 4.64a3.635 3.635 0 0 0-.333 1.522zM16 0c8.702 0 15.781 5.644 15.995 12.672A12.262 12.262 0 0 0 27 11.625c-2.986 0-5.807 1.045-7.942 2.943-2.214 1.968-3.433 4.607-3.433 7.432 0 1.396.298 2.747.867 3.993a19.66 19.66 0 0 1-2.987-.151C10.068 29.279 5.966 29.895 2 29.986v-.841C4.142 28.096 6 26.184 6 24c0-.305-.024-.604-.068-.897C2.313 20.72 0 17.079 0 13 0 5.82 7.163 0 16 0z" />
    </symbol>

    <symbol id="suggestion-symbol" viewBox="0 0 486.8 515.2">
      <path d="M268 492.5c-7.8 9.3-20.7 13.4-32.4 10.5-6.8-1.7-13-5.7-17.5-11.3-1.9-2.4-5.4-2.8-7.8-.9-2.4 1.9-2.8 5.4-.9 7.8 5.9 7.5 14.3 12.9 23.6 15.2 3.4.8 6.9 1.3 10.4 1.3 12.8 0 24.9-5.7 33.2-15.5 2-2.4 1.7-5.9-.7-7.9-2.5-1.9-6-1.5-7.9.8zm-24.6-381c-73.4 0-133 59.7-133 133 0 54 31.9 101.7 81.5 122.5v41.7H295v-41.6c48.9-20.6 81.5-69.4 81.5-122.6-.1-73.4-59.7-133-133.1-133zm40.4 248v38h-35.1v-97l40.4-40.4c2.2-2.2 2.2-5.7 0-7.9s-5.7-2.2-7.9 0l-38.1 38.1-36.3-36.3c-2.2-2.2-5.7-2.2-7.9 0s-2.2 5.7 0 7.9l38.7 38.7v96.9h-34.4v-38.1l-3.6-1.4c-47.3-18.3-77.9-62.9-77.9-113.5 0-67.1 54.7-121.8 121.8-121.8s121.8 54.7 121.8 121.8c0 50-31.3 95.6-77.9 113.6l-3.6 1.4zm4.9 107.6h-91.3c-3.1 0-5.6 2.5-5.6 5.6 0 3.1 2.5 5.6 5.6 5.6h91.3c3.1 0 5.6-2.5 5.6-5.6 0-3.1-2.5-5.6-5.6-5.6zm0-21.7h-91.3c-3.1 0-5.6 2.5-5.6 5.6 0 3.1 2.5 5.6 5.6 5.6h91.3c3.1 0 5.6-2.5 5.6-5.6 0-3.1-2.5-5.6-5.6-5.6zm0-21.7h-91.3c-3.1 0-5.6 2.5-5.6 5.6 0 3.1 2.5 5.6 5.6 5.6h91.3c3.1 0 5.6-2.5 5.6-5.6 0-3.1-2.5-5.6-5.6-5.6zM243.1 86.6c3.1 0 5.6-2.5 5.6-5.6V5.6c0-3.1-2.5-5.6-5.6-5.6-3.1 0-5.6 2.5-5.6 5.6V81c0 3.1 2.5 5.6 5.6 5.6zm-118.4 51.8c1.1 1.1 2.5 1.6 4 1.6s2.9-.6 4-1.6c2.2-2.2 2.2-5.7 0-7.9L79.2 77.2c-2.2-2.2-5.7-2.2-7.9 0s-2.2 5.7 0 7.9l53.4 53.3zm237.5 221.7c-2.2-2.2-5.7-2.2-7.9 0s-2.2 5.7 0 7.9l53.4 53.4c1.1 1.1 2.5 1.6 4 1.6s2.9-.6 4-1.6c2.2-2.2 2.2-5.7 0-7.9l-53.5-53.4zm-4-220c1.5 0 2.9-.6 4-1.6l53.4-53.4c2.2-2.2 2.2-5.7 0-7.9s-5.7-2.2-7.9 0l-53.4 53.4c-2.2 2.2-2.2 5.7 0 7.9 1.1 1 2.5 1.6 3.9 1.6zm-233.5 220-53.4 53.4c-2.2 2.2-2.2 5.7 0 7.9 1.1 1.1 2.5 1.6 4 1.6s2.9-.6 4-1.6l53.4-53.4c2.2-2.2 2.2-5.7 0-7.9s-5.9-2.2-8 0zm356.6-116.4h-75.5c-3.1 0-5.6 2.5-5.6 5.6 0 3.1 2.5 5.6 5.6 5.6h75.4c3.1 0 5.6-2.5 5.6-5.6 0-3.1-2.5-5.6-5.5-5.6zm-394.6 5.6c0-3.1-2.5-5.6-5.6-5.6H5.6c-3.1 0-5.6 2.5-5.6 5.6 0 3.1 2.5 5.6 5.6 5.6H81c3.2 0 5.7-2.5 5.7-5.6z" />
    </symbol>

    <symbol id="search-symbol" viewBox="0 0 32 32">
      <path d="M31.715 28.953c0.381 0.381 0.381 0.999 0 1.381l-1.381 1.381c-0.382 0.381-1 0.381-1.381 0l-9.668-9.668c-0.105-0.105-0.175-0.229-0.222-0.361-1.983 1.449-4.418 2.314-7.063 2.314-6.627 0-12-5.373-12-12s5.373-12 12-12c6.627 0 12 5.373 12 12 0 2.645-0.865 5.080-2.314 7.063 0.132 0.047 0.256 0.116 0.361 0.222l9.668 9.668zM12 4c-4.418 0-8 3.582-8 8s3.582 8 8 8 8-3.582 8-8c0-4.418-3.582-8-8-8z"/>
    </symbol>

    <symbol id="close-thin-symbol" viewBox="0 0 20 20">
      <path d="M10 8.586 2.929 1.515 1.515 2.929 8.586 10l-7.071 7.071 1.414 1.414L10 11.414l7.071 7.071 1.414-1.414L11.414 10l7.071-7.071-1.414-1.414L10 8.586z"/>
    </symbol>

    <symbol id="home-symbol">
      <svg xmlns="http://www.w3.org/2000/svg" viewBox="0 0 32 32">
        <path d="M22 15.5v7.5c0 0.547-0.453 1-1 1h-6v-6h-4v6h-6c-0.547 0-1-0.453-1-1v-7.5c0-0.031 0.016-0.063 0.016-0.094l8.984-7.406 8.984 7.406c0.016 0.031 0.016 0.063 0.016 0.094zM25.484 14.422l-0.969 1.156c-0.078 0.094-0.203 0.156-0.328 0.172h-0.047c-0.125 0-0.234-0.031-0.328-0.109l-10.813-9.016-10.813 9.016c-0.109 0.078-0.234 0.125-0.375 0.109-0.125-0.016-0.25-0.078-0.328-0.172l-0.969-1.156c-0.172-0.203-0.141-0.531 0.063-0.703l11.234-9.359c0.656-0.547 1.719-0.547 2.375 0l3.813 3.187v-3.047c0-0.281 0.219-0.5 0.5-0.5h3c0.281 0 0.5 0.219 0.5 0.5v6.375l3.422 2.844c0.203 0.172 0.234 0.5 0.063 0.703z"/>
      </svg>
    </symbol>

    <symbol id="dashboard-symbol">
      <svg xmlns="http://www.w3.org/2000/svg" viewBox="0 0 24 24">
        <path d="M12.984 3h8.016v6h-8.016v-6zM12.984 21v-9.984h8.016v9.984h-8.016zM3 21v-6h8.016v6h-8.016zM3 12.984v-9.984h8.016v9.984h-8.016z"/>
      </svg>
    </symbol>

    <symbol id="preferences-symbol">
      <svg xmlns="http://www.w3.org/2000/svg" viewBox="0 0 32 32">
        <path d="M11.366 22.564l1.291-1.807-1.414-1.414-1.807 1.291c-0.335-0.187-0.694-0.337-1.071-0.444l-0.365-2.19h-2l-0.365 2.19c-0.377 0.107-0.736 0.256-1.071 0.444l-1.807-1.291-1.414 1.414 1.291 1.807c-0.187 0.335-0.337 0.694-0.443 1.071l-2.19 0.365v2l2.19 0.365c0.107 0.377 0.256 0.736 0.444 1.071l-1.291 1.807 1.414 1.414 1.807-1.291c0.335 0.187 0.694 0.337 1.071 0.444l0.365 2.19h2l0.365-2.19c0.377-0.107 0.736-0.256 1.071-0.444l1.807 1.291 1.414-1.414-1.291-1.807c0.187-0.335 0.337-0.694 0.444-1.071l2.19-0.365v-2l-2.19-0.365c-0.107-0.377-0.256-0.736-0.444-1.071zM7 27c-1.105 0-2-0.895-2-2s0.895-2 2-2 2 0.895 2 2-0.895 2-2 2zM32 12v-2l-2.106-0.383c-0.039-0.251-0.088-0.499-0.148-0.743l1.799-1.159-0.765-1.848-2.092 0.452c-0.132-0.216-0.273-0.426-0.422-0.629l1.219-1.761-1.414-1.414-1.761 1.219c-0.203-0.149-0.413-0.29-0.629-0.422l0.452-2.092-1.848-0.765-1.159 1.799c-0.244-0.059-0.492-0.109-0.743-0.148l-0.383-2.106h-2l-0.383 2.106c-0.251 0.039-0.499 0.088-0.743 0.148l-1.159-1.799-1.848 0.765 0.452 2.092c-0.216 0.132-0.426 0.273-0.629 0.422l-1.761-1.219-1.414 1.414 1.219 1.761c-0.149 0.203-0.29 0.413-0.422 0.629l-2.092-0.452-0.765 1.848 1.799 1.159c-0.059 0.244-0.109 0.492-0.148 0.743l-2.106 0.383v2l2.106 0.383c0.039 0.251 0.088 0.499 0.148 0.743l-1.799 1.159 0.765 1.848 2.092-0.452c0.132 0.216 0.273 0.426 0.422 0.629l-1.219 1.761 1.414 1.414 1.761-1.219c0.203 0.149 0.413 0.29 0.629 0.422l-0.452 2.092 1.848 0.765 1.159-1.799c0.244 0.059 0.492 0.109 0.743 0.148l0.383 2.106h2l0.383-2.106c0.251-0.039 0.499-0.088 0.743-0.148l1.159 1.799 1.848-0.765-0.452-2.092c0.216-0.132 0.426-0.273 0.629-0.422l1.761 1.219 1.414-1.414-1.219-1.761c0.149-0.203 0.29-0.413 0.422-0.629l2.092 0.452 0.765-1.848-1.799-1.159c0.059-0.244 0.109-0.492 0.148-0.743l2.106-0.383zM21 15.35c-2.402 0-4.35-1.948-4.35-4.35s1.948-4.35 4.35-4.35 4.35 1.948 4.35 4.35c0 2.402-1.948 4.35-4.35 4.35z"/>
      </svg>
    </symbol>

    <symbol id="theme-switcher-light">
      <svg version="1.0" xmlns="http://www.w3.org/2000/svg" viewBox="0 0 512 512">
        <path d="M484.27 236c4 5.1 2.2 14.1-3.6 18-2.6 1.8-5.4 1.9-42.5 2.2-25 .2-41.2-.1-43.6-.7-8.3-2.3-12.6-11.6-8.5-18.1a19.87 19.87 0 0 1 4.9-5.1c2.7-1.8 5.2-1.9 44.2-1.9 44.83.04 44.7.04 49.1 5.6ZM434 416.64a12.7 12.7 0 0 1-7 17.6c-7.6 2.5-8.6 1.7-38.9-28.6-29.5-29.5-30.4-30.7-28.5-37.8.9-3.7 5.1-8.1 8.1-8.7 4-.8 5.5-.7 8.4.3 3.17 1.2 55.67 53.1 57.9 57.2Zm-17.23-363.7c10.8-5.5 22.4 5.8 17.2 16.7-.9 1.9-13.7 15.4-28.4 30-28.3 28.2-29.8 29.3-37.1 27.7a12.13 12.13 0 0 1-9-9c-1.6-7.3-.5-8.8 27.7-37.1 14.6-14.7 27.9-27.4 29.6-28.3Z"/><path d="M324.37 205.73c12.4 26.4 10.8 58.7-4.2 83.3a90.74 90.74 0 0 1-62.9 42.5c-11 1.7-27.6.6-38.2-2.5-15.1-4.5-25.6-10.6-37.1-21.5-17-16.3-26.2-36.4-27.3-59.6-1.1-22.9 5.1-42.4 19.2-60.2 21.6-27.3 55.7-39.1 90.4-31.2 26.2 6 48.4 24.2 60.1 49.2Z"/><path d="M338.87 178.93c37.3 57.1 19.2 131.9-39.9 165-31.5 17.6-71.5 18.8-104.4 3-49.9-23.9-75.9-79.2-62.2-132.3 11.2-43.7 46.8-76.5 91.9-84.6 10.4-1.9 27.8-1.9 38.6 0a122.17 122.17 0 0 1 45 17.9c7.7 5 26 23.3 31 31ZM320.17 289c15-24.6 16.6-56.9 4.2-83.3-11.7-25-33.9-43.2-60.1-49.2-34.7-7.9-68.8 3.9-90.4 31.2-14.1 17.8-20.3 37.3-19.2 60.2 1.1 23.2 10.3 43.3 27.3 59.6 11.5 10.9 22 17 37.1 21.5 10.6 3.1 27.2 4.2 38.2 2.5a90.74 90.74 0 0 0 62.9-42.5Z"/><path d="M338.87 178.93c37.3 57.1 19.2 131.9-39.9 165-31.5 17.6-71.5 18.8-104.4 3-49.9-23.9-75.9-79.2-62.2-132.3 11.2-43.7 46.8-76.5 91.9-84.6 10.4-1.9 27.8-1.9 38.6 0a122.17 122.17 0 0 1 45 17.9c7.7 5 26 23.3 31 31Z"/><path d="M320.17 289c15-24.6 16.6-56.9 4.2-83.3-11.7-25-33.9-43.2-60.1-49.2-34.7-7.9-68.8 3.9-90.4 31.2-14.1 17.8-20.3 37.3-19.2 60.2 1.1 23.2 10.3 43.3 27.3 59.6 11.5 10.9 22 17 37.1 21.5 10.6 3.1 27.2 4.2 38.2 2.5a90.74 90.74 0 0 0 62.9-42.5Z"/><path d="M256.37 51.54c0 38.9-.1 41.3-1.9 44.3-6.2 9.9-20.1 7.8-23.2-3.6-.6-2.4-.9-18.6-.7-43.6.3-37 .4-39.9 2.2-42.5a16.24 16.24 0 0 1 4.5-4.2c3.9-2.1 10.4-1.9 13.5.6 5.6 4.4 5.6 4.3 5.6 49Zm0 384c0 38.9-.1 41.3-1.9 44.3-6.2 9.9-20.1 7.8-23.2-3.6-.6-2.4-.9-18.6-.7-43.6.3-37 .4-39.9 2.2-42.5a16.24 16.24 0 0 1 4.5-4.2c3.9-2.1 10.4-1.9 13.5.6 5.6 4.4 5.6 4.3 5.6 49Zm-145-76.4c10.4-2 18.1 4.8 16.5 14.7-.6 3.8-3.1 6.5-28.8 32.2-29.7 29.6-30.4 30.2-37.8 28.7-3.9-.7-8.5-5.3-9.2-9.2-1.5-7.3-.9-8.1 28.7-37.8 17.9-18 29-28.3 30.6-28.6Zm16-248.2c3.5 9.3-5 18.6-14.9 16.4-5-1.1-58.7-54.7-60.1-60a12.49 12.49 0 0 1 4.9-13.6 12.76 12.76 0 0 1 12.9-.9c4.3 2.3 56 54.8 57.2 58.1ZM100.27 236c4 5.1 2.2 14.1-3.6 18-2.6 1.8-5.4 1.9-42.5 2.2-25 .2-41.2-.1-43.6-.7-8.3-2.3-12.6-11.6-8.5-18.1a19.87 19.87 0 0 1 4.9-5.1c2.7-1.8 5.2-1.9 44.2-1.9 44.83.04 44.7.04 49.1 5.6Z"/>
      </svg>
    </symbol>

    <symbol id="theme-switcher-dark">
      <svg version="1.0" xmlns="http://www.w3.org/2000/svg" viewBox="0 0 512 512">
        <path d="M476.92 344.7c.4.4-10.2 21.4-15 29.4-21.8 36.3-56.7 68.8-94.2 87.6-33.5 16.8-67.3 24.7-105.4 24.7-53.2 0-100.5-16.2-144.5-49.3-10.3-7.8-34.4-31.9-42.2-42.2-23.1-30.6-38.6-64.7-45.3-99.5-6.8-35.1-5-76.1 5-110.6 18-62.4 62.4-114.8 122-144.1 5.8-2.8 10.6-5 10.7-4.9s-1 4-2.6 8.7c-12.5 37.3-14.6 83.9-5.5 124.4 20.7 92.4 93.9 164.9 186.4 184.5 23.7 5 57 6.5 79.2 3.5a266.88 266.88 0 0 0 42.7-9.6c4.7-1.6 8.5-2.8 8.7-2.6Z"/><path d="M506.52 309.8c3 2 5.8 7.2 5.8 10.9 0 5.9-11.8 35.7-20.8 52.7-37 69.7-101.7 118.4-177.7 133.8-66.2 13.4-138-.3-193.9-37.1-61-40.3-102.1-101.7-115-172.1-14.2-77 6.2-154.6 56-213.6 30.9-36.6 71.2-64 117.9-80.1 6.1-2 12.1-3.8 13.5-3.8 6.7-.2 13.6 7.3 12.6 13.7-.3 1.8-2.7 8.1-5.4 14-14.1 30.5-19.6 55.3-19.6 88.2.1 33.4 6.6 62.6 20.8 92.5 29.2 61.3 87.2 106.6 153.6 119.9 45.4 9.1 87.5 4.1 129.5-15.3 13-6 18-6.8 22.7-3.7Zm-44.6 64.3c4.8-8 15.4-29 15-29.4-.2-.2-4 1-8.7 2.6a266.88 266.88 0 0 1-42.7 9.6c-22.2 3-55.5 1.5-79.2-3.5-92.5-19.6-165.7-92.1-186.4-184.5-9.1-40.5-7-87.1 5.5-124.4 1.6-4.7 2.8-8.5 2.6-8.7s-4.9 2.1-10.7 4.9c-59.6 29.3-104 81.7-122 144.1-10 34.5-11.8 75.5-5 110.6 6.7 34.8 22.2 68.9 45.3 99.5 7.8 10.3 31.9 34.4 42.2 42.2 44 33.1 91.3 49.3 144.5 49.3 38.1 0 71.9-7.9 105.4-24.7 37.5-18.8 72.4-51.3 94.2-87.6Z"/><path d="M178.82 4.3c-46.7 16.1-87 43.5-117.9 80.1-49.8 59-70.2 136.6-56 213.6 12.9 70.4 54 131.8 115 172.1 55.9 36.8 127.7 50.5 193.9 37.1 76-15.4 140.7-64.1 177.7-133.8 9-17 20.8-46.8 20.8-52.7 0-3.7-2.8-8.9-5.8-10.9-4.7-3.1-9.7-2.3-22.7 3.7-42 19.4-84.1 24.4-129.5 15.3-66.4-13.3-124.4-58.6-153.6-119.9-14.2-29.9-20.7-59.1-20.8-92.5 0-32.9 5.5-57.7 19.6-88.2 2.7-5.9 5.1-12.2 5.4-14 1-6.4-5.9-13.9-12.6-13.7-1.4 0-7.4 1.8-13.5 3.8Z"/><path d="M165.42 44.5c-12.5 37.3-14.6 83.9-5.5 124.4 20.7 92.4 93.9 164.9 186.4 184.5 23.7 5 57 6.5 79.2 3.5a266.88 266.88 0 0 0 42.7-9.6c4.7-1.6 8.5-2.8 8.7-2.6.4.4-10.2 21.4-15 29.4-21.8 36.3-56.7 68.8-94.2 87.6-33.5 16.8-67.3 24.7-105.4 24.7-53.2 0-100.5-16.2-144.5-49.3-10.3-7.8-34.4-31.9-42.2-42.2-23.1-30.6-38.6-64.7-45.3-99.5-6.8-35.1-5-76.1 5-110.6 18-62.4 62.4-114.8 122-144.1 5.8-2.8 10.6-5 10.7-4.9s-1.02 4-2.6 8.7Z"/>
      </svg>
    </symbol>

  </defs>

  <g id="open">
    <use xlink:href="#open-symbol"/>
  </g>

  <g id="close">
    <use xlink:href="#close-symbol"/>
  </g>

  <g id="logout">
    <use xlink:href="#logout-symbol"/>
  </g>

  <g id="dots">
    <use xlink:href="#dots-symbol"/>
  </g>

  <g id="random">
    <use xlink:href="#random-symbol"/>
  </g>

  <g id="top">
    <use xlink:href="#top-symbol"/>
  </g>

  <g id="suggestion">
    <use xlink:href="#suggestion-symbol"/>
  </g>

  <g id="search">
    <use xlink:href="#search-symbol"/>
  </g>

  <g id="close-thin">
    <use xlink:href="#close-thin-symbol"/>
  </g>

  <g id="home">
    <use xlink:href="#home-symbol"/>
  </g>

  <g id="dashboard">
    <use xlink:href="#dashboard-symbol"/>
  </g>

  <g id="preferences">
    <use xlink:href="#preferences-symbol"/>
  </g>

  <g id="theme-switcher-light">
    <use xlink:href="#theme-switcher-light-symbol"/>
  </g>

  <g id="theme-switcher-dark">
    <use xlink:href="#theme-switcher-dark-symbol"/>
  </g>

</svg>