<?xml version="1.0" encoding="utf-8"?>
<!DOCTYPE svg PUBLIC "-//W3C//DTD SVG 1.1//EN" "http://www.w3.org/Graphics/SVG/1.1/DTD/svg11.dtd">
<svg version="1.1" xmlns="http://www.w3.org/2000/svg" xmlns:xlink="http://www.w3.org/1999/xlink">
  <defs>

    <style>
      g { display: none; }
      g:target { display: inline; }
    </style>

    <symbol id="share-symbol" viewBox="0 0 24 24">
      <path d="M15 5.63 20.66 12 15 18.37V14h-1c-3.96 0-7.14 1-9.75 3.09 1.84-4.07 5.11-6.4 9.89-7.1l.86-.13V5.63M14 3v6C6.22 10.13 3.11 15.33 2 21c2.78-3.97 6.44-6 12-6v6l8-9-8-9z"/>
    </symbol>

    <symbol id="block-symbol" viewBox="0 0 24 28">
      <path d="M20.5 13.953c0-1.703-0.5-3.281-1.359-4.609l-11.781 11.766c1.344 0.875 2.938 1.391 4.641 1.391 4.688 0 8.5-3.828 8.5-8.547zM4.891 18.625l11.797-11.781c-1.344-0.906-2.953-1.422-4.688-1.422-4.688 0-8.5 3.828-8.5 8.531 0 1.734 0.516 3.328 1.391 4.672zM24 13.953c0 6.656-5.375 12.047-12 12.047s-12-5.391-12-12.047c0-6.641 5.375-12.031 12-12.031s12 5.391 12 12.031z"/>
    </symbol>

    <symbol id="unblock-symbol" viewBox="0 0 24 24">
      <path d="M11.859 9h0.141q1.219 0 2.109 0.891t0.891 2.109v0.188zM7.547 9.797q-0.563 1.125-0.563 2.203 0 2.063 1.477 3.539t3.539 1.477q1.078 0 2.203-0.563l-1.547-1.547q-0.375 0.094-0.656 0.094-1.219 0-2.109-0.891t-0.891-2.109q0-0.281 0.094-0.656zM2.016 4.266l1.266-1.266 17.719 17.719-1.266 1.266q-0.234-0.234-1.477-1.453t-1.898-1.875q-2.016 0.844-4.359 0.844-3.703 0-6.703-2.063t-4.313-5.438q0.516-1.219 1.617-2.695t2.133-2.273q-0.563-0.563-1.57-1.594t-1.148-1.172zM12 6.984q-0.938 0-1.828 0.375l-2.156-2.156q1.828-0.703 3.984-0.703 3.703 0 6.68 2.063t4.289 5.438q-1.125 2.766-3.422 4.734l-2.906-2.906q0.375-0.891 0.375-1.828 0-2.063-1.477-3.539t-3.539-1.477z"></path>
    </symbol>

    <symbol id="follow-symbol" viewBox="0 0 32 28">
      <path d="M11 14c-3.313 0-6-2.688-6-6s2.688-6 6-6 6 2.688 6 6-2.688 6-6 6zM26 16h5.5c0.266 0 0.5 0.234 0.5 0.5v3c0 0.266-0.234 0.5-0.5 0.5h-5.5v5.5c0 0.266-0.234 0.5-0.5 0.5h-3c-0.266 0-0.5-0.234-0.5-0.5v-5.5h-5.5c-0.266 0-0.5-0.234-0.5-0.5v-3c0-0.266 0.234-0.5 0.5-0.5h5.5v-5.5c0-0.266 0.234-0.5 0.5-0.5h3c0.266 0 0.5 0.234 0.5 0.5v5.5zM14.5 19.5c0 1.094 0.906 2 2 2h4v3.719c-0.766 0.562-1.734 0.781-2.672 0.781h-13.656c-2.5 0-4.172-1.5-4.172-4.047 0-3.531 0.828-8.953 5.406-8.953 0.25 0 0.422 0.109 0.609 0.266 1.531 1.172 3.016 1.906 4.984 1.906s3.453-0.734 4.984-1.906c0.187-0.156 0.359-0.266 0.609-0.266 1.328 0 2.5 0.5 3.391 1.5h-3.484c-1.094 0-2 0.906-2 2v3z"/>
    </symbol>

    <symbol id="unfollow-symbol" viewBox="0 0 32 28">
      <path d="M11 14c-3.313 0-6-2.688-6-6s2.688-6 6-6 6 2.688 6 6-2.688 6-6 6zM27.828 19l3.891 3.891c0.094 0.094 0.141 0.219 0.141 0.359 0 0.125-0.047 0.25-0.141 0.344l-2.125 2.125c-0.094 0.094-0.219 0.141-0.344 0.141-0.141 0-0.266-0.047-0.359-0.141l-3.891-3.891-3.891 3.891c-0.094 0.094-0.219 0.141-0.359 0.141-0.125 0-0.25-0.047-0.344-0.141l-2.125-2.125c-0.094-0.094-0.141-0.219-0.141-0.344 0-0.141 0.047-0.266 0.141-0.359l3.891-3.891-3.891-3.891c-0.094-0.094-0.141-0.219-0.141-0.359 0-0.125 0.047-0.25 0.141-0.344l2.125-2.125c0.094-0.094 0.219-0.141 0.344-0.141 0.141 0 0.266 0.047 0.359 0.141l3.891 3.891 3.891-3.891c0.094-0.094 0.219-0.141 0.359-0.141 0.125 0 0.25 0.047 0.344 0.141l2.125 2.125c0.094 0.094 0.141 0.219 0.141 0.344 0 0.141-0.047 0.266-0.141 0.359zM20.047 19l-2.828 2.828c-0.375 0.375-0.578 0.891-0.578 1.422 0 0.516 0.203 1.031 0.578 1.406l1.297 1.297c-0.219 0.031-0.453 0.047-0.688 0.047h-13.656c-2.5 0-4.172-1.5-4.172-4.047 0-3.531 0.828-8.953 5.406-8.953 0.25 0 0.422 0.109 0.609 0.266 1.5 1.188 3.031 1.906 4.984 1.906s3.484-0.719 4.984-1.906c0.187-0.156 0.359-0.266 0.609-0.266 0.297 0 0.594 0.031 0.891 0.094-0.516 0.5-0.844 0.906-0.844 1.656 0 0.531 0.203 1.047 0.578 1.422z"/>
    </symbol>

  </defs>

  <g id="share">
    <use xlink:href="#share-symbol"/>
  </g>

  <g id="block">
    <use xlink:href="#block-symbol"/>
  </g>

  <g id="unblock">
    <use xlink:href="#unblock-symbol"/>
  </g>

  <g id="follow">
    <use xlink:href="#follow-symbol"/>
  </g>

  <g id="unfollow">
    <use xlink:href="#unfollow-symbol"/>
  </g>

</svg>